<svg xmlns="http://www.w3.org/2000/svg" width="414" height="444" viewBox="0 0 414 444">
<g>
<path d="M 211.71 432.86 C205.75,436.75 202.20,437.87 200.68,436.34 C199.50,435.16 202.02,433.19 204.04,433.72 C205.26,434.04 206.04,433.72 206.11,432.87 C206.16,432.11 206.28,430.62 206.36,429.55 C206.44,428.47 208.07,426.53 210.00,425.24 C211.93,423.94 213.68,422.35 213.91,421.71 C214.13,421.07 213.23,421.33 211.91,422.28 C210.58,423.23 208.39,424.80 207.04,425.76 C205.68,426.72 202.60,429.41 200.19,431.75 C197.34,434.52 194.92,436.00 193.23,436.00 L 190.65 436.00 L 195.50 430.75 L 193.00 431.49 C191.62,431.90 189.82,432.81 189.00,433.51 C186.97,435.23 181.52,436.30 178.95,435.48 C176.95,434.85 176.94,434.73 178.58,432.91 C180.92,430.32 178.60,430.39 175.27,433.00 C173.87,434.10 172.00,434.99 171.12,434.98 C169.45,434.97 172.07,432.30 179.15,426.81 C184.04,423.01 181.75,422.09 176.55,425.75 C173.70,427.76 171.98,428.45 171.71,427.69 C171.45,426.94 169.86,427.62 167.40,429.56 C161.86,433.92 161.44,434.10 158.96,433.18 C156.84,432.40 156.96,432.17 161.39,428.54 C163.95,426.44 165.83,424.49 165.55,424.22 C165.28,423.95 163.42,425.02 161.42,426.61 C154.57,432.05 151.56,434.00 150.03,433.98 C148.68,433.97 148.67,433.86 150.00,433.00 C151.98,431.72 150.39,431.72 148.01,433.00 C146.93,433.57 145.21,433.64 143.91,433.16 L 141.68 432.34 L 144.03 430.69 C147.15,428.51 146.44,428.07 140.78,428.72 C137.28,429.12 135.90,429.75 135.44,431.18 C134.71,433.48 132.37,433.01 132.79,430.65 C133.11,428.87 131.50,428.38 130.53,429.96 C130.20,430.48 129.32,430.68 128.57,430.39 C127.82,430.10 126.93,430.30 126.60,430.84 C125.99,431.83 118.65,431.52 116.88,430.43 C116.35,430.10 116.21,428.93 116.56,427.82 C117.11,426.08 116.88,425.90 114.85,426.52 C113.56,426.91 111.79,427.86 110.92,428.62 C108.89,430.40 106.87,430.37 104.44,428.53 C103.37,427.72 101.09,427.05 99.36,427.03 C97.63,427.01 95.16,426.13 93.86,425.06 C91.52,423.14 91.52,423.12 93.50,421.60 C94.60,420.75 97.86,419.36 100.74,418.51 C104.37,417.43 106.51,416.11 107.67,414.22 C108.60,412.73 110.87,409.89 112.72,407.92 L 116.08 404.34 L 108.61 389.10 C99.81,371.12 92.79,350.50 90.51,335.95 C89.61,330.20 88.61,318.42 88.30,309.76 L 87.72 294.02 L 83.49 291.55 C77.01,287.75 69.86,279.23 67.00,271.91 C64.80,266.27 64.50,264.01 64.53,253.00 C64.57,242.17 64.94,239.33 67.34,231.76 C70.99,220.27 74.59,212.45 84.10,195.39 C91.33,182.43 92.13,180.41 94.05,170.39 C96.80,156.02 101.88,135.99 107.45,117.50 L 111.98 102.50 L 108.27 99.50 C93.62,87.65 86.82,77.18 85.45,64.36 C82.83,39.89 100.13,18.47 123.53,17.21 C142.39,16.19 157.46,25.02 166.02,42.09 C167.79,45.62 169.37,48.65 169.53,48.83 C169.70,49.02 173.58,48.37 178.17,47.39 C184.75,45.99 190.70,45.65 206.50,45.77 C224.42,45.90 231.31,46.43 243.02,48.55 L 246.53 49.19 L 249.83 42.08 C254.18,32.69 261.70,24.98 270.68,20.73 C277.13,17.67 278.12,17.50 289.00,17.50 C299.64,17.50 300.94,17.71 306.35,20.37 C309.57,21.95 314.78,25.78 317.92,28.87 C331.94,42.65 334.87,62.61 325.43,79.96 C322.53,85.28 310.70,97.27 306.42,99.22 C303.48,100.56 303.44,101.51 306.01,108.24 C310.25,119.33 317.39,146.92 320.98,166.08 C322.92,176.44 323.83,178.91 329.60,189.58 C345.85,219.59 351.21,233.42 352.53,248.71 C354.12,267.25 346.72,283.81 333.31,291.67 C330.94,293.05 329.00,294.93 329.00,295.85 C328.98,302.11 326.76,330.68 325.88,336.00 C323.20,352.10 317.25,369.34 307.38,389.60 C303.87,396.80 301.00,403.00 301.00,403.38 C301.00,403.75 302.69,406.24 304.75,408.90 C306.81,411.56 308.95,414.47 309.50,415.37 C310.11,416.37 312.45,417.24 315.50,417.61 C322.04,418.39 326.00,420.09 326.00,422.12 C326.00,424.76 323.16,426.38 317.42,427.01 C312.29,427.57 312.13,427.52 313.69,425.79 C316.21,423.01 314.77,422.80 310.94,425.39 C309.05,426.67 306.38,428.04 305.00,428.44 C303.62,428.83 301.12,429.78 299.43,430.54 C295.86,432.15 282.12,434.46 281.26,433.60 C280.94,433.27 281.50,432.11 282.49,431.01 C284.25,429.06 284.25,429.00 282.35,429.00 C281.27,429.00 278.86,430.12 277.00,431.50 C273.12,434.36 271.00,434.69 271.00,432.43 C271.00,431.29 270.42,431.05 268.87,431.54 C267.70,431.91 265.56,432.34 264.12,432.50 C262.68,432.65 259.92,433.26 258.00,433.85 L 254.50 434.91 L 258.96 431.00 C265.37,425.38 263.27,424.99 255.69,430.40 C250.03,434.44 248.62,435.00 244.09,435.00 C239.18,435.00 238.98,434.90 240.04,432.92 C241.04,431.05 240.96,430.95 239.19,431.90 C238.12,432.47 236.97,433.63 236.65,434.47 C236.33,435.31 235.28,436.00 234.33,436.00 C233.04,436.00 233.60,434.97 236.48,432.02 C238.62,429.83 240.14,427.81 239.86,427.52 C239.57,427.24 236.45,429.03 232.92,431.49 C226.07,436.28 223.55,437.26 226.50,434.00 C227.50,432.90 228.89,432.00 229.60,432.00 C231.31,432.00 236.67,427.34 235.88,426.55 C235.53,426.20 233.11,427.06 230.48,428.46 C225.12,431.31 224.60,431.46 225.56,429.90 C226.48,428.42 222.12,430.69 219.50,433.06 C217.01,435.31 212.00,437.29 212.00,436.03 C212.00,435.52 213.59,433.89 215.53,432.41 C221.23,428.06 218.61,428.37 211.71,432.86 ZM 113.95 419.55 C115.32,420.92 141.52,421.30 147.93,420.05 C156.40,418.39 156.89,417.62 161.54,398.81 C162.45,395.13 164.08,390.46 165.16,388.44 C167.37,384.31 167.80,378.36 166.10,375.19 C165.48,374.03 163.40,371.88 161.49,370.42 C158.34,368.03 156.82,365.00 158.75,365.00 C159.17,365.00 162.65,365.92 166.50,367.05 C175.79,369.77 193.91,371.94 207.50,371.94 C226.61,371.95 236.96,370.51 255.25,365.27 C258.27,364.40 257.24,367.70 253.75,370.09 C251.96,371.31 249.51,373.32 248.30,374.56 C247.10,375.79 245.54,376.99 244.85,377.22 C244.02,377.49 245.01,379.78 247.83,384.07 C252.04,390.48 253.74,395.20 255.84,406.39 C257.08,412.97 258.84,416.20 262.51,418.60 C264.52,419.92 268.10,420.25 281.38,420.36 C296.21,420.49 297.98,420.32 299.89,418.60 C301.05,417.55 302.00,416.34 302.00,415.91 C302.00,415.47 300.21,413.06 298.03,410.53 C293.20,404.95 293.32,403.37 299.54,391.00 C309.26,371.67 312.76,362.64 316.98,346.00 C318.95,338.23 322.00,314.71 322.00,307.23 C322.00,303.17 321.88,302.99 319.49,303.59 C318.07,303.95 316.34,303.70 315.53,303.03 C314.74,302.37 313.68,302.08 313.19,302.38 C312.70,302.69 310.65,302.10 308.65,301.08 C306.62,300.04 305.00,299.68 305.00,300.26 C305.00,300.84 304.18,300.57 303.17,299.65 C302.17,298.74 300.39,298.00 299.23,298.00 C298.07,298.00 296.87,297.59 296.56,297.09 C296.25,296.60 295.21,296.39 294.24,296.65 C293.28,296.90 291.53,296.21 290.35,295.11 C289.18,294.02 287.98,293.35 287.70,293.63 C286.73,294.61 281.50,291.19 279.22,288.10 C277.97,286.39 276.28,285.00 275.47,285.00 C273.01,285.00 266.95,277.92 257.68,264.22 C252.83,257.05 248.02,250.42 246.98,249.48 C245.84,248.45 242.41,247.48 238.29,247.03 C231.65,246.30 224.51,243.53 222.24,240.78 C219.79,237.83 218.69,230.72 219.96,226.00 C222.47,216.64 234.47,208.54 249.00,206.39 C255.17,205.48 256.52,204.62 259.15,199.95 C263.43,192.33 271.34,189.81 276.64,194.37 C279.04,196.43 279.44,197.61 279.80,203.62 C280.06,207.77 280.81,211.17 281.71,212.19 C283.03,213.68 295.66,220.97 311.75,229.53 C315.22,231.37 317.00,232.95 317.00,234.19 C317.00,237.84 313.83,237.37 303.61,232.22 C277.55,219.06 274.00,215.92 274.00,205.97 C274.00,199.42 272.62,197.56 268.53,198.58 C266.55,199.08 265.28,200.56 263.59,204.38 C262.34,207.19 260.69,209.98 259.91,210.58 C259.14,211.17 254.23,212.23 249.00,212.94 C243.77,213.64 238.15,214.90 236.50,215.72 C231.94,218.00 226.16,223.98 224.94,227.69 C224.00,230.52 224.15,231.51 225.95,234.42 C227.11,236.29 229.28,238.24 230.78,238.75 C233.31,239.62 247.29,238.82 252.77,237.50 C255.94,236.74 256.67,239.33 254.04,241.96 C252.85,243.15 252.24,244.60 252.65,245.29 C254.63,248.64 266.89,264.01 270.44,267.60 C295.15,292.61 322.74,297.04 338.21,278.50 C347.68,267.16 348.57,247.82 340.59,226.66 C337.65,218.84 321.98,188.15 317.78,181.97 C316.79,180.52 315.42,174.98 314.57,168.97 C311.20,145.33 299.50,105.49 291.26,89.57 C285.56,78.55 273.23,66.84 260.50,60.35 C249.46,54.71 249.63,54.77 233.72,51.98 C221.92,49.92 189.67,49.11 188.59,50.86 C188.30,51.33 185.61,52.01 182.61,52.36 C175.33,53.21 161.20,58.26 152.12,63.24 C138.63,70.64 126.10,84.66 119.19,100.09 C113.98,111.72 101.75,157.57 100.14,171.50 C99.33,178.56 98.55,180.67 93.50,189.50 C73.53,224.45 67.48,243.05 70.10,261.48 C70.80,266.41 72.25,271.39 73.87,274.42 C76.72,279.75 84.58,286.66 88.85,287.59 C90.31,287.91 92.80,288.58 94.40,289.08 C107.19,293.13 126.98,285.54 142.06,270.79 C148.13,264.86 158.20,252.75 162.49,246.22 C165.23,242.06 165.25,241.90 163.40,240.40 C161.67,239.00 162.56,238.91 173.27,239.40 L 185.05 239.93 L 188.19 237.12 C191.85,233.85 192.24,230.41 189.58,224.80 C187.51,220.44 181.87,215.84 178.04,215.39 C176.55,215.22 174.11,214.61 172.60,214.04 C171.10,213.47 168.55,213.00 166.93,213.00 C165.32,213.00 164.00,212.55 164.00,212.00 C164.00,211.45 162.22,211.00 160.04,211.00 C156.41,211.00 155.87,210.63 153.45,206.50 C150.48,201.44 145.67,197.53 143.46,198.38 C142.37,198.79 142.00,200.71 142.00,205.95 C142.00,212.22 141.71,213.29 139.25,215.95 C136.49,218.93 116.53,231.00 114.34,231.00 C113.70,231.00 110.34,232.34 106.87,233.98 C100.74,236.88 98.09,236.81 99.26,233.77 C99.54,233.03 106.47,228.66 114.64,224.07 C129.68,215.64 133.98,213.34 135.37,209.88 C135.99,208.34 136.02,206.56 136.17,203.92 C136.53,197.59 136.90,196.48 139.35,194.38 C144.49,189.95 150.86,191.99 156.14,199.75 C160.16,205.67 160.15,205.66 166.76,206.49 C180.33,208.19 189.24,213.01 193.94,221.20 C198.21,228.65 198.23,235.53 193.99,240.36 C190.27,244.59 185.54,246.53 176.66,247.46 C169.02,248.26 168.78,248.45 162.50,258.34 C150.60,277.10 142.28,288.00 139.87,288.00 C139.39,288.00 136.06,290.05 132.48,292.55 C128.90,295.05 125.52,296.82 124.98,296.49 C124.43,296.15 123.22,296.64 122.29,297.57 C121.13,298.72 120.46,298.89 120.20,298.09 C119.90,297.21 119.46,297.20 118.44,298.05 C117.68,298.68 116.49,298.98 115.78,298.72 C115.08,298.46 113.60,299.06 112.50,300.05 C111.40,301.03 108.23,302.25 105.45,302.75 C100.32,303.67 98.89,303.16 97.84,300.03 C97.53,299.10 96.62,299.72 95.07,301.91 C92.98,304.84 92.81,305.88 93.37,312.33 C93.71,316.27 94.41,322.20 94.92,325.50 C99.23,353.04 102.86,364.45 115.39,389.94 C119.03,397.32 122.00,403.98 122.00,404.73 C122.00,405.47 119.97,408.25 117.50,410.90 C113.00,415.70 112.16,417.76 113.95,419.55 ZM 232.59 419.75 C231.69,421.88 233.02,421.19 243.00,414.29 L 245.50 412.57 L 243.59 414.79 C240.88,417.94 241.92,418.25 246.53,415.67 C251.63,412.82 251.99,409.85 248.59,398.69 C245.71,389.25 241.88,383.32 236.52,380.01 C232.96,377.81 232.06,377.74 208.62,377.74 C182.25,377.74 181.19,377.93 175.86,383.66 C172.12,387.68 169.18,393.97 166.94,402.74 C165.87,406.91 165.00,410.71 165.00,411.19 C165.00,412.97 169.45,413.78 171.47,412.37 C173.78,410.77 179.00,410.53 179.00,412.04 C179.00,412.75 179.60,412.75 180.93,412.04 C183.64,410.59 185.00,410.74 185.00,412.50 C185.00,414.42 185.90,414.40 188.07,412.44 C191.64,409.21 200.37,410.03 197.11,413.29 C194.44,415.96 196.37,415.70 200.42,412.84 C203.27,410.84 205.46,409.96 206.57,410.39 C208.14,410.99 208.08,411.29 205.98,413.53 C202.97,416.72 204.54,416.66 210.99,413.32 C214.99,411.24 216.34,410.93 216.95,411.92 C217.55,412.90 218.24,412.94 219.81,412.10 C222.44,410.70 229.00,410.66 229.00,412.06 C229.00,412.64 229.55,412.78 230.22,412.36 C231.64,411.48 241.02,411.12 240.95,411.94 C240.93,412.25 239.15,413.85 237.01,415.50 C234.87,417.15 232.88,419.06 232.59,419.75 ZM 109.50 91.96 C114.44,93.71 114.52,93.71 116.31,91.62 C117.31,90.45 118.82,87.93 119.67,86.02 C121.12,82.77 121.10,82.47 119.36,81.52 C118.34,80.96 115.17,78.13 112.32,75.23 C108.10,70.94 106.91,68.94 105.90,64.44 C104.25,57.06 106.50,49.24 111.35,45.55 C123.62,36.19 138.25,38.93 146.61,52.17 C147.94,54.28 149.64,56.00 150.39,56.00 C152.66,56.00 163.00,51.10 163.00,50.02 C163.00,49.46 161.49,45.73 159.64,41.73 C155.81,33.44 151.38,29.00 143.05,25.12 C138.38,22.94 136.07,22.53 128.50,22.52 C120.46,22.51 118.79,22.85 112.80,25.68 C104.96,29.38 98.70,35.32 94.50,43.01 C91.73,48.07 91.50,49.28 91.50,58.50 C91.50,71.71 93.56,78.30 99.82,85.10 C103.04,88.60 106.06,90.73 109.50,91.96 ZM 296.62 86.54 C298.67,89.66 300.93,89.66 304.59,86.50 C306.19,85.13 308.06,84.00 308.75,84.00 C309.44,84.00 310.00,83.55 310.00,83.00 C310.00,82.45 310.56,82.00 311.25,82.00 C311.94,82.00 313.83,79.86 315.46,77.25 C317.08,74.64 319.15,71.82 320.05,71.00 C323.01,68.29 324.00,65.22 324.00,58.76 C324.00,45.00 317.11,33.72 303.92,25.88 C298.28,22.53 295.78,21.67 290.45,21.24 C286.68,20.94 282.96,21.17 281.70,21.79 C280.49,22.38 277.88,23.35 275.90,23.96 C267.11,26.64 259.29,33.91 253.45,44.82 C250.35,50.62 250.81,51.91 256.00,52.02 C257.38,52.05 259.62,52.71 261.00,53.50 C264.71,55.62 265.19,55.40 268.92,49.90 C276.50,38.74 287.48,35.25 297.99,40.67 C301.57,42.51 304.54,45.01 306.49,47.84 C309.20,51.73 309.50,52.95 309.50,59.84 C309.50,66.53 309.15,68.04 306.70,71.80 C305.17,74.17 301.90,77.52 299.45,79.25 C294.47,82.76 294.35,83.07 296.62,86.54 ZM 288.50 74.84 C292.30,80.04 294.74,80.13 300.15,75.25 C307.89,68.28 309.96,59.30 305.75,50.97 C298.65,36.91 278.37,38.76 271.45,54.11 L 269.57 58.28 L 271.85 59.89 C278.39,64.50 285.84,71.19 288.50,74.84 ZM 119.00 76.76 C120.93,77.97 122.92,78.97 123.43,78.98 C123.94,78.99 127.99,75.51 132.43,71.25 C136.87,66.99 141.85,62.55 143.50,61.39 L 146.49 59.29 L 143.82 54.39 C139.56,46.58 135.42,43.82 127.31,43.35 C115.41,42.68 109.05,48.47 109.02,60.00 C109.00,67.53 111.79,72.21 119.00,76.76 ZM 203.12 183.30 C196.11,188.31 196.00,188.36 196.00,186.09 C196.00,184.80 198.01,182.55 201.50,179.91 C206.31,176.28 207.00,175.32 207.00,172.29 C207.00,169.39 206.11,167.98 201.50,163.63 C197.04,159.41 196.00,157.82 196.00,155.19 C196.00,151.00 198.73,149.90 209.50,149.76 C219.25,149.63 222.00,150.83 222.00,155.23 C222.00,157.74 220.88,159.47 216.50,163.71 C211.96,168.11 211.00,169.63 211.00,172.44 C211.00,175.35 211.70,176.35 216.00,179.50 C218.98,181.69 221.00,183.94 221.00,185.09 C221.00,187.85 219.40,187.46 214.57,183.50 C212.22,181.57 209.72,180.00 209.02,180.00 C208.31,180.00 205.66,181.49 203.12,183.30 ZM 249.93 135.54 C241.36,139.97 232.00,133.56 232.00,123.27 C232.00,114.69 239.66,110.38 250.91,112.63 C254.05,113.26 260.00,117.93 260.00,119.76 C260.00,120.29 258.83,120.50 257.39,120.22 C254.94,119.76 254.82,119.91 255.44,122.72 C256.37,126.96 253.47,133.71 249.93,135.54 ZM 180.60 133.60 C177.81,136.39 176.44,137.00 173.00,137.00 C169.56,137.00 168.19,136.39 165.40,133.60 C162.42,130.62 162.00,129.57 162.00,125.10 C162.00,120.33 161.84,120.00 159.50,120.00 C156.41,120.00 156.34,118.97 159.25,116.24 C165.66,110.24 175.66,110.64 181.66,117.15 C184.04,119.73 184.29,120.68 184.12,126.35 C184.03,129.30 183.21,130.99 180.60,133.60 ZM 48.80 102.80 C47.04,104.56 45.60,104.28 43.34,101.75 C39.05,96.96 38.36,92.49 40.55,83.74 C41.41,80.27 39.64,78.00 36.08,78.00 C32.45,78.00 31.00,79.71 31.00,84.00 C31.00,89.51 27.83,91.69 24.57,88.43 C21.17,85.03 23.35,76.23 28.61,72.09 C32.45,69.08 40.98,69.16 44.34,72.25 C48.15,75.75 49.22,80.31 47.83,87.07 C46.79,92.06 46.86,93.13 48.32,95.37 C50.30,98.38 50.47,101.13 48.80,102.80 ZM 373.16 155.45 C370.91,159.27 370.43,159.48 367.75,157.92 C363.35,155.36 367.76,146.91 375.53,143.00 C379.83,140.84 380.50,140.10 380.50,137.50 C380.50,134.88 380.11,134.46 377.41,134.20 C375.54,134.02 373.83,134.50 373.04,135.45 C371.41,137.42 369.56,137.42 367.61,135.47 C364.50,132.36 370.43,126.00 376.44,126.00 C380.27,126.00 385.50,128.44 387.37,131.12 C389.70,134.45 389.47,141.14 386.90,144.40 C385.75,145.87 382.65,148.16 380.03,149.49 C377.10,150.97 374.44,153.28 373.16,155.45 ZM 364.33 376.64 C362.92,378.49 361.01,380.00 360.08,380.00 C357.90,380.00 356.00,378.06 356.00,375.83 C356.00,373.25 361.59,367.32 364.76,366.54 C368.97,365.50 372.00,363.16 372.00,360.95 C372.00,358.21 369.44,357.44 365.33,358.93 C358.51,361.39 356.55,355.08 363.05,351.60 C370.54,347.59 380.00,352.84 380.00,361.02 C380.00,364.44 379.38,365.82 376.59,368.61 C374.72,370.48 371.77,372.30 370.04,372.64 C368.12,373.03 365.90,374.58 364.33,376.64 ZM 69.77 381.65 C71.26,384.77 71.26,385.17 69.76,386.67 C68.26,388.17 67.90,388.06 65.07,385.22 C63.38,383.53 61.96,381.33 61.92,380.33 C61.87,379.32 61.76,376.70 61.67,374.50 C61.52,370.95 61.22,370.50 59.00,370.50 C56.91,370.50 56.42,371.07 56.00,373.99 C55.37,378.35 52.76,379.10 50.45,375.57 C48.39,372.42 49.14,368.77 52.55,365.36 C54.60,363.31 55.82,362.94 59.73,363.20 C63.84,363.46 64.73,363.94 66.80,367.00 C68.63,369.70 69.06,371.39 68.66,374.38 C68.34,376.84 68.75,379.50 69.77,381.65 ZM 260.40 93.86 C252.72,97.36 236.00,91.38 236.00,85.13 C236.00,82.28 238.46,82.38 245.15,85.49 C249.02,87.29 252.21,87.98 256.69,87.99 C260.10,88.00 263.13,88.41 263.44,88.91 C264.39,90.44 263.02,92.67 260.40,93.86 ZM 172.07 93.47 C163.38,96.54 152.35,94.60 153.21,90.15 C153.47,88.81 154.85,88.48 160.51,88.41 C165.59,88.35 168.65,87.74 171.71,86.16 C177.36,83.26 180.00,83.32 180.00,86.35 C180.00,89.33 177.54,91.55 172.07,93.47 ZM 51.12 258.93 C52.69,263.41 50.75,265.36 48.70,261.36 C44.78,253.72 45.95,234.47 51.01,223.32 C53.77,217.22 56.89,214.49 55.64,219.25 C55.32,220.49 53.94,225.55 52.58,230.50 C49.86,240.39 49.19,253.39 51.12,258.93 ZM 347.69 307.05 C345.39,308.10 342.51,308.97 341.31,308.98 C336.95,309.02 338.08,307.07 343.94,304.45 C350.55,301.48 359.68,292.75 361.92,287.25 C363.27,283.92 366.00,282.78 366.00,285.53 C366.00,291.34 355.74,303.40 347.69,307.05 ZM 357.50 314.65 C351.62,317.91 346.00,319.03 346.00,316.95 C346.00,316.37 347.69,315.23 349.75,314.40 C356.05,311.90 358.09,310.67 362.56,306.74 C364.92,304.66 367.11,303.36 367.41,303.86 C368.56,305.71 363.29,311.44 357.50,314.65 ZM 57.00 115.00 C54.53,117.47 53.76,117.49 51.65,115.17 C49.43,112.71 49.56,109.30 51.93,108.04 C54.56,106.63 55.59,106.73 57.43,108.57 C59.54,110.68 59.41,112.59 57.00,115.00 ZM 356.17 391.35 C355.17,392.26 354.04,393.00 353.67,393.00 C352.66,393.00 349.00,389.14 349.00,388.07 C349.00,386.53 352.03,384.00 353.87,384.00 C357.88,384.00 359.29,388.52 356.17,391.35 ZM 38.36 233.07 C38.58,233.30 38.45,238.68 38.08,245.00 C37.45,255.58 37.29,256.26 36.10,253.50 C33.85,248.26 35.84,230.30 38.36,233.07 ZM 367.95 170.56 C366.11,172.78 363.08,172.27 361.83,169.53 C360.36,166.30 362.29,163.78 365.91,164.20 C368.84,164.54 369.99,168.11 367.95,170.56 ZM 77.80 396.80 C77.14,397.46 76.11,398.00 75.50,398.00 C72.06,398.00 70.65,391.56 73.86,390.54 C78.10,389.20 80.92,393.68 77.80,396.80 ZM 248.92 420.63 L 246.50 423.25 L 249.75 421.60 C251.54,420.69 253.00,419.51 253.00,418.97 C253.00,417.28 251.43,417.91 248.92,420.63 ZM 94.00 298.56 C94.00,299.42 94.45,299.84 95.00,299.50 C95.55,299.16 96.00,298.46 96.00,297.94 C96.00,297.42 95.55,297.00 95.00,297.00 C94.45,297.00 94.00,297.70 94.00,298.56 Z" fill="rgb(8,10,17)"/>
<path d="M 261.50 416.75 C262.94,417.99 265.03,419.00 266.14,419.00 C268.07,419.00 268.04,418.83 265.59,415.92 C264.16,414.23 262.80,411.87 262.56,410.67 C260.30,399.47 258.27,393.17 255.33,388.27 C250.93,380.95 248.16,378.00 245.70,378.00 C245.21,378.00 244.84,378.01 244.61,378.07 C244.51,377.59 244.59,377.30 244.85,377.22 C245.54,376.99 247.10,375.79 248.30,374.56 C249.51,373.32 251.96,371.31 253.75,370.09 C257.24,367.70 258.27,364.40 255.25,365.27 C236.96,370.51 226.61,371.95 207.50,371.94 C193.91,371.94 175.79,369.77 166.50,367.05 C162.65,365.92 159.17,365.00 158.75,365.00 C156.82,365.00 158.34,368.03 161.49,370.42 C163.40,371.88 165.48,374.03 166.10,375.19 C167.80,378.36 167.37,384.31 165.16,388.44 C164.08,390.46 162.45,395.13 161.54,398.81 C156.89,417.62 156.40,418.39 147.93,420.05 C142.09,421.19 119.82,420.98 114.87,419.89 C115.44,419.77 116.24,419.17 117.84,417.92 C124.46,412.74 128.00,408.79 128.00,406.61 C128.00,405.34 125.48,399.17 122.41,392.90 C109.35,366.29 104.43,350.58 100.52,323.00 C99.71,317.23 99.03,310.64 99.02,308.38 C99.00,304.65 98.76,304.25 96.50,304.25 C94.06,304.25 94.00,304.43 94.03,311.38 C94.07,318.93 94.93,326.31 97.34,339.51 C96.52,335.28 95.73,330.67 94.92,325.50 C94.41,322.20 93.71,316.27 93.37,312.33 C92.81,305.88 92.98,304.84 95.07,301.91 C96.62,299.72 97.53,299.10 97.84,300.03 C98.89,303.16 100.32,303.67 105.45,302.75 C108.23,302.25 111.40,301.03 112.50,300.05 C113.60,299.06 115.08,298.46 115.78,298.72 C116.49,298.98 117.68,298.68 118.44,298.05 C119.46,297.20 119.90,297.21 120.20,298.09 C120.46,298.89 121.13,298.72 122.29,297.57 C123.22,296.64 124.43,296.15 124.98,296.49 C125.52,296.82 128.90,295.05 132.48,292.55 C136.06,290.05 139.39,288.00 139.87,288.00 C142.28,288.00 150.60,277.10 162.50,258.34 C168.78,248.45 169.02,248.26 176.66,247.46 C185.54,246.53 190.27,244.59 193.99,240.36 C198.23,235.53 198.21,228.65 193.94,221.20 C189.24,213.01 180.33,208.19 166.76,206.49 C160.15,205.66 160.16,205.67 156.14,199.75 C150.86,191.99 144.49,189.95 139.35,194.38 C136.90,196.48 136.53,197.59 136.17,203.92 C136.02,206.56 135.99,208.34 135.37,209.88 C133.98,213.34 129.68,215.64 114.64,224.07 C106.47,228.66 99.54,233.03 99.26,233.77 C98.09,236.81 100.74,236.88 106.87,233.98 C110.34,232.34 113.70,231.00 114.34,231.00 C114.52,231.00 114.82,230.92 115.22,230.77 C114.98,230.89 114.74,231.02 114.50,231.15 C103.10,237.17 102.32,239.14 113.32,234.15 C124.15,229.25 140.40,219.98 142.75,217.38 C144.69,215.23 145.00,213.78 145.00,206.86 C145.00,200.89 144.68,198.94 143.75,199.25 C142.97,199.50 142.31,202.34 142.00,206.73 L 142.00 206.75 C142.00,206.50 142.00,206.23 142.00,205.95 C142.00,200.71 142.37,198.79 143.46,198.38 C145.67,197.53 150.48,201.44 153.45,206.50 C155.87,210.63 156.41,211.00 160.04,211.00 C162.22,211.00 164.00,211.45 164.00,212.00 C164.00,212.55 165.32,213.00 166.93,213.00 C168.55,213.00 171.10,213.47 172.60,214.04 C174.11,214.61 176.55,215.22 178.04,215.39 C181.87,215.84 187.51,220.44 189.58,224.80 C192.24,230.41 191.85,233.85 188.19,237.12 L 185.05 239.93 L 173.27 239.40 C162.56,238.91 161.67,239.00 163.40,240.40 C165.25,241.90 165.23,242.06 162.49,246.22 C158.20,252.75 148.13,264.86 142.06,270.79 C126.98,285.54 107.19,293.13 94.40,289.08 C92.80,288.58 90.31,287.91 88.85,287.59 C84.58,286.66 76.72,279.75 73.87,274.42 C72.25,271.39 70.80,266.41 70.10,261.48 C69.23,255.38 69.31,249.27 70.53,242.55 C67.46,260.48 71.80,275.29 82.94,283.47 C87.87,287.09 88.73,286.59 84.97,282.32 C74.24,270.10 72.37,249.34 80.02,227.29 C83.48,217.29 91.62,201.52 100.00,188.56 C105.39,180.23 106.04,178.61 108.00,168.50 C114.40,135.54 124.04,106.56 134.24,89.62 C138.83,82.01 148.06,72.12 155.11,67.27 C163.96,61.18 178.15,55.96 193.50,53.14 C196.80,52.53 200.40,51.86 201.50,51.64 C205.82,50.77 193.07,51.04 185.79,51.84 C187.31,51.52 188.41,51.15 188.59,50.86 C189.67,49.11 221.92,49.92 233.72,51.98 C249.63,54.77 249.46,54.71 260.50,60.35 C273.23,66.84 285.56,78.55 291.26,89.57 C299.50,105.49 311.20,145.33 314.57,168.97 C315.42,174.98 316.79,180.52 317.78,181.97 C321.98,188.15 337.65,218.84 340.59,226.66 C348.57,247.82 347.68,267.16 338.21,278.50 C322.74,297.04 295.15,292.61 270.44,267.60 C266.89,264.01 254.63,248.64 252.65,245.29 C252.24,244.60 252.85,243.15 254.04,241.96 C256.67,239.33 255.94,236.74 252.77,237.50 C247.29,238.82 233.31,239.62 230.78,238.75 C229.28,238.24 227.11,236.29 225.95,234.42 C224.15,231.51 224.00,230.52 224.94,227.69 C226.16,223.98 231.94,218.00 236.50,215.72 C238.15,214.90 243.77,213.64 249.00,212.94 C251.80,212.56 254.52,212.08 256.55,211.62 C254.96,212.11 252.96,212.45 250.31,212.80 C245.48,213.45 240.10,214.93 237.22,216.39 C232.11,218.98 226.00,225.03 226.00,227.51 C226.00,228.31 227.91,227.04 230.34,224.60 C235.38,219.57 242.77,216.45 253.16,214.98 C257.01,214.43 260.99,213.54 262.00,213.00 C263.69,212.09 267.46,202.13 266.48,201.15 C266.25,200.92 265.26,202.20 264.28,204.00 C263.30,205.81 262.47,207.19 261.59,208.28 C262.26,207.16 262.97,205.77 263.59,204.38 C265.28,200.56 266.55,199.08 268.53,198.58 C272.62,197.56 274.00,199.42 274.00,205.97 C274.00,215.92 277.55,219.06 303.61,232.22 C313.83,237.37 317.00,237.84 317.00,234.19 C317.00,232.95 315.22,231.37 311.75,229.53 C295.66,220.97 283.03,213.68 281.71,212.19 C280.81,211.17 280.06,207.77 279.80,203.62 C279.44,197.61 279.04,196.43 276.64,194.37 C271.34,189.81 263.43,192.33 259.15,199.95 C256.52,204.62 255.17,205.48 249.00,206.39 C234.47,208.54 222.47,216.64 219.96,226.00 C218.69,230.72 219.79,237.83 222.24,240.78 C224.51,243.53 231.65,246.30 238.29,247.03 C242.41,247.48 245.84,248.45 246.98,249.48 C248.02,250.42 252.83,257.05 257.68,264.22 C266.95,277.92 273.01,285.00 275.47,285.00 C276.28,285.00 277.97,286.39 279.22,288.10 C281.50,291.19 286.73,294.61 287.70,293.63 C287.98,293.35 289.18,294.02 290.35,295.11 C291.53,296.21 293.28,296.90 294.24,296.65 C295.21,296.39 296.25,296.60 296.56,297.09 C296.87,297.59 298.07,298.00 299.23,298.00 C300.39,298.00 302.17,298.74 303.17,299.65 C304.18,300.57 305.00,300.84 305.00,300.26 C305.00,299.68 306.62,300.04 308.65,301.08 C310.65,302.10 312.70,302.69 313.19,302.38 C313.68,302.08 314.74,302.37 315.53,303.03 C316.34,303.70 318.07,303.95 319.49,303.59 C321.88,302.99 322.00,303.17 322.00,307.23 C322.00,314.71 318.95,338.23 316.98,346.00 C312.76,362.64 309.26,371.67 299.54,391.00 C293.32,403.37 293.20,404.95 298.03,410.53 C300.21,413.06 302.00,415.47 302.00,415.91 C302.00,416.34 301.05,417.55 299.89,418.60 C297.98,420.32 296.21,420.49 281.38,420.36 C268.10,420.25 264.52,419.92 262.51,418.60 C258.84,416.20 257.08,412.97 255.84,406.39 C255.02,402.02 254.26,398.64 253.39,395.75 C254.15,397.91 254.88,400.29 255.65,403.00 C258.11,411.70 259.53,415.05 261.50,416.75 ZM 203.00 200.01 C216.12,201.79 233.04,196.78 240.61,188.88 C242.84,186.56 243.46,184.84 243.80,180.05 C244.17,174.96 243.79,173.14 241.15,167.50 C234.01,152.25 217.65,136.96 208.54,137.02 C202.99,137.06 196.84,140.84 188.56,149.31 C178.76,159.33 173.28,168.93 172.40,177.62 C171.83,183.32 171.92,183.63 175.52,187.79 C181.12,194.27 190.09,198.26 203.00,200.01 ZM 296.62 86.54 C294.35,83.07 294.47,82.76 299.45,79.25 C301.90,77.52 305.17,74.17 306.70,71.80 C309.15,68.04 309.50,66.53 309.50,59.84 C309.50,52.95 309.20,51.73 306.49,47.84 C304.54,45.01 301.57,42.51 297.99,40.67 C287.48,35.25 276.50,38.74 268.92,49.90 C265.19,55.40 264.71,55.62 261.00,53.50 C259.62,52.71 257.38,52.05 256.00,52.02 C250.81,51.91 250.35,50.62 253.45,44.82 C254.51,42.83 255.64,40.97 256.83,39.23 C253.90,43.68 251.86,48.19 252.40,49.60 C253.40,52.20 254.95,51.02 259.01,44.61 C266.96,32.01 277.47,25.13 290.50,24.00 C297.20,23.42 297.33,23.35 293.65,22.56 C284.76,20.66 273.41,23.69 265.46,29.66 C268.72,27.00 272.23,25.08 275.90,23.96 C277.88,23.35 280.49,22.38 281.70,21.79 C282.96,21.17 286.68,20.94 290.45,21.24 C295.78,21.67 298.28,22.53 303.92,25.88 C317.11,33.72 324.00,45.00 324.00,58.76 C324.00,65.22 323.01,68.29 320.05,71.00 C319.15,71.82 317.08,74.64 315.46,77.25 C313.83,79.86 311.94,82.00 311.25,82.00 C310.56,82.00 310.00,82.45 310.00,83.00 C310.00,83.55 309.44,84.00 308.75,84.00 C308.06,84.00 306.19,85.13 304.59,86.50 C300.93,89.66 298.67,89.66 296.62,86.54 ZM 109.50 91.96 C106.06,90.73 103.04,88.60 99.82,85.10 C95.97,80.91 93.70,76.80 92.53,71.17 C92.91,72.40 93.43,73.62 94.14,75.12 C95.58,78.21 98.46,82.61 100.53,84.90 C102.59,87.18 104.46,88.87 104.68,88.65 C104.91,88.43 103.52,85.65 101.61,82.47 C92.41,67.21 95.12,48.74 108.39,36.19 C116.33,28.69 121.56,26.51 131.50,26.56 C139.97,26.61 144.45,28.19 151.88,33.77 C153.85,35.24 155.08,35.72 154.82,34.90 C154.57,34.13 151.55,31.39 148.11,28.81 C143.63,25.44 140.25,23.78 136.20,22.94 C136.00,22.90 135.80,22.86 135.61,22.82 C138.32,23.15 140.27,23.82 143.05,25.12 C151.38,29.00 155.81,33.44 159.64,41.73 C161.49,45.73 163.00,49.46 163.00,50.02 C163.00,51.10 152.66,56.00 150.39,56.00 C149.64,56.00 147.94,54.28 146.61,52.17 C138.25,38.93 123.62,36.19 111.35,45.55 C106.50,49.24 104.25,57.06 105.90,64.44 C106.91,68.94 108.10,70.94 112.32,75.23 C115.17,78.13 118.34,80.96 119.36,81.52 C121.10,82.47 121.12,82.77 119.67,86.02 C118.82,87.93 117.31,90.45 116.31,91.62 C114.52,93.71 114.44,93.71 109.50,91.96 ZM 257.39 120.22 C258.83,120.50 260.00,120.29 260.00,119.76 C260.00,117.93 254.05,113.26 250.91,112.63 C239.66,110.38 232.00,114.69 232.00,123.27 C232.00,125.26 232.35,127.11 232.98,128.76 C232.95,128.70 232.92,128.64 232.90,128.58 L 231.04 124.50 L 231.02 128.30 C230.99,134.66 234.87,140.20 240.64,142.02 C249.36,144.77 258.82,138.82 260.57,129.47 C261.31,125.51 259.27,120.68 256.64,120.17 C255.09,119.87 254.90,120.26 255.44,122.72 C254.82,119.91 254.94,119.76 257.39,120.22 ZM 166.50 141.90 C170.81,143.22 172.65,143.17 176.33,141.64 C180.61,139.85 184.76,134.82 185.58,130.42 C186.47,125.66 185.44,125.01 183.68,129.22 C183.65,129.30 183.62,129.38 183.58,129.45 C183.93,128.53 184.08,127.54 184.12,126.35 C184.29,120.68 184.04,119.73 181.66,117.15 C175.66,110.64 165.66,110.24 159.25,116.24 C156.34,118.97 156.41,120.00 159.50,120.00 C161.84,120.00 162.00,120.33 162.00,125.10 C162.00,129.57 162.42,130.62 165.40,133.60 C166.64,134.84 167.60,135.65 168.59,136.17 C163.72,134.73 161.00,130.96 161.00,125.48 C161.00,122.47 160.57,121.00 159.70,121.00 C155.58,121.00 154.65,129.28 158.13,134.98 C160.67,139.16 162.51,140.67 166.50,141.90 ZM 197.68 435.29 C195.88,436.47 192.85,436.80 185.06,436.67 C179.42,436.58 174.64,436.22 174.43,435.88 C174.22,435.55 172.91,435.49 171.52,435.75 C167.75,436.47 168.39,435.02 174.23,429.62 C180.02,424.27 178.05,425.28 171.11,431.23 C166.45,435.23 164.40,436.02 165.39,433.42 C165.89,432.12 165.41,432.19 162.75,433.81 C159.18,435.98 154.12,435.23 155.65,432.76 C156.10,432.02 155.38,432.18 153.91,433.14 C152.48,434.08 149.91,434.66 147.95,434.50 C146.05,434.35 143.42,434.17 142.10,434.11 C139.75,434.00 139.74,433.95 141.50,432.00 C142.50,430.90 142.85,430.00 142.28,430.00 C141.71,430.00 140.64,430.73 139.90,431.62 C138.59,433.20 133.23,433.16 121.50,431.47 C119.85,431.24 117.02,430.96 115.21,430.86 C112.91,430.73 112.07,430.27 112.42,429.34 C113.00,427.85 112.63,427.68 110.70,428.80 C110.78,428.74 110.85,428.68 110.92,428.62 C111.79,427.86 113.56,426.91 114.85,426.52 C116.88,425.90 117.11,426.08 116.56,427.82 C116.21,428.93 116.35,430.10 116.88,430.43 C118.65,431.52 125.99,431.83 126.60,430.84 C126.93,430.30 127.82,430.10 128.57,430.39 C129.32,430.68 130.20,430.48 130.53,429.96 C131.50,428.38 133.11,428.87 132.79,430.65 C132.37,433.01 134.71,433.48 135.44,431.18 C135.90,429.75 137.28,429.12 140.78,428.72 C146.44,428.07 147.15,428.51 144.03,430.69 L 141.68 432.34 L 143.91 433.16 C145.21,433.64 146.93,433.57 148.01,433.00 C150.39,431.72 151.98,431.72 150.00,433.00 C148.67,433.86 148.68,433.97 150.03,433.98 C151.56,434.00 154.57,432.05 161.42,426.61 C163.42,425.02 165.28,423.95 165.55,424.22 C165.83,424.49 163.95,426.44 161.39,428.54 C156.96,432.17 156.84,432.40 158.96,433.18 C161.44,434.10 161.86,433.92 167.40,429.56 C169.86,427.62 171.45,426.94 171.71,427.69 C171.98,428.45 173.70,427.76 176.55,425.75 C181.75,422.09 184.04,423.01 179.15,426.81 C172.07,432.30 169.45,434.97 171.12,434.98 C172.00,434.99 173.87,434.10 175.27,433.00 C178.60,430.39 180.92,430.32 178.58,432.91 C176.94,434.73 176.95,434.85 178.95,435.48 C181.52,436.30 186.97,435.23 189.00,433.51 C189.82,432.81 191.62,431.90 193.00,431.49 L 195.50 430.75 L 190.65 436.00 L 193.23 436.00 C194.92,436.00 197.34,434.52 200.19,431.75 C202.60,429.41 205.68,426.72 207.04,425.76 C208.39,424.80 210.58,423.23 211.91,422.28 C213.23,421.33 214.13,421.07 213.91,421.71 C213.68,422.35 211.93,423.94 210.00,425.24 C208.07,426.53 206.44,428.47 206.36,429.55 C206.28,430.62 206.16,432.11 206.11,432.87 C206.04,433.72 205.26,434.04 204.04,433.72 C202.02,433.19 199.50,435.16 200.68,436.34 C201.13,436.80 201.77,437.02 202.60,437.00 C200.18,437.50 198.77,437.03 199.41,435.37 C199.98,433.89 199.83,433.88 197.68,435.29 ZM 260.40 93.86 C263.02,92.67 264.39,90.44 263.44,88.91 C263.13,88.41 260.10,88.00 256.69,87.99 C252.21,87.98 249.02,87.29 245.15,85.49 C238.46,82.38 236.00,82.28 236.00,85.13 C236.00,91.38 252.72,97.36 260.40,93.86 ZM 172.07 93.47 C177.54,91.55 180.00,89.33 180.00,86.35 C180.00,83.32 177.36,83.26 171.71,86.16 C168.65,87.74 165.59,88.35 160.51,88.41 C154.85,88.48 153.47,88.81 153.21,90.15 C152.35,94.60 163.38,96.54 172.07,93.47 ZM 268.78 431.57 C268.21,431.89 267.53,432.37 266.72,433.00 C265.32,434.10 263.48,434.74 262.64,434.41 C261.79,434.09 260.53,434.17 259.84,434.60 C258.22,435.60 253.00,436.17 253.00,435.35 C253.00,435.00 254.69,433.17 256.75,431.29 C260.34,428.02 260.26,428.04 255.00,431.82 C249.83,435.52 248.97,435.79 240.75,436.27 C235.94,436.55 232.00,436.52 232.00,436.19 C232.00,435.87 233.24,434.29 234.75,432.68 L 237.50 429.74 L 235.00 431.02 C233.62,431.72 231.23,433.36 229.67,434.65 C225.43,438.18 220.99,437.65 224.25,434.00 C225.32,432.80 225.24,432.79 223.73,433.94 C222.76,434.68 220.96,435.44 219.73,435.63 C218.50,435.82 216.26,436.26 214.75,436.60 C213.03,437.00 212.15,436.85 212.09,436.27 C212.78,436.97 217.21,435.13 219.50,433.06 C222.12,430.69 226.48,428.42 225.56,429.90 C224.60,431.46 225.12,431.31 230.48,428.46 C233.11,427.06 235.53,426.20 235.88,426.55 C236.67,427.34 231.31,432.00 229.60,432.00 C228.89,432.00 227.50,432.90 226.50,434.00 C223.55,437.26 226.07,436.28 232.92,431.49 C236.45,429.03 239.57,427.24 239.86,427.52 C240.14,427.81 238.62,429.83 236.48,432.02 C233.60,434.97 233.04,436.00 234.33,436.00 C235.28,436.00 236.33,435.31 236.65,434.47 C236.97,433.63 238.12,432.47 239.19,431.90 C240.96,430.95 241.04,431.05 240.04,432.92 C238.98,434.90 239.18,435.00 244.09,435.00 C248.62,435.00 250.03,434.44 255.69,430.40 C263.27,424.99 265.37,425.38 258.96,431.00 L 254.50 434.91 L 258.00 433.85 C259.92,433.26 262.68,432.65 264.12,432.50 C265.52,432.35 267.59,431.93 268.78,431.57 ZM 215.10 411.50 C214.19,411.74 212.89,412.33 210.99,413.32 C204.54,416.66 202.97,416.72 205.98,413.53 C208.08,411.29 208.14,410.99 206.57,410.39 C205.46,409.96 203.27,410.84 200.42,412.84 C196.37,415.70 194.44,415.96 197.11,413.29 C200.37,410.03 191.64,409.21 188.07,412.44 C185.90,414.40 185.00,414.42 185.00,412.50 C185.00,410.74 183.64,410.59 180.93,412.04 C179.86,412.61 179.26,412.72 179.07,412.37 C179.31,412.72 180.20,412.44 181.49,411.60 C182.86,410.70 185.22,409.97 186.74,409.97 C188.26,409.97 191.72,409.88 194.43,409.78 C197.65,409.65 199.51,410.02 199.78,410.84 C200.10,411.81 200.71,411.76 202.47,410.61 C204.82,409.07 211.00,408.70 211.00,410.10 C211.00,410.54 210.21,411.36 209.25,411.92 C207.65,412.85 207.65,412.94 209.18,412.97 C210.11,412.99 212.10,412.53 213.60,411.96 C214.19,411.74 214.68,411.59 215.10,411.50 ZM 232.59 419.75 C232.88,419.06 234.87,417.15 237.01,415.50 C239.15,413.85 240.93,412.25 240.95,411.94 C241.01,411.33 235.76,411.38 232.52,411.81 C234.13,411.38 236.50,410.89 238.25,410.65 C242.43,410.07 243.04,411.18 240.25,414.30 C239.01,415.69 239.63,415.49 242.39,413.63 C244.53,412.18 246.67,411.00 247.14,411.00 C248.38,411.00 248.20,412.38 246.75,413.99 C245.85,414.98 246.21,414.94 248.00,413.82 C251.42,411.70 251.56,408.49 248.64,398.86 C251.99,409.88 251.61,412.83 246.53,415.67 C241.92,418.25 240.88,417.94 243.59,414.79 L 245.50 412.57 L 243.00 414.29 C233.02,421.19 231.69,421.88 232.59,419.75 ZM 325.99 422.42 C326.24,424.46 323.27,426.61 316.93,427.87 C314.49,428.36 311.71,429.08 310.75,429.48 C309.79,429.89 309.00,429.79 309.00,429.26 C309.00,428.74 305.29,429.30 300.75,430.51 C294.38,432.21 287.48,433.46 283.76,433.72 C288.09,433.40 296.71,431.77 299.43,430.54 C301.12,429.78 303.62,428.83 305.00,428.44 C306.38,428.04 309.05,426.67 310.94,425.39 C314.77,422.80 316.21,423.01 313.69,425.79 C312.13,427.52 312.29,427.57 317.42,427.01 C322.94,426.40 325.78,424.88 325.99,422.42 ZM 248.92 420.63 C251.43,417.91 253.00,417.28 253.00,418.97 C253.00,419.51 251.54,420.69 249.75,421.60 L 246.50 423.25 ZM 154.88 61.80 C144.27,67.57 135.10,75.48 128.00,85.05 C134.72,75.89 143.21,68.12 152.12,63.24 C152.99,62.76 153.92,62.28 154.88,61.80 ZM 94.00 298.56 C94.00,297.70 94.45,297.00 95.00,297.00 C95.55,297.00 96.00,297.42 96.00,297.94 C96.00,298.46 95.55,299.16 95.00,299.50 C94.45,299.84 94.00,299.42 94.00,298.56 ZM 126.68 224.53 C132.25,221.16 137.88,217.43 139.25,215.95 C139.79,215.36 140.23,214.85 140.58,214.34 C140.28,214.99 139.93,215.53 139.51,215.99 C137.90,217.77 133.84,220.48 126.68,224.53 ZM 94.50 43.01 C98.70,35.32 104.96,29.38 112.80,25.68 C117.02,23.68 119.10,22.93 122.78,22.66 C111.16,24.55 100.57,31.90 94.50,43.01 ZM 77.54 220.60 C81.34,211.75 86.59,201.60 93.50,189.50 C87.35,200.26 81.48,211.76 77.54,220.60 ZM 180.60 133.60 C181.71,132.49 182.49,131.55 183.04,130.61 C181.78,133.04 180.16,134.74 178.13,135.74 C178.88,135.23 179.66,134.54 180.60,133.60 ZM 102.62 360.18 C105.54,368.82 109.56,378.08 115.39,389.94 C109.50,377.95 105.57,369.08 102.62,360.18 ZM 239.18 135.76 C242.36,137.34 246.22,137.46 249.93,135.54 C246.17,137.48 242.39,137.47 239.18,135.76 ZM 230.19 412.38 C229.53,412.77 229.00,412.63 229.00,412.06 C229.00,411.34 227.24,411.00 225.17,411.03 C227.23,410.98 229.00,411.27 229.00,411.95 C229.00,412.32 229.44,412.46 230.19,412.38 ZM 104.32 428.45 C102.92,427.76 101.11,427.21 99.75,427.05 C101.35,427.15 103.30,427.74 104.32,428.45 ZM 248.61 385.29 C248.36,384.88 248.10,384.48 247.83,384.07 C247.24,383.16 246.72,382.35 246.29,381.62 C247.13,382.87 247.90,384.07 248.61,385.29 ZM 281.52 433.71 C281.18,433.65 281.00,433.55 281.00,433.40 C281.00,433.13 281.33,432.53 281.82,431.86 C281.27,432.65 281.02,433.36 281.26,433.60 C281.31,433.64 281.40,433.68 281.52,433.71 ZM 98.70 426.99 C97.17,426.88 95.07,426.05 93.86,425.06 C95.00,426.00 97.04,426.79 98.70,426.99 ZM 113.25 416.67 C113.71,415.29 115.07,413.49 117.50,410.90 C115.15,413.41 113.76,415.26 113.25,416.67 ZM 91.50 58.65 C91.50,58.60 91.50,58.55 91.50,58.50 C91.50,53.41 91.57,50.76 92.10,48.56 C91.58,50.76 91.50,53.45 91.50,58.65 ZM 271.00 432.43 C271.00,433.66 271.63,434.13 272.82,433.83 C271.63,434.13 271.00,433.69 271.00,432.50 C271.00,432.37 270.99,432.24 270.98,432.13 C270.99,432.22 271.00,432.32 271.00,432.43 ZM 254.95 128.45 C253.98,131.51 252.07,134.43 249.93,135.54 C252.06,134.43 253.98,131.51 254.95,128.45 ZM 175.96 411.05 C174.40,411.14 172.59,411.59 171.47,412.37 C172.62,411.58 174.41,411.12 175.96,411.05 ZM 254.95 128.45 C255.57,126.47 255.80,124.43 255.45,122.77 C255.81,124.41 255.58,126.46 254.95,128.45 ZM 283.37 430.01 C284.13,429.08 283.83,429.00 282.35,429.00 C283.85,429.00 284.17,429.04 283.37,430.01 ZM 108.88 429.79 C108.50,429.93 108.13,429.97 107.72,429.93 C108.12,429.94 108.50,429.90 108.88,429.79 ZM 213.35 434.27 C213.90,433.72 214.62,433.10 215.53,432.41 C214.71,433.04 213.95,433.69 213.35,434.27 Z" fill="rgb(46,55,135)"/>
<path d="M 0.00 222.00 L 0.00 0.00 L 207.00 0.00 L 414.00 0.00 L 414.00 222.00 L 414.00 444.00 L 207.00 444.00 L 0.00 444.00 L 0.00 222.00 ZM 197.68 435.29 C199.83,433.88 199.98,433.89 199.41,435.37 C198.15,438.67 204.93,437.28 211.71,432.86 C218.61,428.37 221.23,428.06 215.53,432.41 C211.26,435.67 210.92,437.48 214.75,436.60 C216.26,436.26 218.50,435.82 219.73,435.63 C220.96,435.44 222.76,434.68 223.73,433.94 C225.24,432.79 225.32,432.80 224.25,434.00 C220.99,437.65 225.43,438.18 229.67,434.65 C231.23,433.36 233.62,431.72 235.00,431.02 L 237.50 429.74 L 234.75 432.68 C233.24,434.29 232.00,435.87 232.00,436.19 C232.00,436.52 235.94,436.55 240.75,436.27 C248.97,435.79 249.83,435.52 255.00,431.82 C260.26,428.04 260.34,428.02 256.75,431.29 C254.69,433.17 253.00,435.00 253.00,435.35 C253.00,436.17 258.22,435.60 259.84,434.60 C260.53,434.17 261.79,434.09 262.64,434.41 C263.48,434.74 265.32,434.10 266.72,433.00 C269.76,430.61 271.00,430.47 271.00,432.50 C271.00,434.70 273.15,434.34 277.00,431.50 C278.86,430.12 281.27,429.00 282.35,429.00 C284.19,429.00 284.20,429.12 282.65,430.83 C281.74,431.83 281.00,432.99 281.00,433.40 C281.00,434.52 291.45,432.99 300.75,430.51 C305.29,429.30 309.00,428.74 309.00,429.26 C309.00,429.79 309.79,429.89 310.75,429.48 C311.71,429.08 314.49,428.36 316.93,427.87 C329.67,425.34 328.81,419.20 315.50,417.61 C312.45,417.24 310.11,416.37 309.50,415.37 C308.95,414.47 306.81,411.56 304.75,408.90 C302.69,406.24 301.00,403.75 301.00,403.38 C301.00,403.00 303.87,396.80 307.38,389.60 C317.25,369.34 323.20,352.10 325.88,336.00 C326.76,330.68 328.98,302.11 329.00,295.85 C329.00,294.93 330.94,293.05 333.31,291.67 C346.72,283.81 354.12,267.25 352.53,248.71 C351.21,233.42 345.85,219.59 329.60,189.58 C323.83,178.91 322.92,176.44 320.98,166.08 C317.39,146.92 310.25,119.33 306.01,108.24 C303.44,101.51 303.48,100.56 306.42,99.22 C310.70,97.27 322.53,85.28 325.43,79.96 C334.87,62.61 331.94,42.65 317.92,28.87 C314.78,25.78 309.57,21.95 306.35,20.37 C300.94,17.71 299.64,17.50 289.00,17.50 C278.12,17.50 277.13,17.67 270.68,20.73 C261.70,24.98 254.18,32.69 249.83,42.08 L 246.53 49.19 L 243.02 48.55 C231.31,46.43 224.42,45.90 206.50,45.77 C190.70,45.65 184.75,45.99 178.17,47.39 C173.58,48.37 169.70,49.02 169.53,48.83 C169.37,48.65 167.79,45.62 166.02,42.09 C157.46,25.02 142.39,16.19 123.53,17.21 C100.13,18.47 82.83,39.89 85.45,64.36 C86.82,77.18 93.62,87.65 108.27,99.50 L 111.98 102.50 L 107.45 117.50 C101.88,135.99 96.80,156.02 94.05,170.39 C92.13,180.41 91.33,182.43 84.10,195.39 C74.59,212.45 70.99,220.27 67.34,231.76 C64.94,239.33 64.57,242.17 64.53,253.00 C64.50,264.01 64.80,266.27 67.00,271.91 C69.86,279.23 77.01,287.75 83.49,291.55 L 87.72 294.02 L 88.30 309.76 C88.61,318.42 89.61,330.20 90.51,335.95 C92.79,350.50 99.81,371.12 108.61,389.10 L 116.08 404.34 L 112.72 407.92 C110.87,409.89 108.60,412.73 107.67,414.22 C106.51,416.11 104.37,417.43 100.74,418.51 C97.86,419.36 94.60,420.75 93.50,421.60 C91.52,423.12 91.52,423.14 93.86,425.06 C95.16,426.13 97.49,427.00 99.03,427.00 C100.57,427.00 103.21,427.79 104.90,428.75 C107.43,430.20 108.30,430.28 109.96,429.25 C112.53,427.66 113.06,427.67 112.42,429.34 C112.07,430.27 112.91,430.73 115.21,430.86 C117.02,430.96 119.85,431.24 121.50,431.47 C133.23,433.16 138.59,433.20 139.90,431.62 C140.64,430.73 141.71,430.00 142.28,430.00 C142.85,430.00 142.50,430.90 141.50,432.00 C139.74,433.95 139.75,434.00 142.10,434.11 C143.42,434.17 146.05,434.35 147.95,434.50 C149.91,434.66 152.48,434.08 153.91,433.14 C155.38,432.18 156.10,432.02 155.65,432.76 C154.12,435.23 159.18,435.98 162.75,433.81 C165.41,432.19 165.89,432.12 165.39,433.42 C164.40,436.02 166.45,435.23 171.11,431.23 C178.05,425.28 180.02,424.27 174.23,429.62 C168.39,435.02 167.75,436.47 171.52,435.75 C172.91,435.49 174.22,435.55 174.43,435.88 C174.64,436.22 179.42,436.58 185.06,436.67 C192.85,436.80 195.88,436.47 197.68,435.29 ZM 77.80 396.80 C80.92,393.68 78.10,389.20 73.86,390.54 C70.65,391.56 72.06,398.00 75.50,398.00 C76.11,398.00 77.14,397.46 77.80,396.80 ZM 356.17 391.35 C359.29,388.52 357.88,384.00 353.87,384.00 C352.03,384.00 349.00,386.53 349.00,388.07 C349.00,389.14 352.66,393.00 353.67,393.00 C354.04,393.00 355.17,392.26 356.17,391.35 ZM 69.77 381.65 C68.75,379.50 68.34,376.84 68.66,374.38 C69.06,371.39 68.63,369.70 66.80,367.00 C64.73,363.94 63.84,363.46 59.73,363.20 C55.82,362.94 54.60,363.31 52.55,365.36 C49.14,368.77 48.39,372.42 50.45,375.57 C52.76,379.10 55.37,378.35 56.00,373.99 C56.42,371.07 56.91,370.50 59.00,370.50 C61.22,370.50 61.52,370.95 61.67,374.50 C61.76,376.70 61.87,379.32 61.92,380.33 C61.96,381.33 63.38,383.53 65.07,385.22 C67.90,388.06 68.26,388.17 69.76,386.67 C71.26,385.17 71.26,384.77 69.77,381.65 ZM 364.33 376.64 C365.90,374.58 368.12,373.03 370.04,372.64 C371.77,372.30 374.72,370.48 376.59,368.61 C379.38,365.82 380.00,364.44 380.00,361.02 C380.00,352.84 370.54,347.59 363.05,351.60 C356.55,355.08 358.51,361.39 365.33,358.93 C369.44,357.44 372.00,358.21 372.00,360.95 C372.00,363.16 368.97,365.50 364.76,366.54 C361.59,367.32 356.00,373.25 356.00,375.83 C356.00,378.06 357.90,380.00 360.08,380.00 C361.01,380.00 362.92,378.49 364.33,376.64 ZM 357.50 314.65 C363.29,311.44 368.56,305.71 367.41,303.86 C367.11,303.36 364.92,304.66 362.56,306.74 C358.09,310.67 356.05,311.90 349.75,314.40 C347.69,315.23 346.00,316.37 346.00,316.95 C346.00,319.03 351.62,317.91 357.50,314.65 ZM 347.69 307.05 C355.74,303.40 366.00,291.34 366.00,285.53 C366.00,282.78 363.27,283.92 361.92,287.25 C359.68,292.75 350.55,301.48 343.94,304.45 C338.08,307.07 336.95,309.02 341.31,308.98 C342.51,308.97 345.39,308.10 347.69,307.05 ZM 51.12 258.93 C49.19,253.39 49.86,240.39 52.58,230.50 C53.94,225.55 55.32,220.49 55.64,219.25 C56.89,214.49 53.77,217.22 51.01,223.32 C45.95,234.47 44.78,253.72 48.70,261.36 C50.75,265.36 52.69,263.41 51.12,258.93 ZM 38.36 233.07 C35.84,230.30 33.85,248.26 36.10,253.50 C37.29,256.26 37.45,255.58 38.08,245.00 C38.45,238.68 38.58,233.30 38.36,233.07 ZM 367.95 170.56 C369.99,168.11 368.84,164.54 365.91,164.20 C362.29,163.78 360.36,166.30 361.83,169.53 C363.08,172.27 366.11,172.78 367.95,170.56 ZM 373.16 155.45 C374.44,153.28 377.10,150.97 380.03,149.49 C382.65,148.16 385.75,145.87 386.90,144.40 C389.47,141.14 389.70,134.45 387.37,131.12 C385.50,128.44 380.27,126.00 376.44,126.00 C370.43,126.00 364.50,132.36 367.61,135.47 C369.56,137.42 371.41,137.42 373.04,135.45 C373.83,134.50 375.54,134.02 377.41,134.20 C380.11,134.46 380.50,134.88 380.50,137.50 C380.50,140.10 379.83,140.84 375.53,143.00 C367.76,146.91 363.35,155.36 367.75,157.92 C370.43,159.48 370.91,159.27 373.16,155.45 ZM 57.00 115.00 C59.41,112.59 59.54,110.68 57.43,108.57 C55.59,106.73 54.56,106.63 51.93,108.04 C49.56,109.30 49.43,112.71 51.65,115.17 C53.76,117.49 54.53,117.47 57.00,115.00 ZM 48.80 102.80 C50.47,101.13 50.30,98.38 48.32,95.37 C46.86,93.13 46.79,92.06 47.83,87.07 C49.22,80.31 48.15,75.75 44.34,72.25 C40.98,69.16 32.45,69.08 28.61,72.09 C23.35,76.23 21.17,85.03 24.57,88.43 C27.83,91.69 31.00,89.51 31.00,84.00 C31.00,79.71 32.45,78.00 36.08,78.00 C39.64,78.00 41.41,80.27 40.55,83.74 C38.36,92.49 39.05,96.96 43.34,101.75 C45.60,104.28 47.04,104.56 48.80,102.80 ZM 113.67 419.33 C112.16,417.83 113.24,415.45 117.50,410.90 C119.97,408.25 122.00,405.47 122.00,404.73 C122.00,403.98 119.03,397.32 115.39,389.94 C104.98,368.77 100.34,355.87 97.43,340.00 C94.96,326.49 94.07,319.02 94.03,311.38 C94.00,304.43 94.06,304.25 96.50,304.25 C98.76,304.25 99.00,304.65 99.02,308.38 C99.03,310.64 99.71,317.23 100.52,323.00 C104.43,350.58 109.35,366.29 122.41,392.90 C125.48,399.17 128.00,405.34 128.00,406.61 C128.00,408.79 124.46,412.74 117.84,417.92 C114.92,420.21 114.64,420.30 113.67,419.33 ZM 261.50 416.75 C259.53,415.05 258.11,411.70 255.65,403.00 C252.73,392.68 250.26,387.22 245.34,380.25 C243.86,378.14 243.88,378.00 245.70,378.00 C248.16,378.00 250.93,380.95 255.33,388.27 C258.27,393.17 260.30,399.47 262.56,410.67 C262.80,411.87 264.16,414.23 265.59,415.92 C268.04,418.83 268.07,419.00 266.14,419.00 C265.03,419.00 262.94,417.99 261.50,416.75 ZM 240.25 414.30 C243.04,411.18 242.43,410.07 238.25,410.65 C236.19,410.93 233.26,411.56 231.75,412.03 C230.08,412.56 229.00,412.52 229.00,411.95 C229.00,410.64 222.33,410.75 219.81,412.10 C218.29,412.92 217.56,412.91 217.04,412.06 C216.53,411.24 215.57,411.21 213.60,411.96 C212.10,412.53 210.11,412.99 209.18,412.97 C207.65,412.94 207.65,412.85 209.25,411.92 C210.21,411.36 211.00,410.54 211.00,410.10 C211.00,408.70 204.82,409.07 202.47,410.61 C200.71,411.76 200.10,411.81 199.78,410.84 C199.51,410.02 197.65,409.65 194.43,409.78 C191.72,409.88 188.26,409.97 186.74,409.97 C185.22,409.97 182.86,410.70 181.49,411.60 C179.97,412.60 179.00,412.80 179.00,412.12 C179.00,410.55 173.84,410.72 171.47,412.37 C169.45,413.78 165.00,412.97 165.00,411.19 C165.00,410.71 165.87,406.91 166.94,402.74 C169.18,393.97 172.12,387.68 175.86,383.66 C181.19,377.93 182.25,377.74 208.62,377.74 C232.06,377.74 232.96,377.81 236.52,380.01 C241.88,383.32 245.71,389.26 248.59,398.70 C251.56,408.46 251.44,411.69 248.00,413.82 C246.21,414.94 245.85,414.98 246.75,413.99 C248.20,412.38 248.38,411.00 247.14,411.00 C246.67,411.00 244.53,412.18 242.39,413.63 C239.63,415.49 239.01,415.69 240.25,414.30 ZM 82.94 283.47 C69.33,273.47 65.87,253.58 73.68,230.20 C76.53,221.69 84.73,204.85 93.50,189.50 C98.55,180.67 99.33,178.56 100.14,171.50 C101.75,157.57 113.98,111.72 119.19,100.09 C130.64,74.51 154.71,56.61 183.69,52.12 C190.20,51.11 206.27,50.67 201.50,51.64 C200.40,51.86 196.80,52.53 193.50,53.14 C178.15,55.96 163.96,61.18 155.11,67.27 C148.06,72.12 138.83,82.01 134.24,89.62 C124.04,106.56 114.40,135.54 108.00,168.50 C106.04,178.61 105.39,180.23 100.00,188.56 C91.62,201.52 83.48,217.29 80.02,227.29 C72.37,249.34 74.24,270.10 84.97,282.32 C88.73,286.59 87.87,287.09 82.94,283.47 ZM 114.50 231.15 C129.49,223.24 137.15,218.60 139.51,215.99 C140.96,214.39 141.64,211.88 142.00,206.73 C142.31,202.34 142.97,199.50 143.75,199.25 C144.68,198.94 145.00,200.89 145.00,206.86 C145.00,213.78 144.69,215.23 142.75,217.38 C140.40,219.98 124.15,229.25 113.32,234.15 C102.32,239.14 103.10,237.17 114.50,231.15 ZM 226.00 227.51 C226.00,225.03 232.11,218.98 237.22,216.39 C240.10,214.93 245.48,213.45 250.31,212.80 C259.08,211.62 260.68,210.61 264.28,204.00 C265.26,202.20 266.25,200.92 266.48,201.15 C267.46,202.13 263.69,212.09 262.00,213.00 C260.99,213.54 257.01,214.43 253.16,214.98 C242.77,216.45 235.38,219.57 230.34,224.60 C227.91,227.04 226.00,228.31 226.00,227.51 ZM 203.00 200.01 C190.09,198.26 181.12,194.27 175.52,187.79 C171.92,183.63 171.83,183.32 172.40,177.62 C173.28,168.93 178.76,159.33 188.56,149.31 C196.84,140.84 202.99,137.06 208.54,137.02 C217.65,136.96 234.01,152.25 241.15,167.50 C243.79,173.14 244.17,174.96 243.80,180.05 C243.46,184.84 242.84,186.56 240.61,188.88 C233.04,196.78 216.12,201.79 203.00,200.01 ZM 203.12 183.30 C205.66,181.49 208.31,180.00 209.02,180.00 C209.72,180.00 212.22,181.57 214.57,183.50 C219.40,187.46 221.00,187.85 221.00,185.09 C221.00,183.94 218.98,181.69 216.00,179.50 C211.70,176.35 211.00,175.35 211.00,172.44 C211.00,169.63 211.96,168.11 216.50,163.71 C220.88,159.47 222.00,157.74 222.00,155.23 C222.00,150.83 219.25,149.63 209.50,149.76 C198.73,149.90 196.00,151.00 196.00,155.19 C196.00,157.82 197.04,159.41 201.50,163.63 C206.11,167.98 207.00,169.39 207.00,172.29 C207.00,175.32 206.31,176.28 201.50,179.91 C198.01,182.55 196.00,184.80 196.00,186.09 C196.00,188.36 196.11,188.31 203.12,183.30 ZM 166.50 141.90 C162.51,140.67 160.67,139.16 158.13,134.98 C154.65,129.28 155.58,121.00 159.70,121.00 C160.57,121.00 161.00,122.47 161.00,125.48 C161.00,132.00 164.84,136.09 171.56,136.73 C177.40,137.28 181.33,134.85 183.68,129.22 C185.44,125.01 186.47,125.66 185.58,130.42 C184.76,134.82 180.61,139.85 176.33,141.64 C172.65,143.17 170.81,143.22 166.50,141.90 ZM 240.64 142.02 C234.87,140.20 230.99,134.66 231.02,128.30 L 231.04 124.50 L 232.90 128.58 C236.37,136.23 243.19,139.02 249.93,135.54 C253.44,133.72 256.37,126.96 255.45,122.77 C254.90,120.26 255.08,119.87 256.64,120.17 C259.27,120.68 261.31,125.51 260.57,129.47 C258.82,138.82 249.36,144.77 240.64,142.02 ZM 100.53 84.90 C98.46,82.61 95.58,78.21 94.14,75.12 C91.81,70.17 91.50,68.26 91.50,59.00 C91.50,49.22 91.71,48.12 94.50,43.01 C102.86,27.70 119.82,19.54 136.20,22.94 C140.25,23.78 143.63,25.44 148.11,28.81 C151.55,31.39 154.57,34.13 154.82,34.90 C155.08,35.72 153.85,35.24 151.88,33.77 C144.45,28.19 139.97,26.61 131.50,26.56 C121.56,26.51 116.33,28.69 108.39,36.19 C95.12,48.74 92.41,67.21 101.61,82.47 C103.52,85.65 104.91,88.43 104.68,88.65 C104.46,88.87 102.59,87.18 100.53,84.90 ZM 119.00 76.76 C111.79,72.21 109.00,67.53 109.02,60.00 C109.05,48.47 115.41,42.68 127.31,43.35 C135.42,43.82 139.56,46.58 143.82,54.39 L 146.49 59.29 L 143.50 61.39 C141.85,62.55 136.87,66.99 132.43,71.25 C127.99,75.51 123.94,78.99 123.43,78.98 C122.92,78.97 120.93,77.97 119.00,76.76 ZM 288.50 74.84 C285.84,71.19 278.39,64.50 271.85,59.89 L 269.57 58.28 L 271.45 54.11 C278.37,38.76 298.65,36.91 305.75,50.97 C309.96,59.30 307.89,68.28 300.15,75.25 C294.74,80.13 292.30,80.04 288.50,74.84 ZM 252.40 49.60 C251.62,47.58 256.12,39.26 260.95,33.79 C268.53,25.19 282.89,20.26 293.65,22.56 C297.33,23.35 297.20,23.42 290.50,24.00 C277.47,25.13 266.96,32.01 259.01,44.61 C254.95,51.02 253.40,52.20 252.40,49.60 Z" fill="rgb(251,252,252)"/>
</g>
</svg>