<svg xmlns="http://www.w3.org/2000/svg" width="414" height="444" viewBox="0 0 414 444">
<g>
<path d="M 235.00 402.49 C211.47,403.59 202.14,403.68 188.00,402.92 C121.28,399.36 69.55,375.29 51.70,339.50 C44.49,325.06 42.00,311.77 42.00,287.78 C42.00,270.76 43.61,254.41 47.08,236.21 C48.83,227.01 59.86,182.42 62.96,172.01 C64.48,166.91 64.32,166.37 60.84,164.93 C55.97,162.92 44.02,154.84 38.03,149.53 C29.27,141.75 23.16,134.02 19.04,125.50 C13.87,114.80 12.68,108.68 13.20,95.44 C13.72,82.13 16.66,72.91 23.61,62.74 C49.65,24.63 107.31,22.80 133.28,59.25 C138.84,67.06 142.27,73.84 144.40,81.25 C145.31,84.41 146.21,87.00 146.39,87.00 C146.58,87.00 151.81,85.67 158.02,84.04 C176.79,79.11 191.92,77.67 218.45,78.29 C237.76,78.74 243.36,79.22 253.00,81.28 C259.33,82.63 264.79,83.57 265.15,83.37 C265.51,83.17 266.36,80.64 267.04,77.75 C271.09,60.59 285.81,42.63 302.86,34.06 C317.14,26.88 336.87,24.87 352.00,29.07 C374.13,35.20 391.15,51.79 397.60,73.50 C400.27,82.46 400.05,97.28 397.11,107.74 C392.03,125.79 376.31,144.63 358.04,154.57 C355.27,156.08 353.00,157.81 353.01,158.41 C353.01,159.01 354.15,162.86 355.55,166.97 C358.13,174.59 366.32,206.26 369.90,222.50 C373.57,239.14 376.11,259.38 376.70,276.61 C378.45,327.93 363.88,359.31 329.37,378.61 C306.64,391.32 268.74,400.91 235.00,402.49 ZM 197.41 297.58 C205.31,299.38 224.51,298.79 231.85,296.52 C245.92,292.16 257.43,284.23 262.66,275.31 C266.40,268.93 266.95,259.50 264.04,251.78 C261.32,244.58 255.02,235.98 245.16,226.01 C227.58,208.21 213.65,204.21 196.89,212.13 C191.95,214.46 188.10,217.57 179.96,225.82 C158.75,247.32 153.80,260.68 161.70,275.18 C166.95,284.83 181.48,293.95 197.41,297.58 ZM 323.93 113.73 C330.79,120.29 331.88,120.97 335.60,120.98 C344.20,121.02 352.89,115.97 358.04,107.94 C360.87,103.53 361.41,101.68 361.79,95.03 C362.34,85.60 361.17,81.66 355.81,74.88 C345.24,61.51 323.71,60.91 311.95,73.67 C306.66,79.41 305.00,83.53 305.00,90.91 L 305.00 96.87 L 310.68 101.69 C313.81,104.33 319.77,109.76 323.93,113.73 ZM 67.20 125.94 C71.21,127.94 74.82,129.00 77.66,129.00 C81.83,129.00 82.51,128.53 94.50,117.25 L 106.99 105.50 L 107.00 99.91 C107.00,93.17 102.65,83.57 97.69,79.38 C86.54,69.95 69.41,70.51 59.58,80.61 C53.25,87.12 51.53,91.36 51.53,100.50 C51.53,106.80 52.00,109.37 53.72,112.62 C57.27,119.30 60.70,122.70 67.20,125.94 ZM 261.50 208.16 C273.39,213.83 288.77,205.27 290.59,191.96 C292.49,178.13 280.78,166.46 267.08,168.51 C264.58,168.89 261.40,169.78 260.01,170.51 C244.89,178.42 245.76,200.66 261.50,208.16 ZM 145.50 211.10 C154.59,215.32 164.89,212.25 170.75,203.58 C173.62,199.33 174.00,197.99 174.00,192.00 C174.00,186.01 173.62,184.66 170.75,180.40 C168.96,177.75 166.08,174.76 164.35,173.75 C160.08,171.28 152.17,170.46 147.51,172.00 C142.78,173.56 136.12,179.49 134.35,183.72 C132.73,187.57 132.59,195.78 134.06,199.68 C135.57,203.69 140.82,208.93 145.50,211.10 ZM 228.34 278.97 C221.26,281.62 209.20,282.41 202.50,280.65 C194.85,278.66 187.86,274.65 183.21,269.61 C177.19,263.08 177.74,258.00 184.45,258.00 C186.76,258.00 188.20,258.88 190.39,261.62 C196.50,269.27 211.05,272.87 222.48,269.55 C227.13,268.20 229.39,266.75 233.62,262.43 C237.76,258.18 239.58,257.00 241.99,257.00 C245.68,257.00 247.24,260.00 245.77,264.23 C244.28,268.51 234.73,276.58 228.34,278.97 ZM 218.25 249.05 C212.72,252.56 212.48,252.58 208.00,249.89 C202.90,246.83 200.05,243.98 197.90,239.79 C192.58,229.40 198.44,223.00 213.28,223.00 C219.72,223.00 224.55,224.66 227.38,227.84 C231.58,232.55 226.81,243.63 218.25,249.05 ZM 159.70 203.04 C157.94,204.11 155.15,204.99 153.50,204.99 C146.99,204.99 141.00,198.66 141.00,191.80 C141.01,188.10 143.96,182.61 146.70,181.20 C155.38,176.76 164.71,181.22 165.73,190.29 C166.34,195.71 164.16,200.32 159.70,203.04 ZM 276.03 200.48 C269.55,203.84 262.27,201.25 258.96,194.41 C256.35,189.03 256.96,185.26 261.20,180.43 C263.97,177.27 264.66,177.00 270.00,177.00 C275.38,177.00 276.01,177.25 278.90,180.53 C280.60,182.48 282.07,185.07 282.16,186.28 C282.63,193.08 280.42,198.22 276.03,200.48 Z" fill="rgb(43,58,149)"/>
</g>
</svg>
