<svg xmlns="http://www.w3.org/2000/svg" width="414" height="444" viewBox="0 0 414 444">
<g>
<path d="M 188.26 429.00 C187.79,429.00 186.83,429.56 186.14,430.25 C185.13,431.25 185.00,431.19 185.48,429.93 C185.93,428.75 185.39,428.34 183.29,428.26 C181.75,428.21 178.25,427.88 175.50,427.54 C172.75,427.20 168.70,426.72 166.50,426.48 C164.30,426.24 161.60,425.86 160.50,425.64 C159.40,425.43 157.65,425.98 156.62,426.87 C154.85,428.40 154.77,428.38 155.36,426.49 C155.91,424.71 155.55,424.48 152.24,424.53 C150.18,424.57 147.90,424.15 147.16,423.60 C145.34,422.25 136.80,422.01 135.23,423.27 C134.29,424.02 134.10,423.89 134.52,422.81 C134.83,422.00 134.50,421.27 133.79,421.20 C133.08,421.13 130.93,420.78 129.00,420.42 C127.07,420.07 124.71,419.73 123.75,419.67 C122.79,419.62 122.00,419.19 122.00,418.73 C122.00,418.26 121.55,418.16 121.00,418.50 C120.45,418.84 120.00,418.61 120.00,418.00 C120.00,417.39 119.63,417.11 119.18,417.39 C118.73,417.66 116.45,417.23 114.12,416.43 C111.78,415.62 109.38,415.27 108.78,415.64 C108.13,416.04 107.98,415.84 108.40,415.15 C108.81,414.50 108.55,414.01 107.81,414.03 C106.05,414.07 102.88,416.55 103.63,417.30 C103.96,417.62 103.29,417.82 102.14,417.74 C100.05,417.58 100.05,417.58 102.27,415.11 L 104.50 412.64 L 96.50 417.19 L 99.17 414.34 C101.48,411.87 101.64,411.32 100.37,410.17 C99.13,409.04 98.03,409.48 93.20,413.06 C90.07,415.39 88.06,416.69 88.75,415.95 C90.68,413.86 90.23,412.79 87.75,413.57 C85.52,414.26 85.52,414.25 87.40,412.13 C88.46,410.95 88.79,410.00 88.15,410.00 C87.52,410.00 87.00,410.40 87.00,410.88 C87.00,411.37 85.88,411.98 84.50,412.24 C82.54,412.62 82.00,412.31 82.00,410.80 C82.00,409.75 82.34,409.04 82.75,409.23 C83.16,409.41 85.30,407.87 87.50,405.79 C90.41,403.04 91.02,402.01 89.75,402.01 C88.79,402.00 88.00,401.50 88.00,400.89 C88.00,400.28 86.31,396.36 84.25,392.19 C80.66,384.92 80.50,384.17 80.53,374.55 C80.56,363.31 82.02,358.83 88.53,349.95 L 92.09 345.10 L 92.63 326.30 C93.43,298.08 93.42,297.95 91.59,291.50 C89.53,284.23 89.20,267.32 90.95,258.00 C91.62,254.43 93.98,246.32 96.20,240.00 C104.72,215.72 107.92,205.00 110.99,190.53 C112.74,182.29 115.76,170.14 117.71,163.53 C118.12,162.11 118.51,160.82 118.86,159.64 C121.28,151.48 122.10,148.72 121.09,147.08 C120.43,146.01 118.99,145.42 116.70,144.11 C95.11,131.76 91.89,102.97 110.26,86.46 C117.38,80.05 124.42,77.71 135.08,78.20 C149.11,78.85 158.18,84.69 164.57,97.18 C165.89,99.75 167.38,102.12 167.90,102.44 C168.41,102.76 171.68,102.31 175.17,101.45 C184.40,99.18 214.26,98.45 224.32,100.25 L 232.15 101.66 L 235.10 95.80 C239.14,87.80 244.11,82.58 250.84,79.28 C255.94,76.78 257.54,76.50 267.00,76.50 C276.44,76.50 278.01,76.77 282.54,79.16 C288.98,82.56 295.45,89.59 298.82,96.82 C301.04,101.61 301.46,103.91 301.48,111.50 C301.50,119.16 301.11,121.32 298.89,126.00 C295.87,132.37 289.46,139.94 284.47,143.02 C282.56,144.20 281.01,145.91 281.03,146.83 C281.04,147.75 282.40,152.55 284.04,157.50 C285.69,162.45 289.80,177.52 293.18,191.00 C299.34,215.61 300.16,217.99 310.26,241.00 C321.54,266.68 324.50,279.53 323.73,299.50 C323.40,308.18 322.67,313.99 321.54,317.00 C320.18,320.63 319.98,323.30 320.52,330.81 C321.19,340.11 321.20,340.11 326.19,346.31 C332.34,353.94 334.58,358.21 336.64,366.23 C339.37,376.88 336.49,389.56 329.49,397.74 C325.56,402.33 325.22,403.21 327.75,402.31 C328.91,401.90 328.51,402.76 326.56,404.85 C324.27,407.31 323.99,408.00 325.31,408.00 C326.24,408.00 327.00,407.52 327.00,406.94 C327.00,406.35 327.79,405.99 328.75,406.14 C329.71,406.28 331.94,405.63 333.70,404.70 C337.91,402.47 338.71,402.55 336.50,405.00 C334.31,407.43 335.14,407.56 338.79,405.37 C340.58,404.28 340.15,404.95 337.50,407.33 C335.30,409.31 333.05,410.93 332.50,410.93 C331.95,410.93 332.37,410.28 333.43,409.48 C334.49,408.68 335.06,407.73 334.70,407.37 C334.34,407.01 332.01,408.39 329.51,410.44 C327.01,412.48 324.44,413.98 323.78,413.76 C323.13,413.54 321.80,414.05 320.83,414.88 C319.86,415.71 317.81,416.54 316.28,416.71 L 313.50 417.04 L 316.00 415.04 C317.38,413.94 318.84,413.03 319.25,413.02 C319.66,413.01 320.00,412.51 320.00,411.90 C320.00,411.29 318.38,411.76 316.38,412.94 C313.58,414.59 312.89,414.72 313.35,413.54 C313.71,412.58 313.38,412.00 312.47,412.00 C311.66,412.00 311.00,412.65 311.00,413.44 C311.00,414.23 310.48,415.20 309.85,415.60 C309.13,416.04 308.96,415.87 309.40,415.15 C310.14,413.97 308.81,413.53 307.74,414.60 C306.72,415.62 308.14,418.03 309.35,417.33 C309.98,416.97 310.15,417.06 309.72,417.54 C308.21,419.20 306.00,418.83 306.00,416.91 C306.00,414.62 304.71,414.44 303.00,416.50 C302.32,417.33 300.71,418.00 299.44,418.00 C298.16,418.00 296.84,418.45 296.50,418.99 C296.17,419.54 294.96,420.49 293.82,421.09 C292.33,421.89 291.95,421.90 292.44,421.10 C292.81,420.49 292.84,420.00 292.50,420.00 C292.00,420.00 279.87,425.62 275.50,427.87 C274.95,428.15 275.14,427.59 275.93,426.62 C277.26,424.98 277.06,424.90 272.93,425.36 C270.49,425.63 268.50,425.92 268.50,426.00 C268.50,426.08 265.87,426.33 262.66,426.55 C259.44,426.76 255.26,427.50 253.35,428.19 C250.46,429.24 249.75,429.21 249.00,428.01 C248.25,426.79 247.55,426.86 244.31,428.51 C238.83,431.30 238.18,431.41 241.00,429.10 L 243.50 427.04 L 240.14 427.02 C237.38,427.00 236.90,427.30 237.45,428.72 C237.81,429.67 237.79,430.12 237.39,429.73 C237.00,429.34 235.97,429.58 235.09,430.26 C233.66,431.37 233.65,431.31 234.96,429.64 C236.27,427.98 236.22,427.63 234.50,426.38 C233.45,425.61 232.12,425.13 231.55,425.32 C230.98,425.51 229.92,425.06 229.19,424.33 C227.65,422.79 224.58,422.51 225.50,424.00 C225.84,424.55 225.61,425.00 225.00,425.00 C224.39,425.00 224.16,425.45 224.50,426.01 C224.86,426.59 224.03,426.52 222.55,425.84 L 219.97 424.66 L 222.16 422.33 C224.51,419.82 223.69,419.41 219.51,421.00 C217.56,421.74 217.07,421.69 217.61,420.83 C218.10,420.02 217.74,419.87 216.41,420.33 C215.08,420.80 215.37,420.23 217.37,418.45 C218.94,417.05 220.03,415.69 219.78,415.44 C219.24,414.91 212.73,419.57 208.70,423.36 C207.16,424.81 205.32,426.00 204.62,426.00 C203.91,426.00 203.02,426.31 202.65,426.69 C201.92,427.41 199.55,427.86 194.40,428.26 C192.70,428.39 190.47,429.17 189.46,430.00 C188.40,430.86 187.94,430.97 188.37,430.25 C188.78,429.56 188.73,429.00 188.26,429.00 ZM 184.77 422.45 C185.44,423.10 191.00,422.41 191.00,421.68 C191.00,421.23 191.90,421.15 193.00,421.50 C194.10,421.85 195.00,421.76 195.00,421.29 C195.00,420.83 196.70,420.61 198.79,420.81 C201.99,421.11 202.78,420.79 203.91,418.66 C204.65,417.29 205.84,416.38 206.55,416.66 C208.12,417.26 210.37,413.41 209.61,411.42 C209.31,410.64 209.51,410.00 210.07,410.00 C210.73,410.00 210.72,409.34 210.04,408.07 C208.70,405.57 208.72,404.71 210.11,405.57 C210.86,406.03 210.99,405.53 210.49,403.97 C209.89,402.08 210.06,401.81 211.51,402.37 C213.16,403.00 213.16,402.89 211.56,400.44 C209.88,397.89 209.89,397.87 212.00,399.00 C213.98,400.06 214.06,399.99 213.04,398.08 C212.26,396.63 212.25,396.00 213.00,396.00 C213.74,396.00 213.72,395.35 212.94,393.88 C212.24,392.57 212.20,392.00 212.84,392.40 C213.50,392.81 213.74,391.61 213.50,389.00 C213.29,386.66 213.52,385.21 214.07,385.54 C215.17,386.22 215.33,384.66 214.26,383.60 C213.86,383.19 213.47,380.43 213.41,377.45 C213.26,371.04 211.86,369.00 207.60,369.00 C202.42,369.00 199.03,371.90 193.87,380.75 C192.19,383.64 190.40,386.00 189.90,386.00 C188.67,386.00 188.75,381.27 190.00,380.50 C192.99,378.65 190.34,376.13 177.74,368.80 C158.46,357.60 149.33,354.17 135.73,353.06 C132.01,352.75 128.86,352.05 128.73,351.50 C128.41,350.10 143.96,349.68 149.77,350.93 C160.82,353.31 165.59,354.57 167.00,355.49 C167.82,356.03 168.73,356.48 169.00,356.49 C170.71,356.56 181.24,362.47 181.68,363.60 C181.97,364.37 182.61,364.74 183.10,364.44 C183.60,364.13 184.00,364.37 184.00,364.97 C184.00,365.92 187.73,367.88 190.50,368.38 C191.05,368.48 192.02,368.88 192.66,369.28 C193.31,369.68 193.98,369.67 194.16,369.26 C194.65,368.16 202.04,364.40 205.24,363.63 C208.69,362.80 214.45,365.11 215.97,367.94 C217.07,369.99 217.17,369.96 220.41,366.52 C223.11,363.67 224.47,363.00 227.62,363.00 C229.79,363.01 233.01,363.93 234.93,365.10 C236.82,366.25 239.86,367.31 241.68,367.46 L 244.99 367.72 L 242.80 364.11 C241.59,362.12 240.30,360.27 239.92,360.00 C239.54,359.73 238.02,356.08 236.54,351.89 L 233.84 344.28 L 237.12 337.39 C238.93,333.60 241.16,329.38 242.09,328.00 C243.01,326.62 245.42,322.35 247.44,318.50 C249.46,314.65 251.65,311.04 252.31,310.48 C252.96,309.92 254.10,308.39 254.84,307.09 C259.20,299.42 260.00,297.84 260.00,296.87 C260.00,296.28 260.64,294.38 261.42,292.65 C263.31,288.45 264.11,284.05 264.68,274.75 C264.94,270.49 265.53,267.00 265.99,267.00 C267.28,267.00 269.00,276.36 268.99,283.30 C268.96,295.81 264.52,306.38 252.50,322.51 C244.06,333.83 242.00,338.73 242.00,347.48 C242.00,355.60 243.83,357.58 245.98,351.77 C247.66,347.21 251.00,345.29 251.00,348.88 C251.00,349.99 250.49,352.02 249.87,353.38 C249.25,354.74 249.04,357.01 249.39,358.43 C249.89,360.41 250.66,361.00 252.77,360.98 C256.30,360.96 257.09,360.32 259.50,355.50 C261.74,351.03 264.71,350.00 264.16,353.89 C264.14,354.04 264.12,354.18 264.10,354.32 C264.00,354.95 263.93,355.40 264.12,355.62 C264.57,356.15 266.43,355.50 272.68,353.29 C273.25,353.09 273.86,352.88 274.50,352.65 C278.35,351.30 283.44,349.67 285.81,349.04 C288.18,348.40 290.99,347.01 292.06,345.94 C293.13,344.87 294.11,344.03 294.25,344.07 C296.72,344.76 306.00,337.07 306.00,334.33 C306.00,333.58 307.12,331.18 308.50,329.00 C309.88,326.82 311.00,324.58 311.00,324.03 C311.00,323.47 311.90,322.45 313.00,321.77 C314.10,321.08 315.00,319.59 315.00,318.46 C315.00,317.33 315.40,315.97 315.89,315.45 C317.30,313.93 319.00,302.02 319.00,293.62 C319.00,279.56 313.20,258.99 303.32,238.00 C296.41,223.31 293.66,215.24 288.83,195.50 C284.01,175.78 282.47,170.28 277.30,154.50 C265.52,118.52 245.25,104.39 204.25,103.60 C182.93,103.18 167.14,106.64 153.86,114.62 C147.43,118.48 137.40,128.76 133.42,135.55 C127.43,145.77 120.83,167.55 112.99,203.00 C111.22,210.98 108.20,221.32 106.27,226.00 C92.09,260.29 90.44,281.42 100.42,300.71 C107.18,313.78 116.13,319.23 131.83,319.84 C142.41,320.25 147.69,319.18 157.00,314.77 C171.63,307.84 183.37,297.13 194.19,280.83 C203.81,266.35 207.22,252.39 203.52,242.69 C202.30,239.49 201.13,238.02 199.65,237.80 C196.87,237.41 196.29,234.36 198.84,233.55 C199.92,233.21 202.67,231.57 204.96,229.91 C208.33,227.47 209.06,226.38 208.81,224.20 C208.34,220.15 205.04,220.33 193.00,225.07 C178.18,230.89 177.43,230.97 175.71,226.86 C173.79,222.27 171.32,220.31 169.17,221.68 C167.79,222.55 167.56,224.07 167.85,230.30 C168.15,236.69 167.83,238.69 165.76,243.18 C159.38,257.02 141.90,268.70 130.71,266.61 C128.67,266.22 127.00,265.55 127.00,265.11 C127.00,264.68 129.41,263.78 132.37,263.12 C135.32,262.46 138.54,261.32 139.53,260.60 C141.26,259.34 141.24,259.13 139.17,255.77 C137.98,253.84 137.00,251.98 137.00,251.63 C137.00,250.14 139.37,251.20 141.18,253.50 C144.46,257.67 148.49,256.91 154.12,251.06 C161.11,243.82 162.41,240.82 162.63,231.50 C162.74,227.10 162.86,222.71 162.91,221.75 C163.08,218.46 166.64,215.98 170.23,216.65 C173.72,217.30 178.62,221.22 179.53,224.09 C180.03,225.66 180.83,225.49 187.46,222.42 C200.11,216.58 210.63,215.57 212.99,219.98 C214.95,223.64 214.10,226.94 210.09,231.29 L 206.18 235.53 L 208.34 240.02 C210.20,243.88 210.47,246.03 210.31,255.53 C210.14,265.00 209.76,267.32 207.57,272.03 C206.17,275.04 205.00,277.05 204.97,276.50 C204.94,275.95 204.27,277.30 203.49,279.50 C202.71,281.70 201.16,284.25 200.04,285.16 C198.92,286.07 198.00,287.54 198.00,288.41 C198.00,289.28 197.55,290.00 197.00,290.00 C196.45,290.00 196.00,290.69 196.00,291.53 C196.00,292.37 195.34,293.32 194.54,293.62 C193.73,293.93 192.80,295.04 192.47,296.09 C192.14,297.14 191.30,298.00 190.60,298.00 C189.91,298.00 188.74,299.12 188.00,300.50 C187.27,301.87 186.46,302.79 186.20,302.53 C185.95,302.28 184.56,303.31 183.12,304.82 C181.68,306.34 178.33,308.83 175.69,310.37 C173.04,311.90 170.63,313.80 170.33,314.58 C170.03,315.36 169.19,316.00 168.46,316.00 C167.74,316.00 166.55,316.59 165.82,317.31 C163.71,319.40 152.74,324.47 150.00,324.62 C148.62,324.70 145.48,325.11 143.00,325.53 C140.52,325.95 137.70,326.33 136.73,326.36 C135.61,326.40 135.15,326.96 135.50,327.86 C135.95,329.03 135.77,329.06 134.52,328.02 C133.34,327.03 133.00,327.03 133.00,327.98 C133.00,328.68 132.33,328.96 131.45,328.62 C130.56,328.28 130.16,328.44 130.51,329.01 C131.24,330.20 127.40,329.76 126.28,328.53 C125.85,328.06 126.13,328.05 126.90,328.49 C127.86,329.05 128.08,328.93 127.59,328.14 C127.19,327.49 126.41,327.24 125.87,327.58 C125.32,327.92 123.93,327.36 122.77,326.35 C120.72,324.55 120.68,324.55 121.35,326.39 C121.88,327.83 121.74,328.05 120.77,327.30 C120.07,326.76 118.15,326.42 116.50,326.53 C114.85,326.65 112.71,326.05 111.75,325.21 C110.79,324.38 109.98,324.10 109.96,324.60 C109.94,325.09 108.77,324.15 107.35,322.50 C105.94,320.85 105.10,320.10 105.49,320.82 C106.09,321.92 105.85,321.92 104.10,320.83 C102.95,320.11 101.97,319.29 101.92,319.01 C101.34,315.14 98.58,309.75 97.65,310.68 C97.29,311.04 96.99,319.02 96.99,328.42 L 96.97 345.50 L 92.07 352.83 C89.34,356.90 86.63,362.39 85.96,365.18 C84.19,372.54 85.23,383.36 88.35,390.01 C90.92,395.51 97.48,402.95 100.11,403.35 C100.88,403.46 102.13,403.95 102.90,404.43 C103.95,405.08 104.10,404.95 103.49,403.90 C103.04,403.13 103.76,403.43 105.09,404.57 C107.78,406.88 116.39,410.43 115.39,408.82 C115.04,408.26 115.86,408.52 117.21,409.40 C118.56,410.28 119.89,410.78 120.17,410.50 C120.44,410.22 123.21,410.83 126.31,411.85 C129.40,412.88 131.67,413.28 131.35,412.76 C131.02,412.23 131.83,412.39 133.13,413.11 C134.43,413.83 135.81,414.34 136.18,414.24 C136.56,414.13 138.49,414.72 140.48,415.55 C142.46,416.38 144.59,416.75 145.20,416.38 C145.91,415.94 146.02,416.15 145.52,416.98 C144.98,417.84 145.18,418.10 146.11,417.76 C146.87,417.49 148.29,417.68 149.25,418.17 C150.40,418.76 151.00,418.69 151.00,417.98 C151.00,417.35 151.54,417.22 152.25,417.66 C153.29,418.30 159.43,418.81 169.27,419.07 C170.25,419.10 170.84,419.45 170.60,419.85 C170.35,420.25 170.90,420.62 171.82,420.67 C174.79,420.84 184.49,422.17 184.77,422.45 ZM 237.77 421.14 C242.82,422.31 255.65,421.28 258.41,419.47 C260.09,418.37 261.00,418.18 261.00,418.94 C261.00,419.72 261.74,419.59 263.22,418.56 C264.44,417.70 265.91,417.01 266.47,417.02 C267.04,417.02 266.83,417.52 266.00,418.11 C264.80,418.97 264.90,419.04 266.50,418.46 C267.60,418.07 269.96,417.81 271.74,417.90 C273.52,417.99 276.20,417.26 277.70,416.28 C279.59,415.04 280.16,414.93 279.55,415.92 C278.88,417.00 279.09,417.18 280.42,416.67 C281.38,416.30 282.79,416.00 283.55,416.00 C284.31,416.00 286.47,414.65 288.35,413.00 C292.05,409.75 294.09,408.98 291.87,411.66 C290.64,413.16 290.71,413.22 292.58,412.22 C293.73,411.61 295.20,410.46 295.86,409.67 C296.53,408.86 298.45,408.33 300.27,408.46 C302.37,408.60 304.64,407.84 306.76,406.28 C308.55,404.97 310.46,404.17 311.01,404.51 C311.56,404.85 312.27,404.46 312.58,403.64 C312.90,402.82 314.83,401.49 316.87,400.67 C321.66,398.75 326.52,393.78 329.70,387.56 C331.98,383.10 332.18,381.75 331.80,373.56 C331.30,362.99 329.99,359.92 321.42,349.16 C315.74,342.03 313.41,340.74 310.82,343.32 C310.09,344.04 308.24,345.45 306.71,346.46 C304.86,347.67 304.02,348.99 304.21,350.39 C304.47,352.30 304.08,352.47 300.00,352.19 C294.45,351.82 283.81,354.22 274.36,358.00 C267.33,360.81 252.29,369.63 246.59,374.29 C243.89,376.50 243.77,376.89 244.83,379.95 C245.95,383.16 245.68,385.00 244.08,385.00 C243.63,385.00 242.47,382.91 241.49,380.35 C240.52,377.79 238.15,373.96 236.24,371.85 C233.35,368.65 232.12,368.00 228.91,368.00 C225.91,368.00 224.69,368.55 223.44,370.46 C222.55,371.81 222.10,373.35 222.43,373.89 C222.76,374.42 222.64,375.10 222.16,375.40 C221.42,375.86 221.35,380.82 221.91,393.80 C221.98,395.29 222.43,395.85 223.18,395.39 C223.97,394.90 224.13,395.23 223.67,396.41 C223.31,397.36 223.50,399.07 224.10,400.19 C224.89,401.67 224.89,402.05 224.11,401.57 C223.35,401.10 223.16,402.35 223.49,405.61 C224.15,412.16 224.94,414.24 226.54,413.62 C227.48,413.26 227.70,413.62 227.26,414.80 C226.69,416.33 226.81,416.35 228.46,415.01 C230.16,413.62 230.23,413.69 229.54,415.88 C229.04,417.46 229.14,418.03 229.85,417.60 C230.43,417.23 231.84,417.74 232.97,418.72 C234.11,419.70 236.27,420.79 237.77,421.14 ZM 204.20 83.36 C202.10,84.81 200.19,85.99 199.95,85.98 C199.59,85.97 193.60,82.43 192.13,81.36 C191.92,81.21 191.56,77.58 191.31,73.29 C190.90,66.08 190.61,65.24 187.49,62.00 C183.34,57.69 182.00,54.29 182.00,48.08 C182.00,39.01 188.37,32.80 198.26,32.23 C206.35,31.76 212.46,34.65 215.73,40.50 C219.75,47.69 218.44,55.23 211.86,62.78 C210.08,64.83 208.96,67.28 208.90,69.28 C208.85,71.05 208.71,73.40 208.59,74.50 C208.47,75.60 208.29,77.45 208.18,78.61 C208.08,79.80 206.33,81.88 204.20,83.36 ZM 275.25 134.02 C275.93,135.12 276.65,135.55 276.84,134.97 C277.08,134.26 277.65,134.30 278.60,135.08 C279.61,135.92 280.00,135.93 280.00,135.12 C280.00,134.51 280.59,134.00 281.31,134.00 C282.04,134.00 283.90,132.67 285.45,131.05 C287.01,129.42 288.56,128.13 288.89,128.17 C291.23,128.44 292.01,127.61 292.08,124.75 C292.12,122.96 292.41,122.14 292.72,122.93 C293.03,123.71 294.09,121.26 295.08,117.47 C297.23,109.18 296.53,103.98 292.07,95.14 C286.50,84.11 277.68,79.41 264.01,80.21 C255.20,80.72 249.51,83.37 244.14,89.49 C240.57,93.56 236.71,100.64 237.23,102.19 C237.42,102.76 239.81,104.09 242.54,105.13 L 247.50 107.03 L 249.00 104.81 C254.23,97.05 259.06,94.00 266.12,94.00 C276.71,94.00 283.08,99.72 283.77,109.84 C284.25,116.88 282.27,121.90 277.51,125.70 C273.79,128.67 273.22,130.77 275.25,134.02 ZM 113.27 131.27 C117.39,137.64 117.61,137.81 121.78,137.82 C125.29,137.83 126.37,137.37 127.75,135.26 C129.35,132.82 129.34,132.62 127.60,131.59 C117.87,125.83 114.63,120.63 115.24,111.74 C115.89,102.18 121.24,96.90 130.99,96.19 C138.67,95.64 141.93,97.01 147.43,103.13 C149.84,105.81 152.30,108.00 152.90,108.00 C155.50,108.00 162.00,104.40 162.00,102.95 C162.00,99.89 158.07,93.29 154.12,89.73 C147.23,83.50 144.52,82.51 134.50,82.51 C126.67,82.52 124.83,82.87 120.39,85.20 C113.69,88.73 106.59,96.71 104.46,103.11 C102.40,109.31 102.85,119.71 105.42,125.50 C107.14,129.38 107.22,129.43 108.11,127.11 C108.99,124.84 109.25,125.06 113.27,131.27 ZM 192.96 66.40 C193.51,67.83 194.69,69.00 195.60,69.00 C197.02,69.00 197.16,68.25 196.57,63.83 C195.83,58.25 194.50,55.00 192.96,55.00 C192.43,55.00 192.00,54.10 192.00,53.00 C192.00,50.74 193.94,50.37 195.93,52.25 C196.99,53.25 197.34,53.25 197.71,52.25 C198.24,50.80 201.00,50.54 201.00,51.94 C201.00,52.45 202.57,52.62 204.50,52.31 C208.55,51.65 208.88,52.61 205.91,56.39 C204.56,58.10 203.76,60.68 203.66,63.67 C203.46,69.36 205.33,70.43 207.41,65.82 C208.24,63.99 210.37,60.58 212.15,58.23 C216.14,52.97 216.67,45.71 213.38,41.31 C206.21,31.70 192.70,31.60 186.16,41.10 C182.61,46.27 183.45,53.40 188.32,59.34 C190.33,61.80 192.42,64.98 192.96,66.40 ZM 126.41 128.11 C128.11,129.14 129.81,129.99 130.20,130.00 C130.58,130.00 132.16,128.31 133.70,126.25 C136.73,122.18 140.50,118.39 145.96,113.88 L 149.46 111.00 L 147.53 107.43 C142.55,98.18 129.13,95.67 121.87,102.62 C114.44,109.74 116.65,122.16 126.41,128.11 ZM 263.38 119.60 C267.30,123.50 271.04,126.77 271.70,126.85 C273.27,127.05 279.96,120.17 281.11,117.18 C283.71,110.42 280.71,101.19 274.97,98.28 C271.55,96.55 263.50,96.69 259.93,98.54 C258.30,99.38 255.59,101.97 253.91,104.28 L 250.86 108.50 L 253.56 110.50 C255.04,111.60 259.46,115.69 263.38,119.60 ZM 192.16 209.00 C187.52,212.36 187.37,212.41 186.47,210.96 C185.61,209.56 187.66,207.22 191.43,205.29 C193.12,204.43 194.84,203.22 195.26,202.61 C196.71,200.50 194.85,196.60 190.43,192.49 C182.15,184.78 185.45,179.56 198.59,179.56 C204.29,179.56 206.30,179.96 207.93,181.43 C211.24,184.43 210.45,187.00 204.50,192.63 C198.08,198.70 197.53,201.30 202.14,203.80 C203.86,204.73 206.45,206.48 207.89,207.68 C210.15,209.56 210.28,209.94 208.82,210.51 C207.79,210.91 205.65,210.16 203.33,208.58 C198.49,205.29 197.21,205.34 192.16,209.00 ZM 229.25 168.85 C223.50,175.65 212.38,167.97 216.48,160.03 C217.80,157.49 217.75,157.09 215.96,155.47 C213.83,153.54 213.30,150.00 215.14,150.00 C215.77,150.00 216.80,150.72 217.45,151.60 C218.38,152.87 220.47,153.17 227.90,153.09 C237.83,152.99 239.21,153.29 238.39,155.43 C238.02,156.39 236.72,156.64 233.98,156.27 C231.84,155.98 229.32,156.05 228.37,156.41 C226.83,157.00 226.87,157.22 228.83,158.59 C231.53,160.49 231.75,165.89 229.25,168.85 ZM 168.37 169.93 C165.19,172.42 163.38,172.49 159.75,170.24 C156.24,168.06 155.12,163.00 157.38,159.54 C158.86,157.29 158.86,157.02 157.35,156.18 C153.69,154.13 157.22,152.97 166.76,153.09 C174.53,153.19 176.60,152.90 177.55,151.61 C179.11,149.46 180.00,149.58 180.00,151.93 C180.00,155.01 177.21,157.00 172.89,157.00 C169.28,157.00 169.02,157.17 169.96,158.93 C171.95,162.64 171.21,167.69 168.37,169.93 ZM 198.69 68.25 C199.83,70.24 200.88,68.45 201.87,62.86 C203.10,55.85 202.84,55.00 199.39,55.00 C196.93,55.00 196.91,55.07 197.58,61.25 C197.96,64.69 198.45,67.84 198.69,68.25 ZM 329.00 416.50 C328.43,416.15 326.63,416.54 324.99,417.36 C320.50,419.60 321.41,417.92 326.66,414.29 C330.35,411.74 331.68,411.29 333.20,412.11 C335.02,413.08 334.99,413.22 332.56,415.13 C331.16,416.23 329.56,416.85 329.00,416.50 ZM 236.25 45.37 C228.70,46.81 225.15,47.06 224.61,46.17 C224.10,45.36 233.93,43.00 237.83,43.00 C240.17,43.00 238.93,44.85 236.25,45.37 ZM 174.46 46.07 C173.80,47.13 173.44,47.12 166.25,45.80 C159.27,44.53 159.27,42.59 166.25,43.48 C173.26,44.37 175.14,44.96 174.46,46.07 ZM 201.00 18.00 C201.00,22.00 200.57,25.00 200.00,25.00 C199.43,25.00 199.00,22.00 199.00,18.00 C199.00,14.00 199.43,11.00 200.00,11.00 C200.57,11.00 201.00,14.00 201.00,18.00 ZM 78.75 407.68 C77.51,408.79 75.63,410.01 74.56,410.39 C72.63,411.08 72.63,411.06 74.55,408.94 C76.68,406.59 82.63,403.17 81.55,404.92 C80.43,406.73 82.49,406.13 84.81,403.96 C86.02,402.84 87.00,402.36 87.00,402.89 C87.00,403.43 85.65,404.83 84.00,406.00 C82.09,407.36 81.00,407.69 81.00,406.89 C81.00,406.14 80.12,406.44 78.75,407.68 ZM 222.21 26.30 C220.12,28.33 218.10,30.00 217.71,30.00 C216.09,30.00 217.25,28.17 221.50,24.00 C224.22,21.33 226.00,20.18 226.00,21.09 C226.00,21.92 224.29,24.26 222.21,26.30 ZM 180.00 25.00 C184.39,30.55 183.25,32.28 178.70,26.96 C176.67,24.59 175.00,22.27 175.00,21.82 C175.00,19.95 177.02,21.24 180.00,25.00 ZM 217.39 428.00 C216.99,428.00 215.83,428.74 214.83,429.65 C213.82,430.57 213.02,430.90 213.06,430.40 C213.09,429.91 214.43,428.46 216.04,427.19 C218.14,425.53 219.42,425.14 220.60,425.80 C222.07,426.62 222.02,426.87 220.13,428.20 C218.96,429.01 218.35,430.05 218.76,430.50 C219.17,430.95 218.93,430.99 218.23,430.59 C217.54,430.19 217.23,429.44 217.54,428.93 C217.86,428.42 217.79,428.00 217.39,428.00 ZM 174.68 63.89 C171.09,66.11 169.00,66.57 169.00,65.15 C169.00,64.08 176.83,60.50 177.56,61.23 C177.86,61.53 176.57,62.72 174.68,63.89 ZM 195.00 76.00 C195.00,77.21 202.69,77.21 205.50,76.00 C206.91,75.39 205.67,75.12 201.25,75.07 C197.70,75.03 195.00,75.43 195.00,76.00 ZM 230.00 64.66 C230.00,64.73 230.00,64.79 230.00,64.86 C230.00,65.35 230.00,65.68 229.85,65.79 C229.55,66.02 228.66,65.47 226.04,63.86 C225.87,63.75 225.69,63.64 225.50,63.53 C223.12,62.06 222.19,61.05 223.20,61.03 C225.88,60.98 230.00,63.18 230.00,64.66 Z" fill="rgb(10,12,25)"/>
<path d="M 184.77 422.45 C184.49,422.17 174.79,420.84 171.82,420.67 C170.90,420.62 170.35,420.25 170.60,419.85 C170.84,419.45 170.25,419.10 169.27,419.07 C159.43,418.81 153.29,418.30 152.25,417.66 C151.54,417.22 151.00,417.35 151.00,417.98 C151.00,418.69 150.40,418.76 149.25,418.17 C148.29,417.68 146.87,417.49 146.11,417.76 C145.18,418.10 144.98,417.84 145.52,416.98 C146.02,416.15 145.91,415.94 145.20,416.38 C144.59,416.75 142.46,416.38 140.48,415.55 C138.49,414.72 136.56,414.13 136.18,414.24 C135.81,414.34 134.43,413.83 133.13,413.11 C131.83,412.39 131.02,412.23 131.35,412.76 C131.67,413.28 129.40,412.88 126.31,411.85 C123.21,410.83 120.44,410.22 120.17,410.50 C119.89,410.78 118.56,410.28 117.21,409.40 C115.86,408.52 115.04,408.26 115.39,408.82 C116.39,410.43 107.78,406.88 105.09,404.57 C103.76,403.43 103.04,403.13 103.49,403.90 C104.10,404.95 103.95,405.08 102.90,404.43 C102.13,403.95 100.88,403.46 100.11,403.35 C97.48,402.95 90.92,395.51 88.35,390.01 C87.93,389.12 87.55,388.15 87.20,387.12 C88.66,390.90 90.94,394.26 94.31,397.75 C96.57,400.09 98.51,402.00 98.62,402.00 C98.73,402.00 97.27,398.96 95.39,395.25 C87.63,379.96 88.67,365.48 98.42,352.90 L 102.76 347.31 L 102.26 333.40 C101.91,323.92 101.33,319.02 100.43,317.98 C99.70,317.14 98.66,315.34 98.12,313.98 C97.40,312.19 97.11,316.22 97.05,328.50 L 96.97 345.50 L 96.99 328.42 C96.99,319.02 97.29,311.04 97.65,310.68 C98.58,309.75 101.34,315.14 101.92,319.01 C101.97,319.29 102.95,320.11 104.10,320.83 C105.85,321.92 106.09,321.92 105.49,320.82 C105.10,320.10 105.94,320.85 107.35,322.50 C108.77,324.15 109.94,325.09 109.96,324.60 C109.98,324.10 110.79,324.38 111.75,325.21 C112.71,326.05 114.85,326.65 116.50,326.53 C118.15,326.42 120.07,326.76 120.77,327.30 C121.74,328.05 121.88,327.83 121.35,326.39 C120.68,324.55 120.72,324.55 122.77,326.35 C123.93,327.36 125.32,327.92 125.87,327.58 C126.41,327.24 127.19,327.49 127.59,328.14 C128.08,328.93 127.86,329.05 126.90,328.49 C126.13,328.05 125.85,328.06 126.28,328.53 C127.40,329.76 131.24,330.20 130.51,329.01 C130.16,328.44 130.56,328.28 131.45,328.62 C132.33,328.96 133.00,328.68 133.00,327.98 C133.00,327.03 133.34,327.03 134.52,328.02 C135.77,329.06 135.95,329.03 135.50,327.86 C135.15,326.96 135.61,326.40 136.73,326.36 C137.70,326.33 140.52,325.95 143.00,325.53 C145.48,325.11 148.62,324.70 150.00,324.62 C152.74,324.47 163.71,319.40 165.82,317.31 C166.55,316.59 167.74,316.00 168.46,316.00 C169.19,316.00 170.03,315.36 170.33,314.58 C170.63,313.80 173.04,311.90 175.69,310.37 C178.33,308.83 181.68,306.34 183.12,304.82 C184.56,303.31 185.95,302.28 186.20,302.53 C186.46,302.79 187.27,301.87 188.00,300.50 C188.74,299.12 189.91,298.00 190.60,298.00 C191.30,298.00 192.14,297.14 192.47,296.09 C192.80,295.04 193.73,293.93 194.54,293.62 C195.34,293.32 196.00,292.37 196.00,291.53 C196.00,290.69 196.45,290.00 197.00,290.00 C197.55,290.00 198.00,289.28 198.00,288.41 C198.00,287.54 198.92,286.07 200.04,285.16 C201.16,284.25 202.71,281.70 203.49,279.50 C204.27,277.30 204.94,275.95 204.97,276.50 C205.00,277.05 206.17,275.04 207.57,272.03 C209.76,267.32 210.14,265.00 210.31,255.53 C210.47,246.03 210.20,243.88 208.34,240.02 L 206.18 235.53 L 210.09 231.29 C212.62,228.54 213.89,226.21 213.99,223.95 C214.12,226.54 213.41,229.22 212.00,230.50 C210.90,231.50 210.00,232.73 210.00,233.24 C210.00,234.51 216.77,230.36 220.84,226.59 C226.72,221.14 228.24,216.91 227.83,207.11 C227.53,199.86 226.94,197.35 224.08,191.22 C218.58,179.46 209.76,173.06 199.00,173.03 C186.98,172.99 179.57,177.58 173.91,188.56 C168.27,199.50 166.22,216.00 170.51,216.00 C171.61,216.00 174.20,217.90 176.34,219.95 C174.47,218.34 172.14,217.01 170.23,216.65 C166.64,215.98 163.08,218.46 162.91,221.75 C162.86,222.71 162.74,227.10 162.63,231.50 C162.41,240.82 161.11,243.82 154.12,251.06 C148.49,256.91 144.46,257.67 141.18,253.50 C139.37,251.20 137.00,250.14 137.00,251.63 C137.00,251.98 137.98,253.84 139.17,255.77 C141.24,259.13 141.26,259.34 139.53,260.60 C138.54,261.32 135.32,262.46 132.37,263.12 C129.41,263.78 127.00,264.68 127.00,265.11 C127.00,265.55 128.67,266.22 130.71,266.61 C131.73,266.80 132.79,266.87 133.89,266.85 C130.96,267.13 129.30,267.67 129.65,268.25 C130.02,268.84 132.67,269.04 136.06,268.73 C144.03,268.01 152.66,263.22 159.70,255.61 C167.78,246.88 169.53,242.53 169.29,231.75 C169.13,224.21 169.33,223.00 170.75,223.00 C172.00,223.00 172.12,222.72 171.24,221.84 C170.94,221.54 170.67,221.34 170.39,221.25 C172.22,221.13 174.15,223.12 175.71,226.86 C177.14,230.27 177.90,230.80 186.64,227.53 C183.36,228.81 180.45,229.94 179.24,230.41 C177.45,231.09 176.29,231.95 176.66,232.32 C176.85,232.52 176.94,232.69 177.07,232.78 C177.47,233.07 178.32,232.72 183.75,230.51 C184.57,230.17 185.50,229.79 186.56,229.36 C191.48,227.36 198.43,224.92 202.00,223.95 C208.15,222.28 208.28,222.18 204.50,222.12 C202.52,222.10 198.35,223.13 193.92,224.71 C205.21,220.33 208.36,220.26 208.81,224.20 C209.06,226.38 208.33,227.47 204.96,229.91 C202.67,231.57 199.92,233.21 198.84,233.55 C196.29,234.36 196.87,237.41 199.65,237.80 C201.13,238.02 202.30,239.49 203.52,242.69 C207.22,252.39 203.81,266.35 194.19,280.83 C183.37,297.13 171.63,307.84 157.00,314.77 C147.69,319.18 142.41,320.25 131.83,319.84 C116.13,319.23 107.18,313.78 100.42,300.71 C99.98,299.86 99.56,299.00 99.16,298.14 C101.03,302.03 103.40,305.56 106.19,308.59 C110.83,313.62 112.06,314.26 109.42,310.25 C95.71,289.47 95.92,264.20 110.10,228.60 C112.53,222.49 116.05,210.01 119.01,197.00 C133.58,132.94 142.09,119.95 177.50,107.73 C184.11,105.45 186.47,104.45 185.16,104.44 C191.01,103.74 197.34,103.46 204.25,103.60 C245.25,104.39 265.52,118.52 277.30,154.50 C282.47,170.28 284.01,175.78 288.83,195.50 C293.66,215.24 296.41,223.31 303.32,238.00 C313.20,258.99 319.00,279.56 319.00,293.62 C319.00,302.02 317.30,313.93 315.89,315.45 C315.40,315.97 315.00,317.33 315.00,318.46 C315.00,319.59 314.10,321.08 313.00,321.77 C311.90,322.45 311.00,323.47 311.00,324.03 C311.00,324.58 309.88,326.82 308.50,329.00 C307.12,331.18 306.00,333.58 306.00,334.33 C306.00,337.07 296.72,344.76 294.25,344.07 C294.11,344.03 293.13,344.87 292.06,345.94 C290.99,347.01 288.18,348.40 285.81,349.04 C283.44,349.67 278.35,351.30 274.50,352.65 C273.86,352.88 273.25,353.09 272.68,353.29 C266.43,355.50 264.57,356.15 264.12,355.62 C263.93,355.40 264.00,354.95 264.10,354.32 C264.12,354.18 264.14,354.04 264.16,353.89 C264.71,350.00 261.74,351.03 259.50,355.50 C257.09,360.32 256.30,360.96 252.77,360.98 C250.66,361.00 249.89,360.41 249.39,358.43 C249.04,357.01 249.25,354.74 249.87,353.38 C250.49,352.02 251.00,349.99 251.00,348.88 C251.00,345.29 247.66,347.21 245.98,351.77 C243.83,357.58 242.00,355.60 242.00,347.48 C242.00,345.85 242.07,344.36 242.24,342.93 C242.13,344.06 242.09,345.22 242.12,346.43 L 242.24 351.50 L 243.10 345.60 C244.22,337.99 246.44,333.62 255.14,322.00 C268.00,304.83 273.12,290.51 271.01,277.59 C270.49,274.36 269.82,271.49 269.53,271.20 C269.24,270.91 268.99,274.90 268.99,280.08 C268.99,280.70 268.98,281.31 268.97,281.91 C268.78,275.18 267.20,267.00 265.99,267.00 C265.53,267.00 264.94,270.49 264.68,274.75 C264.11,284.05 263.31,288.45 261.42,292.65 C260.64,294.38 260.00,296.28 260.00,296.87 C260.00,297.84 259.20,299.42 254.84,307.09 C254.10,308.39 252.96,309.92 252.31,310.48 C251.65,311.04 249.46,314.65 247.44,318.50 C245.42,322.35 243.01,326.62 242.09,328.00 C241.16,329.38 238.93,333.60 237.12,337.39 L 233.84 344.28 L 236.54 351.89 C238.02,356.08 239.54,359.73 239.92,360.00 C240.30,360.27 241.59,362.12 242.80,364.11 L 244.99 367.72 L 241.68 367.46 C239.86,367.31 236.82,366.25 234.93,365.10 C233.01,363.93 229.79,363.01 227.62,363.00 C224.47,363.00 223.11,363.67 220.41,366.52 C217.17,369.96 217.07,369.99 215.97,367.94 C214.45,365.11 208.69,362.80 205.24,363.63 C202.04,364.40 194.65,368.16 194.16,369.26 C193.98,369.67 193.31,369.68 192.66,369.28 C192.02,368.88 191.05,368.48 190.50,368.38 C187.73,367.88 184.00,365.92 184.00,364.97 C184.00,364.37 183.60,364.13 183.10,364.44 C182.61,364.74 181.97,364.37 181.68,363.60 C181.24,362.47 170.71,356.56 169.00,356.49 C168.73,356.48 167.82,356.03 167.00,355.49 C165.59,354.57 160.82,353.31 149.77,350.93 C143.96,349.68 128.41,350.10 128.73,351.50 C128.86,352.05 132.01,352.75 135.73,353.06 C142.97,353.65 148.95,354.90 155.86,357.63 C153.63,356.80 151.47,356.14 149.19,355.55 C140.95,353.41 137.03,353.72 144.11,355.95 C151.05,358.13 164.06,364.74 178.47,373.39 C187.71,378.95 189.57,379.73 190.31,378.42 C190.44,378.18 190.55,377.96 190.64,377.74 C191.48,378.94 191.18,379.77 190.00,380.50 C188.75,381.27 188.67,386.00 189.90,386.00 C190.40,386.00 192.19,383.64 193.87,380.75 C194.85,379.08 195.76,377.62 196.63,376.35 C195.99,377.40 195.29,378.67 194.46,380.25 C193.09,382.86 192.19,385.00 192.46,385.00 C192.73,385.00 193.66,383.62 194.53,381.94 C195.40,380.26 197.72,377.11 199.67,374.94 C202.67,371.62 203.85,371.00 207.18,371.00 C209.55,371.00 210.87,370.60 210.50,370.00 C209.53,368.43 204.69,368.83 201.97,370.70 C201.30,371.17 200.71,371.61 200.17,372.06 C202.50,369.86 204.79,369.00 207.60,369.00 C211.86,369.00 213.26,371.04 213.41,377.45 C213.47,380.43 213.86,383.19 214.26,383.60 C215.33,384.66 215.17,386.22 214.07,385.54 C213.52,385.21 213.29,386.66 213.50,389.00 C213.74,391.61 213.50,392.81 212.84,392.40 C212.20,392.00 212.24,392.57 212.94,393.88 C213.72,395.35 213.74,396.00 213.00,396.00 C212.25,396.00 212.26,396.63 213.04,398.08 C214.06,399.99 213.98,400.06 212.00,399.00 C209.89,397.87 209.88,397.89 211.56,400.44 C213.16,402.89 213.16,403.00 211.51,402.37 C210.06,401.81 209.89,402.08 210.49,403.97 C210.99,405.53 210.86,406.03 210.11,405.57 C208.72,404.71 208.70,405.57 210.04,408.07 C210.72,409.34 210.73,410.00 210.07,410.00 C209.51,410.00 209.31,410.64 209.61,411.42 C210.37,413.41 208.12,417.26 206.55,416.66 C205.84,416.38 204.65,417.29 203.91,418.66 C202.78,420.79 201.99,421.11 198.79,420.81 C196.70,420.61 195.00,420.83 195.00,421.29 C195.00,421.76 194.10,421.85 193.00,421.50 C191.90,421.15 191.00,421.23 191.00,421.68 C191.00,422.41 185.44,423.10 184.77,422.45 ZM 237.77 421.14 C236.27,420.79 234.11,419.70 232.97,418.72 C231.84,417.74 230.43,417.23 229.85,417.60 C229.14,418.03 229.04,417.46 229.54,415.88 C230.23,413.69 230.16,413.62 228.46,415.01 C226.81,416.35 226.69,416.33 227.26,414.80 C227.70,413.62 227.48,413.26 226.54,413.62 C224.94,414.24 224.15,412.16 223.49,405.61 C223.16,402.35 223.35,401.10 224.11,401.57 C224.89,402.05 224.89,401.67 224.10,400.19 C223.50,399.07 223.31,397.36 223.67,396.41 C224.13,395.23 223.97,394.90 223.18,395.39 C222.43,395.85 221.98,395.29 221.91,393.80 C221.35,380.82 221.42,375.86 222.16,375.40 C222.64,375.10 222.76,374.42 222.43,373.89 C222.10,373.35 222.55,371.81 223.44,370.46 C224.62,368.66 225.77,368.07 228.42,368.01 C226.39,368.11 224.00,369.69 224.00,370.98 C224.00,371.29 225.75,371.39 227.88,371.18 C231.09,370.88 232.34,371.34 235.13,373.88 C239.10,377.49 239.40,377.61 238.06,375.11 C236.44,372.09 231.13,368.07 228.69,368.00 C228.76,368.00 228.83,368.00 228.91,368.00 C232.12,368.00 233.35,368.65 236.24,371.85 C238.15,373.96 240.52,377.79 241.49,380.35 C242.47,382.91 243.63,385.00 244.08,385.00 C245.68,385.00 245.95,383.16 244.83,379.95 C244.51,379.04 244.30,378.37 244.23,377.81 C244.84,378.44 247.70,376.79 253.28,372.65 C265.53,363.57 274.69,359.07 289.29,354.97 L 296.50 352.95 L 290.95 353.46 C289.06,353.63 287.07,353.96 285.01,354.44 C290.98,352.82 296.50,351.95 300.00,352.19 C304.08,352.47 304.47,352.30 304.21,350.39 C304.02,348.99 304.86,347.67 306.71,346.46 C308.24,345.45 310.09,344.04 310.82,343.32 C313.41,340.74 315.74,342.03 321.42,349.16 C329.99,359.92 331.30,362.99 331.80,373.56 C332.18,381.75 331.98,383.10 329.70,387.56 C326.52,393.78 321.66,398.75 316.87,400.67 C314.83,401.49 312.90,402.82 312.58,403.64 C312.27,404.46 311.56,404.85 311.01,404.51 C310.46,404.17 308.55,404.97 306.76,406.28 C304.64,407.84 302.37,408.60 300.27,408.46 C298.45,408.33 296.53,408.86 295.86,409.67 C295.20,410.46 293.73,411.61 292.58,412.22 C290.71,413.22 290.64,413.16 291.87,411.66 C294.09,408.98 292.05,409.75 288.35,413.00 C286.47,414.65 284.31,416.00 283.55,416.00 C282.79,416.00 281.38,416.30 280.42,416.67 C279.09,417.18 278.88,417.00 279.55,415.92 C280.16,414.93 279.59,415.04 277.70,416.28 C276.20,417.26 273.52,417.99 271.74,417.90 C269.96,417.81 267.60,418.07 266.50,418.46 C264.90,419.04 264.80,418.97 266.00,418.11 C266.83,417.52 267.04,417.02 266.47,417.02 C265.91,417.01 264.44,417.70 263.22,418.56 C261.74,419.59 261.00,419.72 261.00,418.94 C261.00,418.18 260.09,418.37 258.41,419.47 C255.65,421.28 242.82,422.31 237.77,421.14 ZM 275.25 134.02 C273.22,130.77 273.79,128.67 277.51,125.70 C282.27,121.90 284.25,116.88 283.77,109.84 C283.08,99.72 276.71,94.00 266.12,94.00 C259.06,94.00 254.23,97.05 249.00,104.81 L 247.50 107.03 L 242.54 105.13 C241.50,104.73 240.51,104.29 239.67,103.87 C240.63,103.57 241.70,102.56 242.53,100.94 C245.16,95.85 251.08,90.00 256.44,87.19 C260.68,84.97 262.80,84.54 269.54,84.52 C276.43,84.50 278.37,84.90 283.04,87.32 L 288.50 90.14 L 285.08 86.59 C283.01,84.45 280.62,82.87 277.78,81.80 C284.01,83.99 288.66,88.38 292.07,95.14 C296.53,103.98 297.23,109.18 295.08,117.47 C294.09,121.26 293.03,123.71 292.72,122.93 C292.41,122.14 292.12,122.96 292.08,124.75 C292.01,127.61 291.23,128.44 288.89,128.17 C288.56,128.13 287.01,129.42 285.45,131.05 C283.90,132.67 282.04,134.00 281.31,134.00 C280.59,134.00 280.00,134.51 280.00,135.12 C280.00,135.93 279.61,135.92 278.60,135.08 C277.65,134.30 277.08,134.26 276.84,134.97 C276.65,135.55 275.93,135.12 275.25,134.02 ZM 113.27 131.27 C109.25,125.06 108.99,124.84 108.11,127.11 C107.76,128.04 107.53,128.59 107.27,128.67 C107.40,127.48 107.50,123.25 107.50,118.25 C107.51,105.86 108.95,101.99 115.88,95.73 C126.93,85.74 141.18,84.55 153.15,92.60 C155.97,94.50 158.52,95.81 158.82,95.51 C158.84,95.49 158.86,95.47 158.87,95.45 C160.71,98.29 162.00,101.20 162.00,102.95 C162.00,104.40 155.50,108.00 152.90,108.00 C152.30,108.00 149.84,105.81 147.43,103.13 C141.93,97.01 138.67,95.64 130.99,96.19 C121.24,96.90 115.89,102.18 115.24,111.74 C114.63,120.63 117.87,125.83 127.60,131.59 C129.34,132.62 129.35,132.82 127.75,135.26 C126.37,137.37 125.29,137.83 121.78,137.82 C117.61,137.81 117.39,137.64 113.27,131.27 ZM 219.48 175.75 C223.89,179.86 229.88,180.23 235.09,176.72 C241.26,172.56 242.61,166.69 238.72,160.90 C236.78,158.02 235.76,157.45 232.00,157.18 C227.70,156.87 227.62,156.92 229.28,158.76 C229.69,159.21 230.03,159.76 230.29,160.37 C229.93,159.64 229.44,159.02 228.83,158.59 C226.87,157.22 226.83,157.00 228.37,156.41 C229.32,156.05 231.84,155.98 233.98,156.27 C236.72,156.64 238.02,156.39 238.39,155.43 C239.21,153.29 237.83,152.99 227.90,153.09 C220.47,153.17 218.38,152.87 217.45,151.60 C216.80,150.72 215.77,150.00 215.14,150.00 C213.30,150.00 213.83,153.54 215.96,155.47 C217.75,157.09 217.80,157.49 216.48,160.03 C214.75,163.39 215.73,166.70 217.88,168.88 C217.47,168.51 217.06,168.09 216.67,167.63 C214.84,165.51 214.84,165.51 215.41,169.00 C215.78,171.22 217.27,173.69 219.48,175.75 ZM 162.27 178.52 C166.22,180.23 168.04,180.31 171.68,178.93 C177.88,176.58 181.12,170.62 179.57,164.42 C178.68,160.87 174.79,157.21 171.77,157.01 C172.10,157.00 172.48,157.00 172.89,157.00 C177.21,157.00 180.00,155.01 180.00,151.93 C180.00,149.58 179.11,149.46 177.55,151.61 C176.60,152.90 174.53,153.19 166.76,153.09 C157.22,152.97 153.69,154.13 157.35,156.18 C158.86,157.02 158.86,157.29 157.38,159.54 C155.29,162.73 156.08,167.28 158.97,169.68 C158.54,169.35 158.11,168.98 157.67,168.57 C155.00,166.10 155.00,166.10 155.00,168.30 C155.01,171.75 158.72,176.98 162.27,178.52 ZM 188.26 429.00 C188.73,429.00 188.78,429.56 188.37,430.25 C187.94,430.97 188.40,430.86 189.46,430.00 C190.47,429.17 192.70,428.39 194.40,428.26 C194.85,428.23 195.28,428.19 195.69,428.15 C195.49,428.30 195.17,428.54 194.75,428.87 C193.79,429.63 193.00,430.41 193.00,430.62 C193.00,431.45 193.82,430.92 195.13,429.25 C195.57,428.68 195.85,428.31 195.96,428.13 C200.04,427.76 202.00,427.33 202.65,426.69 C203.02,426.31 203.91,426.00 204.62,426.00 C205.32,426.00 207.16,424.81 208.70,423.36 C212.73,419.57 219.24,414.91 219.78,415.44 C220.03,415.69 218.94,417.05 217.37,418.45 C215.37,420.23 215.08,420.80 216.41,420.33 C217.74,419.87 218.10,420.02 217.61,420.83 C217.07,421.69 217.56,421.74 219.51,421.00 C223.69,419.41 224.51,419.82 222.16,422.33 L 219.97 424.66 L 222.55 425.84 C224.03,426.52 224.86,426.59 224.50,426.01 C224.16,425.45 224.39,425.00 225.00,425.00 C225.61,425.00 225.84,424.55 225.50,424.00 C224.58,422.51 227.65,422.79 229.19,424.33 C229.92,425.06 230.98,425.51 231.55,425.32 C232.12,425.13 233.45,425.61 234.50,426.38 C236.22,427.63 236.27,427.98 234.96,429.64 C233.65,431.31 233.66,431.37 235.09,430.26 C235.97,429.58 237.00,429.34 237.39,429.73 C237.79,430.12 237.81,429.67 237.45,428.72 C236.90,427.30 237.38,427.00 240.14,427.02 L 241.98 427.03 C241.20,427.15 239.92,428.10 239.02,429.25 C237.65,430.98 236.30,431.47 233.12,431.38 C226.61,431.18 226.56,431.15 228.50,429.00 C231.00,426.24 232.76,426.47 230.41,429.25 C228.70,431.28 228.79,431.26 231.26,429.08 C232.77,427.74 234.00,426.60 234.00,426.54 C234.00,426.48 233.11,426.36 232.02,426.28 C230.94,426.19 228.82,427.43 227.31,429.03 C225.29,431.17 223.97,431.78 222.27,431.35 C221.01,431.04 219.42,431.22 218.74,431.75 C217.12,433.03 214.00,432.95 214.00,431.63 C214.00,431.01 213.52,431.08 212.80,431.80 C212.14,432.46 211.13,432.99 210.55,432.98 C209.97,432.98 210.16,432.55 210.97,432.04 C211.78,431.53 212.12,430.79 211.73,430.39 C211.33,430.00 210.03,430.54 208.83,431.59 C207.64,432.64 206.99,432.94 207.39,432.25 C208.19,430.88 206.96,430.56 205.45,431.75 C204.93,432.16 205.40,431.55 206.50,430.40 C207.60,429.24 208.66,428.70 208.85,429.19 C209.04,429.68 209.83,429.56 210.60,428.92 C211.67,428.03 212.00,428.04 212.00,428.96 C212.00,429.63 213.80,428.74 216.00,427.00 C218.21,425.25 219.75,423.41 219.44,422.91 C219.13,422.40 217.79,423.29 216.45,424.87 C214.12,427.65 208.16,429.20 209.72,426.62 C210.09,426.01 208.73,426.76 206.70,428.30 C204.66,429.84 203.00,430.78 203.00,430.40 C203.00,430.01 202.10,430.50 201.00,431.50 C199.90,432.50 199.00,432.83 199.00,432.24 C199.00,431.65 200.24,430.20 201.75,429.01 C203.26,427.82 203.82,427.18 203.00,427.58 C202.18,427.98 200.67,429.02 199.65,429.90 C198.63,430.78 196.03,431.56 193.87,431.64 C190.37,431.76 190.08,431.60 191.20,430.14 C192.17,428.89 191.96,428.93 190.34,430.31 C188.76,431.65 186.91,432.04 183.11,431.81 C177.66,431.48 177.29,431.21 179.25,428.98 C179.94,428.19 179.56,428.33 178.42,429.28 C175.73,431.51 174.37,431.49 176.13,429.25 C177.40,427.63 177.36,427.61 175.60,429.00 C173.73,430.47 167.00,431.28 167.00,430.03 C167.00,429.69 167.56,428.76 168.25,427.98 C168.94,427.19 168.56,427.33 167.42,428.28 C164.77,430.48 163.34,430.51 165.13,428.33 C166.40,426.77 166.32,426.76 164.00,428.21 C162.62,429.06 160.38,429.61 159.00,429.41 C156.34,429.04 146.68,427.97 143.75,427.72 C142.79,427.64 142.00,427.25 142.00,426.85 C142.00,426.46 140.77,426.36 139.27,426.63 L 136.54 427.12 L 138.89 424.61 L 140.93 422.45 C143.54,422.51 146.23,422.91 147.16,423.60 C147.90,424.15 150.18,424.57 152.24,424.53 C155.55,424.48 155.91,424.71 155.36,426.49 C154.77,428.38 154.85,428.40 156.62,426.87 C157.65,425.98 159.40,425.43 160.50,425.64 C161.60,425.86 164.30,426.24 166.50,426.48 C168.70,426.72 172.75,427.20 175.50,427.54 C178.25,427.88 181.75,428.21 183.29,428.26 C185.39,428.34 185.93,428.75 185.48,429.93 C185.00,431.19 185.13,431.25 186.14,430.25 C186.83,429.56 187.79,429.00 188.26,429.00 ZM 78.75 407.68 C80.12,406.44 81.00,406.14 81.00,406.89 C81.00,407.69 82.09,407.36 84.00,406.00 C85.65,404.83 87.00,403.43 87.00,402.89 C87.00,402.36 86.02,402.84 84.81,403.96 C82.49,406.13 80.43,406.73 81.55,404.92 C82.63,403.17 76.68,406.59 74.55,408.94 C74.01,409.54 73.62,409.98 73.38,410.27 C72.59,409.62 72.04,408.75 72.02,407.77 C71.99,406.73 76.88,403.68 78.84,403.51 C79.75,403.44 81.45,402.86 82.62,402.22 C83.78,401.59 84.96,401.29 85.23,401.56 C85.49,401.83 86.20,401.47 86.79,400.75 C87.47,399.93 87.07,398.15 85.21,394.18 C86.81,397.54 88.00,400.38 88.00,400.89 C88.00,401.50 88.79,402.00 89.75,402.01 C91.02,402.01 90.41,403.04 87.50,405.79 C85.30,407.87 83.16,409.41 82.75,409.23 C82.34,409.04 82.00,409.75 82.00,410.80 C82.00,412.31 82.54,412.62 84.50,412.24 C85.88,411.98 87.00,411.37 87.00,410.88 C87.00,410.40 87.52,410.00 88.15,410.00 C88.79,410.00 88.46,410.95 87.40,412.13 C85.52,414.25 85.52,414.26 87.75,413.57 C90.23,412.79 90.68,413.86 88.75,415.95 C88.06,416.69 90.07,415.39 93.20,413.06 C98.03,409.48 99.13,409.04 100.37,410.17 C101.64,411.32 101.48,411.87 99.17,414.34 L 96.50 417.19 L 104.50 412.64 L 102.27 415.11 C100.05,417.58 100.05,417.58 102.14,417.74 C103.29,417.82 103.96,417.62 103.63,417.30 C102.88,416.55 106.05,414.07 107.81,414.03 C108.55,414.01 108.81,414.50 108.40,415.15 C107.98,415.84 108.13,416.04 108.78,415.64 C109.38,415.27 111.78,415.62 114.12,416.43 C116.45,417.23 118.73,417.66 119.18,417.39 C119.63,417.11 120.00,417.39 120.00,418.00 C120.00,418.61 120.45,418.84 121.00,418.50 C121.55,418.16 122.00,418.26 122.00,418.73 C122.00,419.19 122.79,419.62 123.75,419.67 C124.71,419.73 127.07,420.07 129.00,420.42 C129.19,420.46 129.38,420.49 129.57,420.52 C128.95,420.81 127.76,421.75 126.38,423.05 C122.96,426.32 122.80,426.37 123.44,424.00 C124.03,421.76 123.96,421.68 122.73,423.20 C121.29,424.98 116.75,424.97 113.28,423.19 C112.30,422.68 110.82,422.46 110.00,422.69 C109.00,422.98 109.08,422.75 110.24,422.02 C111.19,421.41 112.50,419.92 113.15,418.71 C114.26,416.63 114.22,416.59 112.42,418.00 C111.37,418.83 109.91,420.06 109.18,420.75 C107.35,422.48 106.00,422.31 106.00,420.35 C106.00,418.88 105.75,418.91 103.85,420.60 C102.30,421.97 101.59,422.15 101.27,421.24 C101.03,420.55 100.42,420.24 99.91,420.55 C99.41,420.86 99.00,420.61 99.00,420.00 C99.00,419.39 98.59,419.13 98.09,419.44 C97.59,419.75 96.44,419.72 95.53,419.37 C94.11,418.83 94.26,418.34 96.62,415.87 C98.13,414.29 99.44,412.12 99.51,411.05 C99.68,408.81 99.10,409.04 93.50,413.48 C87.67,418.09 86.53,418.67 87.31,416.64 C87.83,415.27 87.62,415.13 86.17,415.91 C83.92,417.12 81.45,415.72 82.56,413.86 C83.25,412.72 83.12,412.72 81.74,413.83 C80.65,414.72 79.56,414.85 78.45,414.23 C77.00,413.42 77.13,413.04 79.53,411.15 C81.04,409.97 81.81,409.00 81.26,409.00 C80.70,409.00 79.68,409.69 78.98,410.52 C77.85,411.89 75.53,411.68 73.88,410.63 C74.07,410.57 74.29,410.49 74.56,410.39 C75.63,410.01 77.51,408.79 78.75,407.68 ZM 317.54 413.91 C317.06,414.23 316.52,414.62 316.00,415.04 L 313.50 417.04 L 316.28 416.71 C317.81,416.54 319.86,415.71 320.83,414.88 C321.80,414.05 323.13,413.54 323.78,413.76 C324.44,413.98 327.01,412.48 329.51,410.44 C332.01,408.39 334.34,407.01 334.70,407.37 C335.06,407.73 334.49,408.68 333.43,409.48 C332.37,410.28 331.95,410.93 332.50,410.93 C333.05,410.93 335.30,409.31 337.50,407.33 C340.15,404.95 340.58,404.28 338.79,405.37 C335.14,407.56 334.31,407.43 336.50,405.00 C337.07,404.37 337.44,403.89 337.60,403.58 C337.68,403.64 337.74,403.71 337.77,403.81 C337.97,404.40 338.74,404.65 339.49,404.37 C340.25,404.08 341.38,404.85 342.06,406.11 C343.13,408.11 342.95,408.63 340.53,410.56 C337.73,412.79 333.72,415.06 331.18,416.03 C331.63,415.79 332.11,415.49 332.56,415.13 C334.99,413.22 335.02,413.08 333.20,412.11 C331.68,411.29 330.35,411.74 326.66,414.29 C321.41,417.92 320.50,419.60 324.99,417.36 C326.19,416.76 327.48,416.39 328.31,416.37 C327.46,416.47 325.95,417.10 324.48,418.01 C322.57,419.19 321.00,419.85 321.00,419.46 C321.00,419.07 320.34,419.30 319.54,419.96 C318.74,420.63 317.65,420.90 317.11,420.57 C316.58,420.24 315.86,420.42 315.51,420.98 C315.16,421.54 314.39,422.00 313.79,422.00 C313.18,422.00 313.54,420.99 314.59,419.75 C316.27,417.75 316.18,417.77 313.72,419.94 C312.21,421.28 310.12,422.51 309.09,422.67 C306.32,423.09 312.54,416.31 316.75,414.32 C317.02,414.19 317.29,414.05 317.54,413.91 ZM 295.09 420.30 C295.75,419.83 296.29,419.33 296.50,418.99 C296.84,418.45 298.16,418.00 299.44,418.00 C300.71,418.00 302.32,417.33 303.00,416.50 C304.71,414.44 306.00,414.62 306.00,416.91 C306.00,418.83 308.21,419.20 309.72,417.54 C310.15,417.06 309.98,416.97 309.35,417.33 C308.14,418.03 306.72,415.62 307.74,414.60 C308.81,413.53 310.14,413.97 309.40,415.15 C308.96,415.87 309.13,416.04 309.85,415.60 C310.48,415.20 311.00,414.23 311.00,413.44 C311.00,412.65 311.66,412.00 312.47,412.00 C313.38,412.00 313.71,412.58 313.35,413.54 C312.89,414.72 313.58,414.59 316.38,412.94 C316.71,412.74 317.04,412.57 317.34,412.41 C315.65,413.45 313.28,415.30 310.58,417.71 C304.84,422.85 302.00,424.59 302.00,422.98 C302.00,422.33 301.10,422.52 299.78,423.44 C296.39,425.81 295.57,425.30 298.46,422.62 C301.01,420.26 301.01,420.24 298.89,419.68 C297.92,419.43 296.41,419.69 295.09,420.30 ZM 262.57 426.55 C265.87,426.33 268.50,426.08 268.50,426.00 C268.50,425.92 270.49,425.63 272.93,425.36 C277.06,424.90 277.26,424.98 275.93,426.62 C275.63,427.00 275.41,427.31 275.29,427.53 C274.87,427.64 274.57,427.67 274.44,427.61 C273.78,427.36 272.67,427.68 271.97,428.33 C270.97,429.25 270.85,429.09 271.40,427.56 C272.03,425.76 271.95,425.73 270.29,427.17 C269.31,428.03 266.76,429.00 264.64,429.32 C260.98,429.88 260.86,429.82 262.38,428.13 C263.50,426.89 263.75,426.52 262.57,426.55 ZM 134.44 421.55 L 132.21 423.44 C129.86,425.43 126.00,426.30 126.00,424.84 C126.00,424.39 126.90,423.45 128.00,422.77 C129.07,422.10 129.96,421.14 130.00,420.60 C131.62,420.89 133.20,421.14 133.79,421.20 C134.07,421.23 134.29,421.36 134.44,421.55 ZM 217.39 428.00 C217.79,428.00 217.86,428.42 217.54,428.93 C217.23,429.44 217.54,430.19 218.23,430.59 C218.93,430.99 219.17,430.95 218.76,430.50 C218.35,430.05 218.96,429.01 220.13,428.20 C222.02,426.87 222.07,426.62 220.60,425.80 C219.42,425.14 218.14,425.53 216.04,427.19 C214.43,428.46 213.09,429.91 213.06,430.40 C213.02,430.90 213.82,430.57 214.83,429.65 C215.83,428.74 216.99,428.00 217.39,428.00 ZM 97.93 412.14 C98.52,412.34 97.42,413.76 95.50,415.29 C93.57,416.83 92.00,417.69 92.00,417.22 C92.00,415.82 96.76,411.75 97.93,412.14 ZM 141.00 424.60 C140.38,425.22 140.88,425.64 142.42,425.76 C143.73,425.87 145.03,425.37 145.30,424.65 C145.88,423.14 142.51,423.09 141.00,424.60 ZM 137.31 422.62 C136.12,423.10 134.76,423.93 133.75,424.86 C130.69,427.66 130.03,426.81 132.75,423.58 L 134.45 421.56 C134.66,421.87 134.71,422.32 134.52,422.81 C134.10,423.89 134.29,424.02 135.23,423.27 C135.60,422.97 136.35,422.76 137.31,422.62 ZM 181.08 105.01 C174.19,106.28 165.47,108.92 159.48,111.59 C165.96,108.47 173.06,106.30 181.08,105.01 ZM 155.46 113.69 C150.01,117.07 143.05,123.30 138.12,129.07 C142.87,123.38 149.28,117.37 153.86,114.62 C154.39,114.30 154.92,113.99 155.46,113.69 ZM 196.00 430.62 C196.00,431.45 196.82,430.92 198.13,429.25 C199.37,427.66 199.34,427.63 197.75,428.87 C196.79,429.63 196.00,430.41 196.00,430.62 ZM 255.60 368.09 C254.76,368.64 253.92,369.20 253.08,369.77 C248.96,372.58 245.35,375.37 244.45,376.44 C244.78,375.82 245.46,375.21 246.59,374.29 C248.65,372.61 251.92,370.38 255.60,368.09 ZM 229.25 168.85 C229.84,168.15 230.28,167.31 230.57,166.42 C230.34,167.23 229.99,168.00 229.52,168.66 C227.65,171.34 224.67,172.14 221.68,171.16 C224.24,171.90 227.12,171.37 229.25,168.85 ZM 154.76 90.33 C152.67,88.42 150.13,86.43 148.00,85.16 C146.87,84.49 145.93,83.99 144.99,83.61 C148.00,84.60 150.47,86.43 154.12,89.73 C154.33,89.92 154.54,90.12 154.76,90.33 ZM 278.10 426.57 C280.92,425.20 284.66,423.44 287.62,422.09 C286.53,422.62 285.23,423.27 283.69,424.04 C281.67,425.05 279.70,425.93 278.10,426.57 ZM 85.10 372.63 C85.14,369.97 85.42,367.42 85.96,365.18 C86.21,364.13 86.75,362.69 87.48,361.09 C85.93,364.79 85.21,368.41 85.10,372.63 ZM 251.54 428.78 C252.03,428.65 252.62,428.45 253.35,428.19 C254.79,427.67 257.52,427.12 260.16,426.79 C258.32,427.06 255.56,427.66 253.67,428.23 C252.80,428.49 252.10,428.67 251.54,428.78 ZM 265.78 300.23 C263.29,306.86 259.12,313.62 252.50,322.51 C258.93,313.87 263.20,306.83 265.78,300.23 ZM 242.29 427.04 L 243.50 427.04 L 241.00 429.10 C242.35,427.99 242.86,427.15 242.29,427.04 ZM 95.74 288.47 C94.37,283.02 93.84,277.28 94.15,271.03 C93.90,276.68 94.34,281.96 95.44,287.13 C95.54,287.58 95.64,288.03 95.74,288.47 ZM 167.92 235.18 C167.86,238.13 167.26,239.93 165.67,243.41 C164.32,246.36 162.38,249.26 160.05,251.96 C162.37,249.22 164.34,246.26 165.76,243.18 C167.19,240.08 167.78,238.17 167.92,235.18 ZM 237.34 102.37 C237.28,102.30 237.25,102.24 237.23,102.19 C236.96,101.38 237.88,99.07 239.33,96.46 C237.96,99.00 237.14,101.27 237.34,102.37 ZM 320.00 411.88 C320.00,411.88 320.00,411.89 320.00,411.90 C320.00,412.51 319.66,413.01 319.25,413.02 C319.12,413.03 318.90,413.11 318.61,413.26 C319.43,412.71 319.97,412.19 320.00,411.88 ZM 131.90 138.36 C129.53,143.13 127.10,149.53 124.54,157.74 C127.11,149.46 129.56,143.04 131.90,138.36 ZM 291.62 420.32 C292.11,420.12 292.43,420.00 292.50,420.00 C292.67,420.00 292.75,420.12 292.74,420.32 C292.71,420.08 292.38,420.07 291.62,420.32 ZM 252.50 322.51 C248.91,327.32 246.45,331.05 244.82,334.34 C246.43,331.03 248.88,327.36 252.50,322.51 ZM 103.18 113.57 C103.09,109.77 103.51,105.99 104.46,103.11 C103.52,105.95 103.10,109.75 103.18,113.57 ZM 161.50 171.21 C160.91,170.96 160.30,170.62 159.68,170.19 C159.70,170.21 159.73,170.23 159.75,170.24 C160.39,170.64 160.96,170.96 161.50,171.21 ZM 248.53 427.43 C247.86,426.90 246.87,427.21 244.31,428.51 C246.89,427.20 247.86,426.88 248.53,427.43 ZM 169.62 158.21 C169.71,158.44 169.85,158.72 170.02,159.04 C170.16,159.30 170.28,159.57 170.39,159.85 C170.27,159.54 170.12,159.23 169.96,158.93 C169.82,158.66 169.70,158.42 169.62,158.21 ZM 179.34 223.60 C179.40,223.73 179.46,223.86 179.49,223.98 C179.59,224.28 179.69,224.53 179.82,224.71 C179.70,224.55 179.61,224.34 179.53,224.09 C179.48,223.93 179.41,223.77 179.34,223.60 ZM 292.38 421.19 C292.29,421.36 292.24,421.48 292.24,421.57 C292.22,421.50 292.26,421.39 292.35,421.25 C292.36,421.23 292.37,421.21 292.38,421.19 Z" fill="rgb(46,55,135)"/>
</g>
</svg>
