<svg xmlns="http://www.w3.org/2000/svg" width="414" height="444" viewBox="0 0 414 444">
<g>
<path d="M 198.09 418.39 C197.46,419.16 195.71,419.94 194.22,420.14 C190.41,420.64 181.00,420.02 181.00,419.27 C181.00,418.93 182.46,417.39 184.25,415.86 C188.93,411.85 186.13,412.36 180.70,416.50 C176.22,419.92 171.74,421.01 170.49,418.98 C170.14,418.42 169.44,418.23 168.93,418.54 C168.42,418.86 167.48,418.80 166.84,418.40 C166.20,418.01 162.04,417.59 157.59,417.48 C153.14,417.37 149.27,417.17 149.00,417.03 C148.73,416.89 147.71,416.85 146.75,416.95 C144.75,417.15 144.36,415.40 146.25,414.72 C146.94,414.47 147.17,413.91 146.76,413.48 C146.35,413.04 145.18,413.43 144.16,414.36 C142.52,415.84 141.37,415.90 134.40,414.94 C130.06,414.34 125.60,413.43 124.50,412.91 C123.40,412.38 121.44,411.76 120.15,411.52 C118.85,411.27 117.19,410.57 116.44,409.95 C115.70,409.33 114.67,409.09 114.16,409.40 C113.65,409.72 112.69,409.33 112.02,408.53 C111.04,407.34 111.43,406.71 114.16,405.02 C116.10,403.82 118.42,403.18 119.69,403.48 C120.89,403.77 122.13,403.61 122.43,403.12 C122.73,402.63 124.55,401.93 126.47,401.57 C130.94,400.73 139.00,391.34 139.00,386.97 C139.00,379.29 129.22,353.17 123.47,345.50 C111.37,329.34 105.56,298.22 107.90,262.11 C109.11,243.55 108.95,242.86 101.14,232.00 C93.95,222.01 80.39,200.69 73.47,188.50 C53.61,153.53 42.90,121.35 42.86,96.50 C42.84,88.79 43.31,85.23 44.91,80.96 C50.85,65.10 70.81,58.87 82.57,69.20 C87.03,73.11 89.37,77.68 92.03,87.65 C95.75,101.60 99.81,112.66 105.06,123.12 C110.35,133.66 122.62,153.00 124.02,153.00 C124.46,153.00 126.72,147.09 129.04,139.87 C132.49,129.17 133.01,126.59 131.89,125.95 C123.72,121.33 117.06,113.48 114.99,106.03 C113.49,100.63 113.81,90.91 115.67,85.43 C118.13,78.18 127.84,68.72 134.99,66.59 C141.49,64.67 151.13,64.60 156.30,66.44 C164.04,69.20 168.35,73.23 174.50,83.44 C175.42,84.97 176.20,84.92 184.50,82.85 C192.16,80.94 196.11,80.61 211.00,80.64 C225.86,80.67 229.71,81.00 236.50,82.87 C243.84,84.89 244.58,84.94 245.50,83.43 C250.82,74.71 252.60,72.58 256.70,69.97 C262.74,66.14 266.91,65.01 275.00,65.01 C295.78,64.99 311.44,87.34 304.48,107.06 C302.39,112.99 296.09,120.99 291.16,124.00 C288.90,125.38 287.04,126.88 287.03,127.35 C286.95,129.79 295.32,154.07 295.99,153.35 C298.65,150.48 310.46,131.72 314.40,124.09 C320.57,112.15 323.34,104.59 326.95,89.87 C330.41,75.78 332.95,71.29 339.73,67.31 C343.75,64.94 345.60,64.50 351.50,64.53 C362.16,64.57 368.93,68.92 374.08,79.00 C378.47,87.61 377.78,107.99 372.46,127.07 C363.96,157.53 350.40,184.32 322.88,225.02 L 311.04 242.54 L 311.66 268.02 C312.64,308.20 309.32,324.37 295.54,346.49 C288.43,357.91 281.00,378.46 281.00,386.71 C281.00,390.64 281.57,391.84 285.56,396.28 C288.70,399.77 290.94,401.39 292.74,401.47 C294.18,401.53 295.51,402.03 295.70,402.59 C295.88,403.14 297.60,403.41 299.52,403.19 C302.27,402.87 303.00,403.13 303.00,404.46 C303.00,405.68 303.54,405.96 305.00,405.50 C306.41,405.05 307.00,405.32 307.00,406.42 C307.00,408.47 299.74,413.00 296.45,413.00 C295.03,413.00 292.99,413.47 291.92,414.04 C290.85,414.62 286.71,415.28 282.73,415.52 C278.76,415.76 273.92,416.20 272.00,416.51 C270.08,416.82 266.59,417.20 264.26,417.36 C260.30,417.62 260.12,417.52 261.58,415.91 C263.01,414.33 262.97,414.13 261.13,413.54 C259.81,413.12 257.77,413.78 255.28,415.43 C252.34,417.38 249.78,418.07 244.23,418.42 C240.26,418.67 236.45,419.20 235.76,419.61 C235.07,420.01 235.36,419.36 236.41,418.17 C239.20,414.99 237.93,414.68 233.75,417.53 C231.09,419.33 228.80,419.99 225.30,419.97 C224.84,419.96 224.42,419.97 224.03,419.97 C222.53,419.97 221.63,419.98 221.50,419.66 C221.29,419.18 222.77,417.98 226.46,414.99 C227.09,414.48 227.79,413.91 228.56,413.28 C234.90,408.11 230.74,409.52 223.50,415.00 C216.60,420.22 215.42,420.75 214.79,418.86 C214.51,418.02 213.78,418.05 212.06,418.97 C208.30,420.98 202.78,420.87 202.23,418.77 C201.68,416.65 199.69,416.47 198.09,418.39 ZM 255.06 406.39 C258.60,407.17 261.73,407.84 262.00,407.88 C262.27,407.93 263.12,407.58 263.87,407.10 C265.01,406.38 264.94,405.70 263.43,403.15 C262.42,401.45 261.85,399.81 262.16,399.51 C263.40,398.26 266.21,400.48 268.11,404.21 C269.91,407.74 270.43,408.11 272.82,407.51 C276.53,406.58 276.58,406.43 274.64,402.36 C272.22,397.29 273.60,396.80 277.54,401.35 C279.38,403.46 281.36,404.90 281.94,404.54 C283.63,403.49 283.23,402.33 279.36,396.94 C275.78,391.96 275.73,391.75 276.30,384.69 C277.08,375.14 283.67,355.90 289.89,345.02 C296.70,333.13 297.92,330.59 300.67,322.56 C306.47,305.66 307.78,289.94 306.04,258.31 C304.69,233.69 304.93,231.83 310.44,224.50 C312.10,222.30 313.73,220.27 314.07,220.00 C314.41,219.73 316.40,217.05 318.49,214.05 C320.59,211.05 322.70,208.12 323.19,207.55 C326.72,203.40 336.98,189.33 336.99,188.63 C337.00,188.15 338.91,184.99 341.25,181.61 C347.27,172.90 347.39,172.69 353.46,160.39 C367.70,131.50 374.89,100.44 370.68,85.97 C368.84,79.66 363.97,72.54 360.14,70.59 C350.49,65.66 339.25,69.62 334.93,79.47 C333.95,81.69 331.94,88.45 330.47,94.50 C325.96,112.95 319.17,128.02 307.27,146.00 C299.34,157.97 290.30,169.00 288.40,169.00 C286.08,169.00 285.93,167.17 287.97,163.81 C289.08,161.99 289.99,159.29 290.00,157.82 C290.00,152.62 280.18,124.71 275.59,116.89 C265.92,100.44 247.57,88.64 225.97,84.99 C217.36,83.54 199.30,84.25 188.86,86.45 C175.74,89.22 161.85,96.08 153.65,103.85 C144.59,112.45 137.16,126.56 132.00,145.00 C130.23,151.32 128.35,157.03 127.82,157.69 C126.68,159.10 127.92,161.72 130.92,164.24 C133.31,166.24 133.68,169.00 131.57,169.00 C129.71,169.00 128.11,167.35 121.08,158.11 C104.98,136.95 95.34,117.52 88.92,93.27 C83.87,74.16 79.74,69.00 69.50,69.00 C54.28,69.00 47.80,77.61 47.71,98.00 C47.60,119.76 58.78,152.07 75.55,178.50 C78.69,183.45 81.69,188.74 82.23,190.25 C82.76,191.76 83.82,193.00 84.58,193.00 C85.34,193.00 86.25,194.14 86.60,195.52 C86.94,196.91 88.01,198.60 88.96,199.27 C89.91,199.95 91.26,201.60 91.98,202.94 C92.69,204.28 93.66,205.85 94.13,206.44 C101.12,215.04 103.00,217.74 103.00,219.23 C103.00,220.20 103.53,220.89 104.17,220.75 C104.81,220.61 105.82,221.41 106.42,222.52 C107.01,223.63 108.47,225.89 109.66,227.55 C112.91,232.07 113.96,239.90 112.96,252.00 C109.93,288.42 113.50,317.24 123.23,335.00 C125.49,339.12 128.80,345.20 130.58,348.50 C135.19,357.02 142.17,378.29 142.76,385.56 C143.24,391.54 143.15,391.83 139.55,395.81 C136.83,398.82 135.94,400.62 136.18,402.62 C136.52,405.48 139.00,407.27 139.00,404.66 C139.00,402.62 143.83,397.00 145.59,397.00 C147.53,397.00 147.36,398.28 145.00,401.27 C142.36,404.63 142.48,405.83 145.51,406.59 C148.40,407.32 150.56,405.89 151.36,402.71 C151.67,401.49 152.90,399.90 154.08,399.17 C157.08,397.32 158.61,399.14 156.02,401.48 C153.35,403.89 153.45,405.96 156.25,406.15 C164.69,406.69 174.30,403.33 176.38,399.11 C178.99,393.82 181.25,382.93 180.77,377.92 C180.20,372.04 177.73,368.94 170.82,365.42 C162.06,360.96 163.81,358.79 173.62,361.96 C184.41,365.45 200.80,367.31 215.00,366.66 C227.53,366.08 241.04,364.11 246.32,362.08 C249.96,360.68 253.27,360.70 252.80,362.11 C252.59,362.72 249.97,364.51 246.96,366.09 C242.15,368.61 239.66,371.14 237.37,375.83 C236.57,377.47 240.79,398.00 242.36,400.12 C244.46,402.94 248.57,404.97 255.06,406.39 ZM 219.17 195.11 C210.33,198.97 199.98,196.30 193.02,188.37 C187.02,181.53 185.13,173.00 188.88,169.61 C190.66,168.00 191.21,168.01 198.63,169.81 C202.96,170.87 206.84,171.54 207.25,171.31 C207.66,171.07 208.00,169.33 208.00,167.42 C208.00,164.63 207.13,163.14 203.50,159.65 C200.35,156.63 199.00,154.54 199.00,152.65 C199.00,149.15 201.96,148.00 210.95,148.00 C223.11,148.00 225.41,153.14 216.51,160.43 C212.76,163.51 212.00,164.71 212.00,167.57 C212.00,170.68 212.27,171.00 214.87,171.00 C216.46,171.00 219.66,170.32 222.00,169.50 C227.89,167.42 231.70,167.57 232.96,169.93 C236.71,176.93 229.12,190.77 219.17,195.11 ZM 216.00 400.07 C216.00,400.53 218.17,399.78 220.82,398.41 C225.06,396.20 226.16,396.02 230.07,396.90 C232.75,397.51 234.86,397.54 235.42,396.98 C236.68,395.72 234.32,385.60 231.40,379.82 C227.62,372.34 226.69,372.00 209.91,372.00 C196.58,372.00 195.03,372.19 192.61,374.09 C186.85,378.63 181.44,395.80 185.31,397.29 C186.03,397.57 188.73,397.65 191.31,397.48 C193.89,397.30 196.00,397.53 196.00,397.99 C196.00,398.85 199.77,398.20 201.50,397.04 C202.05,396.67 206.55,396.29 211.50,396.20 C220.01,396.04 220.38,396.12 218.25,397.64 C217.01,398.52 216.00,399.62 216.00,400.07 ZM 129.15 115.46 C130.44,116.81 131.66,117.46 131.85,116.91 C132.06,116.29 132.72,116.35 133.60,117.08 C134.67,117.97 135.35,117.95 136.50,117.00 C138.58,115.28 138.37,113.27 136.00,112.00 C133.03,110.41 128.02,101.05 128.01,97.07 C127.98,87.87 135.18,81.00 144.83,81.00 C149.92,81.00 152.04,82.12 158.66,88.28 L 161.83 91.22 L 165.91 88.93 C168.16,87.67 169.99,85.93 169.98,85.07 C169.92,81.62 163.15,74.22 157.54,71.48 C152.57,69.05 151.13,68.79 144.58,69.21 C135.93,69.77 130.20,72.61 124.64,79.11 C117.60,87.34 115.81,100.74 120.52,110.03 C122.81,114.56 125.00,116.50 125.00,114.00 C125.00,112.30 126.68,112.89 129.15,115.46 ZM 282.06 116.11 C282.86,117.60 283.51,117.76 285.61,116.96 C288.42,115.89 295.00,109.58 295.00,107.96 C295.00,107.40 296.09,106.53 297.43,106.03 C299.34,105.30 300.01,104.12 300.54,100.56 C301.85,91.84 298.28,82.34 291.27,75.86 C285.27,70.33 281.98,69.00 274.30,69.01 C263.35,69.03 255.23,73.85 250.37,83.24 C248.56,86.75 249.41,88.05 254.67,89.79 C257.50,90.73 258.03,90.58 259.67,88.38 C260.68,87.02 263.65,84.53 266.28,82.83 C270.25,80.27 271.79,79.83 275.32,80.23 C287.31,81.58 294.47,94.34 289.09,104.79 C288.04,106.83 285.81,109.80 284.13,111.40 C281.72,113.69 281.29,114.67 282.06,116.11 ZM 276.91 108.84 C278.50,111.81 280.07,111.56 283.74,107.75 C289.26,102.03 290.43,95.85 287.04,90.30 C284.28,85.76 280.45,83.56 275.68,83.75 C269.96,83.98 266.49,85.67 263.37,89.76 L 260.66 93.31 L 264.58 96.40 C269.98,100.65 275.53,106.25 276.91,108.84 ZM 136.55 107.91 C138.48,109.61 140.44,111.00 140.90,111.00 C141.36,111.00 142.89,109.25 144.31,107.11 C145.73,104.96 149.39,101.05 152.44,98.42 C155.50,95.78 158.00,93.11 158.00,92.50 C158.00,91.14 153.35,86.68 150.32,85.12 C149.11,84.50 146.09,84.00 143.60,84.00 C131.30,84.00 126.78,99.33 136.55,107.91 ZM 220.56 184.33 C222.18,185.20 223.81,185.94 224.18,185.96 C225.69,186.05 229.24,179.66 229.73,175.95 C230.20,172.49 230.02,172.00 228.26,172.00 C227.15,172.00 224.43,172.64 222.21,173.43 C214.37,176.19 209.74,176.32 200.51,174.00 C194.73,172.56 191.45,172.15 190.79,172.81 C189.39,174.21 190.66,179.04 193.28,182.30 L 195.50 185.07 L 200.35 183.41 C206.10,181.43 216.05,181.89 220.56,184.33 ZM 318.42 52.71 C318.22,53.22 318.03,53.70 317.86,54.15 C316.26,58.19 315.65,59.72 315.18,59.68 C314.83,59.65 314.56,58.81 314.03,57.50 C311.36,50.87 310.30,49.46 307.26,48.47 C302.59,46.94 302.41,46.27 306.22,44.68 C309.59,43.27 313.00,38.20 313.00,34.60 C313.00,31.56 315.51,33.03 317.20,37.07 C318.53,40.23 319.80,41.48 322.95,42.71 C325.18,43.59 327.00,44.68 327.00,45.14 C327.00,45.60 325.41,46.64 323.46,47.45 C320.92,48.51 319.50,49.99 318.42,52.71 ZM 104.41 45.83 C104.04,48.12 103.46,49.99 103.12,49.97 C102.78,49.95 101.28,47.93 99.79,45.47 C97.76,42.13 96.46,41.00 94.62,41.00 C91.69,41.00 89.00,40.07 89.00,39.05 C89.00,38.65 90.13,37.81 91.50,37.18 C94.46,35.83 97.99,30.43 98.00,27.25 C98.00,24.27 99.40,24.39 100.82,27.50 C102.07,30.25 107.50,33.99 110.25,34.00 C112.73,34.00 112.46,34.70 108.54,38.40 C106.10,40.70 104.88,42.90 104.41,45.83 ZM 203.50 191.61 C209.51,194.24 221.88,192.15 220.73,188.70 C219.76,185.79 208.35,184.22 201.68,186.07 C198.35,187.00 198.03,187.33 199.18,188.72 C199.91,189.59 201.85,190.89 203.50,191.61 ZM 173.23 138.25 C170.27,144.46 168.57,144.47 169.27,138.28 C169.92,132.52 174.24,128.00 179.09,128.00 C183.52,128.00 188.00,132.74 188.00,137.42 C188.00,142.03 186.64,141.97 184.33,137.25 C182.73,133.98 182.05,133.50 179.00,133.50 C175.81,133.50 175.30,133.92 173.23,138.25 ZM 250.00 138.39 C250.00,140.88 248.53,142.72 247.70,141.27 C247.46,140.84 246.72,138.81 246.05,136.75 C245.21,134.14 244.11,132.81 242.42,132.39 C238.88,131.50 237.09,132.54 235.47,136.42 C233.84,140.31 232.45,141.54 231.47,139.96 C230.43,138.26 231.77,134.42 234.59,131.08 C240.09,124.54 250.00,129.24 250.00,138.39 ZM 32.60 120.25 C33.74,123.97 30.79,121.77 28.89,117.49 C25.65,110.15 25.01,89.00 28.05,89.00 C28.57,89.00 29.01,92.69 29.01,97.25 C29.03,104.25 30.41,113.13 32.60,120.25 ZM 391.37 90.50 C391.45,96.05 391.03,100.27 390.28,101.50 C390.23,101.59 390.17,101.68 390.12,101.76 C389.69,102.47 389.40,102.95 389.19,102.92 C388.74,102.84 388.70,100.24 388.49,92.00 C388.33,85.55 387.61,79.76 386.63,77.00 C384.79,71.84 384.61,70.00 385.93,70.00 C388.18,70.00 391.24,81.53 391.37,90.50 ZM 313.02 49.03 L 315.13 52.00 L 317.70 48.95 L 320.26 45.90 L 317.95 43.45 C315.08,40.39 314.62,40.40 312.57,43.53 C311.00,45.93 311.02,46.22 313.02,49.03 ZM 99.10 39.93 C102.31,42.60 102.62,42.53 103.93,38.76 C104.89,36.01 104.80,35.33 103.34,34.26 C100.81,32.41 99.50,32.71 98.02,35.47 C96.83,37.69 96.93,38.13 99.10,39.93 ZM 21.14 113.88 C21.34,114.63 21.01,115.43 20.42,115.65 C19.01,116.18 17.00,109.41 17.00,104.13 C17.00,101.31 17.43,100.00 18.36,100.00 C19.31,100.00 19.89,101.90 20.25,106.25 C20.54,109.69 20.94,113.12 21.14,113.88 ZM 398.98 86.19 C398.99,89.32 398.61,92.12 398.14,92.41 C397.19,93.00 395.62,79.05 396.53,78.13 C397.78,76.88 398.97,80.79 398.98,86.19 Z" fill="rgb(14,15,27)"/>
<path d="M 255.06 406.39 C248.57,404.97 244.46,402.94 242.36,400.12 C240.79,398.00 236.57,377.47 237.37,375.83 C239.66,371.14 242.15,368.61 246.96,366.09 C249.97,364.51 252.59,362.72 252.80,362.11 C253.27,360.70 249.96,360.68 246.32,362.08 C241.04,364.11 227.53,366.08 215.00,366.66 C200.80,367.31 184.41,365.45 173.62,361.96 C163.81,358.79 162.06,360.96 170.82,365.42 C177.73,368.94 180.20,372.04 180.77,377.92 C181.25,382.93 178.99,393.82 176.38,399.11 C174.30,403.33 164.69,406.69 156.25,406.15 C153.45,405.96 153.35,403.89 156.02,401.48 C158.61,399.14 157.08,397.32 154.08,399.17 C152.90,399.90 151.67,401.49 151.36,402.71 C150.56,405.89 148.40,407.32 145.51,406.59 C142.48,405.83 142.36,404.63 145.00,401.27 C147.36,398.28 147.53,397.00 145.59,397.00 C143.83,397.00 139.00,402.62 139.00,404.66 C139.00,405.62 138.66,405.98 138.22,405.92 C138.71,405.67 139.00,404.87 139.00,403.59 C139.00,402.27 140.58,399.30 142.51,396.99 C144.44,394.68 146.30,391.66 146.65,390.26 C148.26,383.85 141.19,362.11 131.14,342.60 C120.07,321.08 117.91,310.57 117.11,274.01 C116.58,249.94 116.30,246.49 114.90,246.22 C113.92,246.03 113.47,246.80 113.08,250.45 C113.87,239.23 112.77,231.87 109.66,227.55 C108.47,225.89 107.01,223.63 106.42,222.52 C105.82,221.41 104.81,220.61 104.17,220.75 C103.53,220.89 103.00,220.20 103.00,219.23 C103.00,217.74 101.12,215.04 94.13,206.44 C93.66,205.85 92.69,204.28 91.98,202.94 C91.26,201.60 89.91,199.95 88.96,199.27 C88.01,198.60 86.94,196.91 86.60,195.52 C86.25,194.14 85.34,193.00 84.58,193.00 C83.82,193.00 82.76,191.76 82.23,190.25 C81.69,188.74 78.69,183.45 75.55,178.50 C58.78,152.07 47.60,119.76 47.71,98.00 C47.79,80.45 52.60,71.62 63.65,69.51 C60.48,70.17 57.71,71.44 56.21,73.24 C55.17,74.50 55.98,74.41 60.41,72.78 C69.71,69.35 78.47,72.21 82.48,79.97 C83.26,81.47 85.51,89.16 87.48,97.05 C89.45,104.94 92.67,115.47 94.63,120.45 C101.45,137.72 112.17,155.14 121.15,163.54 C123.89,166.11 126.40,167.93 126.73,167.61 C127.05,167.28 126.64,166.22 125.81,165.26 C124.98,164.29 124.02,162.82 123.66,162.00 C123.51,161.63 122.74,160.44 121.59,158.77 C128.19,167.43 129.75,169.00 131.57,169.00 C133.68,169.00 133.31,166.24 130.92,164.24 C127.92,161.72 126.68,159.10 127.82,157.69 C128.22,157.19 129.41,153.76 130.73,149.36 C128.60,157.09 128.28,159.65 129.06,161.11 C129.67,162.24 130.36,162.97 130.61,162.72 C130.86,162.47 133.46,155.29 136.39,146.76 C139.33,138.23 143.70,127.50 146.11,122.90 C151.51,112.63 161.80,101.83 170.55,97.26 C183.61,90.43 200.93,86.17 216.82,85.88 L 223.50 85.75 L 218.00 84.87 C215.50,84.46 212.59,84.28 209.43,84.30 C215.85,84.11 221.94,84.31 225.97,84.99 C247.57,88.64 265.92,100.44 275.59,116.89 C280.18,124.71 290.00,152.62 290.00,157.82 C289.99,159.29 289.08,161.99 287.97,163.81 C285.93,167.17 286.08,169.00 288.40,169.00 C290.30,169.00 299.34,157.97 307.27,146.00 C311.39,139.78 314.89,133.90 317.91,128.11 C312.96,137.70 306.75,147.46 298.88,158.12 C296.20,161.76 294.00,165.03 294.00,165.37 C294.00,165.72 294.64,166.00 295.41,166.00 C298.37,166.00 312.22,146.49 319.37,132.27 C324.79,121.46 327.70,113.16 332.04,96.01 C335.72,81.49 337.76,77.02 342.11,73.93 C345.84,71.26 352.99,70.36 358.53,71.85 C362.47,72.91 362.48,72.90 360.28,71.08 C359.61,70.52 358.86,70.05 358.04,69.67 C358.75,69.93 359.45,70.24 360.14,70.59 C363.97,72.54 368.84,79.66 370.68,85.97 C374.89,100.44 367.70,131.50 353.46,160.39 C347.39,172.69 347.27,172.90 341.25,181.61 C338.91,184.99 337.00,188.15 336.99,188.63 C336.98,189.33 326.72,203.40 323.19,207.55 C322.70,208.12 320.59,211.05 318.49,214.05 C316.40,217.05 314.41,219.73 314.07,220.00 C313.73,220.27 312.10,222.30 310.44,224.50 C304.93,231.83 304.69,233.69 306.04,258.31 C307.78,289.94 306.47,305.66 300.67,322.56 C297.92,330.59 296.70,333.13 289.89,345.02 C283.67,355.90 277.08,375.14 276.30,384.69 C275.73,391.75 275.78,391.96 279.36,396.94 C283.23,402.33 283.63,403.49 281.94,404.54 C281.36,404.90 279.38,403.46 277.54,401.35 C273.60,396.80 272.22,397.29 274.64,402.36 C276.58,406.43 276.53,406.58 272.82,407.51 C270.43,408.11 269.91,407.74 268.11,404.21 C266.21,400.48 263.40,398.26 262.16,399.51 C261.85,399.81 262.42,401.45 263.43,403.15 C264.94,405.70 265.01,406.38 263.87,407.10 C263.12,407.58 262.27,407.93 262.00,407.88 C261.73,407.84 258.60,407.17 255.06,406.39 ZM 196.87 209.15 C217.04,214.42 236.69,207.44 243.00,192.77 C244.97,188.21 245.19,186.33 244.79,177.53 C244.40,169.06 243.88,166.59 241.45,161.65 C229.01,136.34 186.91,137.76 176.91,163.83 C174.19,170.92 173.27,183.34 175.01,189.55 C177.75,199.32 185.37,206.15 196.87,209.15 ZM 282.06 116.11 C281.29,114.67 281.72,113.69 284.13,111.40 C285.81,109.80 288.04,106.83 289.09,104.79 C294.47,94.34 287.31,81.58 275.32,80.23 C271.79,79.83 270.25,80.27 266.28,82.83 C263.65,84.53 260.68,87.02 259.67,88.38 C258.03,90.58 257.50,90.73 254.67,89.79 C251.96,88.89 250.43,88.11 249.82,87.09 C250.76,86.84 253.64,84.42 256.82,81.17 C264.12,73.68 269.52,71.06 277.93,70.93 C284.57,70.83 280.12,69.16 273.00,69.08 C272.64,69.08 272.28,69.08 271.92,69.09 C272.70,69.04 273.49,69.01 274.30,69.01 C281.98,69.00 285.27,70.33 291.27,75.86 C298.28,82.34 301.85,91.84 300.54,100.56 C300.01,104.12 299.34,105.30 297.43,106.03 C296.09,106.53 295.00,107.40 295.00,107.96 C295.00,109.58 288.42,115.89 285.61,116.96 C283.51,117.76 282.86,117.60 282.06,116.11 ZM 129.15 115.46 C126.68,112.89 125.00,112.30 125.00,114.00 C125.00,116.50 122.81,114.56 120.52,110.03 C118.04,105.15 117.36,99.13 118.30,93.32 C117.66,97.90 118.22,102.63 120.12,107.06 C121.29,109.78 122.33,112.00 122.43,112.00 C122.53,112.00 122.43,108.06 122.20,103.25 C121.61,90.91 122.93,86.91 129.83,80.02 C135.52,74.33 140.65,72.00 147.47,72.00 C151.38,72.00 161.02,75.68 163.80,78.23 C166.21,80.45 166.25,80.45 165.16,78.36 C164.15,76.41 161.87,74.20 159.30,72.46 C164.47,75.70 169.93,81.97 169.98,85.07 C169.99,85.93 168.16,87.67 165.91,88.93 L 161.83 91.22 L 158.66 88.28 C152.04,82.12 149.92,81.00 144.83,81.00 C135.18,81.00 127.98,87.87 128.01,97.07 C128.02,101.05 133.03,110.41 136.00,112.00 C138.37,113.27 138.58,115.28 136.50,117.00 C135.35,117.95 134.67,117.97 133.60,117.08 C132.72,116.35 132.06,116.29 131.85,116.91 C131.66,117.46 130.44,116.81 129.15,115.46 ZM 345.50 109.84 C346.60,110.44 349.41,110.95 351.75,110.97 C356.84,111.01 360.00,108.39 360.00,104.15 C360.00,100.74 356.51,95.40 352.90,93.26 C347.35,89.97 338.00,94.69 338.00,100.77 C338.00,103.61 341.17,107.45 345.50,109.84 ZM 61.65 109.17 C65.36,113.27 77.42,109.95 80.51,103.99 C81.90,101.30 81.90,100.70 80.52,98.03 C78.54,94.21 76.17,92.99 70.82,93.03 C66.30,93.07 63.20,94.90 61.15,98.73 C59.49,101.83 59.74,107.06 61.65,109.17 ZM 173.23 138.25 C175.30,133.92 175.81,133.50 179.00,133.50 C182.05,133.50 182.73,133.98 184.33,137.25 C186.64,141.97 188.00,142.03 188.00,137.42 C188.00,134.93 186.73,132.43 184.88,130.63 C186.73,132.33 188.11,134.84 188.61,137.93 C189.41,142.94 191.38,142.81 191.81,137.73 C192.99,123.83 172.68,118.62 166.67,131.28 C164.98,134.85 164.45,140.12 165.67,141.33 C166.90,142.57 168.00,142.01 168.00,140.15 C168.00,137.91 169.77,134.29 171.93,131.76 C170.53,133.52 169.55,135.79 169.27,138.28 C168.57,144.47 170.27,144.46 173.23,138.25 ZM 250.00 138.39 C250.00,138.27 250.00,138.15 249.99,138.03 C250.00,138.12 250.00,138.20 250.00,138.28 C250.00,139.59 250.29,140.95 250.64,141.31 C252.01,142.67 253.00,140.69 253.00,136.59 C253.00,127.42 244.49,121.02 236.38,124.11 C231.29,126.04 228.00,130.97 228.00,136.65 C228.00,139.85 228.40,141.00 229.50,141.00 C230.35,141.00 231.00,140.10 231.00,138.93 C231.00,136.41 232.57,133.25 235.30,130.25 C237.50,127.83 241.81,127.29 245.06,129.03 C245.66,129.35 246.28,129.91 246.86,130.60 C243.49,127.32 238.13,126.87 234.59,131.08 C231.77,134.42 230.43,138.26 231.47,139.96 C232.45,141.54 233.84,140.31 235.47,136.42 C237.09,132.54 238.88,131.50 242.42,132.39 C244.11,132.81 245.21,134.14 246.05,136.75 C246.72,138.81 247.46,140.84 247.70,141.27 C248.53,142.72 250.00,140.88 250.00,138.39 ZM 269.15 416.90 C267.38,417.18 265.69,417.51 264.00,417.88 C262.08,418.31 259.19,418.31 257.60,417.88 C255.98,417.44 253.90,417.52 252.90,418.05 C251.91,418.58 247.65,419.24 243.43,419.52 C239.21,419.80 235.40,420.25 234.97,420.52 C234.53,420.79 233.98,420.45 233.75,419.76 C233.41,418.75 233.01,418.76 231.77,419.78 C230.64,420.72 226.54,420.98 216.37,420.74 C211.97,420.64 208.94,420.55 206.84,420.39 C208.55,420.29 210.47,419.82 212.06,418.97 C213.78,418.05 214.51,418.02 214.79,418.86 C215.42,420.75 216.60,420.22 223.50,415.00 C230.74,409.52 234.90,408.11 228.56,413.28 C227.79,413.91 227.09,414.48 226.46,414.99 C222.77,417.98 221.29,419.18 221.50,419.66 C221.63,419.98 222.53,419.97 224.03,419.97 C224.42,419.97 224.84,419.96 225.30,419.97 C228.80,419.99 231.09,419.33 233.75,417.53 C237.93,414.68 239.20,414.99 236.41,418.17 C235.36,419.36 235.07,420.01 235.76,419.61 C236.45,419.20 240.26,418.67 244.23,418.42 C249.78,418.07 252.34,417.38 255.28,415.43 C257.77,413.78 259.81,413.12 261.13,413.54 C262.97,414.13 263.01,414.33 261.58,415.91 C260.12,417.52 260.30,417.62 264.26,417.36 C265.67,417.27 267.50,417.09 269.15,416.90 ZM 59.41 84.51 C62.26,88.85 67.00,87.17 67.00,81.82 C67.00,78.64 63.27,75.58 60.63,76.59 C58.15,77.54 57.52,81.62 59.41,84.51 ZM 353.67 86.33 C354.86,87.53 357.82,87.04 359.48,85.37 C361.52,83.34 361.11,78.09 358.81,76.64 C356.32,75.09 353.00,78.43 353.00,82.49 C353.00,84.24 353.30,85.97 353.67,86.33 ZM 74.57 86.43 C79.05,90.91 83.65,83.58 79.35,78.83 C77.32,76.59 76.59,76.55 74.57,78.57 C72.56,80.59 72.56,84.41 74.57,86.43 ZM 339.75 86.89 C342.19,88.28 345.41,85.99 345.82,82.58 C346.18,79.56 344.54,77.00 342.24,77.00 C338.45,77.00 336.44,85.01 339.75,86.89 ZM 364.20 96.80 C365.82,98.42 367.00,98.31 369.17,96.35 C372.12,93.68 371.29,88.00 367.95,88.00 C365.92,88.00 363.00,91.56 363.00,94.02 C363.00,94.89 363.54,96.14 364.20,96.80 ZM 49.42 95.52 C51.85,99.22 55.39,98.58 55.80,94.38 C56.35,88.79 50.98,85.77 48.84,90.46 C47.94,92.44 48.05,93.43 49.42,95.52 ZM 145.18 416.47 C140.95,416.03 134.97,415.14 130.52,414.33 C131.76,414.55 133.09,414.76 134.40,414.94 C141.37,415.90 142.52,415.84 144.16,414.36 C145.18,413.43 146.35,413.04 146.76,413.48 C147.17,413.91 146.94,414.47 146.25,414.72 C145.10,415.13 144.80,415.94 145.18,416.47 ZM 114.53 404.80 C114.65,404.72 114.78,404.64 114.91,404.56 C117.23,403.09 120.43,402.00 122.42,402.00 C123.71,402.00 125.35,401.81 126.68,401.53 C126.61,401.54 126.54,401.56 126.47,401.57 C124.55,401.93 122.73,402.63 122.43,403.12 C122.13,403.61 120.89,403.77 119.69,403.48 C118.49,403.20 116.39,403.74 114.53,404.80 ZM 199.61 84.91 C192.13,85.75 184.31,87.40 177.89,89.63 C181.51,88.30 185.21,87.22 188.86,86.45 C191.93,85.80 195.66,85.28 199.61,84.91 ZM 69.55 69.00 C74.87,69.01 78.54,70.42 81.55,74.48 C80.52,73.18 79.39,72.16 78.10,71.29 C75.95,69.84 72.82,69.10 69.55,69.00 ZM 159.17 99.35 C153.57,103.49 148.88,108.50 144.83,114.75 C147.56,110.49 150.51,106.84 153.65,103.85 C155.28,102.31 157.14,100.80 159.17,99.35 ZM 133.43 396.69 C136.32,393.33 138.99,389.01 139.00,386.94 L 139.00 386.97 C139.00,389.42 136.45,393.47 133.43,396.69 ZM 333.57 83.30 C334.11,81.61 334.58,80.25 334.93,79.47 C337.62,73.33 343.00,69.48 349.00,68.64 C345.75,69.17 342.50,70.55 339.89,72.74 C337.22,74.99 335.43,77.77 333.57,83.30 ZM 136.16 401.62 C136.29,399.98 137.29,398.32 139.55,395.81 C137.81,397.76 136.63,399.85 136.16,401.62 ZM 262.06 71.54 C257.66,73.70 253.89,77.19 251.21,81.73 C253.95,77.06 257.59,73.65 262.06,71.54 ZM 121.26 84.18 C122.20,82.35 123.33,80.64 124.64,79.11 C127.26,76.05 129.92,73.79 132.91,72.21 C132.82,72.26 132.74,72.31 132.66,72.35 C127.63,75.30 123.75,79.46 121.26,84.18 ZM 112.49 258.48 C111.93,267.96 111.79,276.74 112.08,284.83 C111.76,276.63 111.90,267.82 112.49,258.48 ZM 148.35 69.05 C150.19,69.03 151.54,69.18 152.93,69.57 C151.56,69.26 150.00,69.09 148.35,69.05 ZM 136.94 130.33 C135.64,133.59 134.41,137.08 133.22,140.83 C134.37,137.14 135.61,133.63 136.94,130.33 ZM 128.48 413.95 C126.30,413.51 124.76,413.14 124.47,412.91 C124.45,412.89 124.42,412.88 124.39,412.86 C124.43,412.87 124.47,412.89 124.50,412.91 C125.08,413.18 126.57,413.56 128.48,413.95 ZM 135.45 71.06 C137.11,70.42 138.87,69.95 140.79,69.64 C138.89,69.98 137.06,70.45 135.45,71.06 ZM 202.97 419.71 C202.46,419.46 202.26,419.14 202.18,418.71 C202.16,418.58 202.12,418.45 202.08,418.33 C202.14,418.47 202.19,418.62 202.23,418.77 C202.33,419.15 202.59,419.46 202.97,419.71 ZM 250.40 83.18 C250.01,83.95 249.71,84.75 249.55,85.44 C249.65,84.81 249.94,84.09 250.37,83.24 ZM 282.73 415.52 C286.69,415.28 290.80,414.62 291.90,414.05 C290.80,414.62 286.69,415.28 282.73,415.52 C281.90,415.57 281.10,415.62 280.32,415.68 C281.14,415.62 281.95,415.56 282.73,415.52 ZM 150.29 417.18 C151.84,417.29 154.58,417.41 157.59,417.48 C154.38,417.40 151.60,417.28 150.29,417.18 ZM 198.09 418.39 C198.80,417.54 199.58,417.10 200.28,417.06 C199.58,417.12 198.78,417.55 198.09,418.39 ZM 114.16 409.40 C113.64,409.72 112.69,409.33 112.04,408.55 C112.70,409.33 113.65,409.72 114.16,409.40 Z" fill="rgb(50,58,140)"/>
</g>
</svg>
