<svg xmlns="http://www.w3.org/2000/svg" width="414" height="444" viewBox="0 0 414 444">
<g>
<path d="M 311.38 444.00 L 88.17 444.00 C136.66,444.00 176.03,443.70 175.66,443.33 C175.30,442.96 175.74,441.84 176.66,440.83 C178.98,438.26 177.49,437.27 174.76,439.57 C173.52,440.61 174.01,439.82 175.86,437.82 C180.30,433.01 179.62,431.09 174.69,434.44 C172.61,435.85 170.23,437.00 169.39,437.00 C168.55,437.00 166.39,438.12 164.59,439.50 C161.16,442.12 159.00,442.70 159.00,441.00 C159.00,440.45 159.63,440.00 160.39,440.00 C161.16,440.00 162.05,439.33 162.36,438.50 C163.09,436.60 161.99,436.60 158.36,438.49 C154.75,440.38 152.25,440.38 148.65,438.50 C147.08,437.68 145.48,437.21 145.09,437.45 C144.70,437.68 139.47,438.19 133.45,438.58 C123.12,439.24 122.60,439.18 123.97,437.53 C125.26,435.99 125.21,435.63 123.60,434.45 C122.03,433.30 121.43,433.45 119.15,435.56 C116.13,438.37 113.79,438.66 111.97,436.46 C111.27,435.62 109.98,434.99 109.10,435.08 C102.47,435.71 100.00,432.81 105.27,430.59 C110.66,428.33 115.50,427.00 118.31,427.00 C120.33,427.00 121.58,426.04 123.49,423.02 C124.87,420.83 126.00,418.35 126.00,417.52 C126.00,416.02 122.02,404.27 118.19,394.50 C108.33,369.29 103.41,354.01 101.53,342.75 C101.19,340.69 100.64,339.00 100.30,339.00 C99.97,339.00 98.10,340.86 96.15,343.14 C92.22,347.73 86.15,350.94 81.33,350.98 C76.94,351.01 69.15,347.50 65.16,343.69 C63.32,341.93 60.62,338.25 59.16,335.50 C56.62,330.72 56.50,329.83 56.51,315.50 C56.52,302.86 56.89,299.24 58.82,292.50 C63.69,275.56 75.54,254.90 91.64,235.31 L 100.01 225.12 L 102.03 213.31 C104.37,199.60 110.57,174.43 115.61,158.15 C117.55,151.91 118.99,146.66 118.82,146.49 C118.64,146.33 115.77,144.18 112.44,141.73 C105.71,136.79 101.10,130.56 97.93,122.11 C94.89,113.98 95.46,100.78 99.20,92.76 C102.45,85.79 109.76,78.27 116.50,74.96 C120.80,72.84 122.89,72.50 131.50,72.51 C139.83,72.51 142.37,72.91 146.69,74.86 C153.37,77.87 162.16,87.04 165.41,94.39 C166.77,97.47 168.48,100.00 169.19,100.00 C169.91,100.00 174.32,99.32 179.00,98.50 C189.75,96.61 208.30,96.61 222.50,98.51 C228.55,99.32 233.80,99.99 234.16,99.99 C234.52,100.00 236.61,96.74 238.81,92.75 C241.00,88.76 244.53,83.77 246.65,81.65 C263.46,64.84 293.00,69.95 303.54,91.50 C308.49,101.61 308.51,116.12 303.59,125.83 C301.06,130.82 294.15,138.48 287.64,143.51 L 283.77 146.50 L 286.29 154.00 C288.73,161.26 291.15,169.27 294.52,181.25 C295.41,184.41 296.53,187.00 297.01,187.00 C299.64,187.00 314.15,167.20 321.55,153.50 C329.89,138.06 337.33,132.47 348.57,133.19 C366.15,134.30 374.90,151.14 369.04,172.57 C361.04,201.81 345.97,226.88 318.71,256.28 L 308.71 267.07 L 308.43 288.78 C308.15,309.24 306.21,331.51 303.91,340.50 C300.47,353.90 295.62,366.08 285.81,385.91 C278.95,399.77 274.54,409.90 274.25,412.47 C273.82,416.32 274.14,417.01 278.64,421.90 C283.20,426.84 283.80,427.17 288.24,427.17 C290.85,427.17 293.24,427.58 293.55,428.08 C293.86,428.59 295.58,429.00 297.37,429.00 C299.16,429.00 301.44,429.60 302.43,430.33 C304.15,431.58 304.09,431.79 301.38,433.93 C299.05,435.76 297.70,436.09 294.29,435.62 C291.98,435.31 289.85,435.44 289.56,435.91 C289.27,436.38 288.01,437.01 286.76,437.31 C285.52,437.61 282.70,438.34 280.50,438.93 C278.30,439.52 274.02,440.27 271.00,440.60 C266.52,441.08 265.73,440.95 266.75,439.89 C267.44,439.18 268.00,438.24 268.00,437.80 C268.00,436.65 264.21,436.82 261.87,438.07 C260.50,438.80 259.48,438.82 258.63,438.11 C257.77,437.39 256.55,437.52 254.59,438.54 C253.05,439.34 251.45,439.78 251.04,439.53 C250.63,439.27 249.44,439.71 248.40,440.50 C247.35,441.29 245.82,441.94 245.00,441.94 C244.07,441.94 244.55,441.15 246.25,439.88 C247.76,438.76 249.00,437.42 249.00,436.92 C249.00,435.14 246.24,436.03 242.50,439.00 C238.75,441.98 234.00,443.03 234.00,440.88 C234.00,440.15 233.42,440.24 232.35,441.13 C230.40,442.74 225.82,443.06 226.31,441.55 C226.50,440.97 227.88,440.36 229.39,440.18 C230.91,440.00 231.95,439.34 231.73,438.70 C231.52,438.06 232.28,436.76 233.42,435.80 C236.02,433.63 233.72,433.39 230.00,435.45 C228.16,436.47 227.16,436.55 226.17,435.73 C225.19,434.91 224.30,434.96 222.78,435.90 C221.31,436.83 220.54,436.87 220.04,436.07 C219.33,434.92 212.87,439.01 210.13,442.33 C208.85,443.89 215.71,444.00 311.38,444.00 ZM 128.23 431.72 C130.87,432.94 154.56,432.35 160.09,430.93 C164.95,429.68 166.79,427.36 168.01,420.93 C169.35,413.86 172.26,406.18 175.27,401.74 C178.80,396.55 177.97,393.07 172.41,389.72 C166.52,386.16 166.64,384.61 172.75,385.44 C175.36,385.80 186.94,386.33 198.48,386.63 C216.15,387.09 220.83,386.90 228.21,385.40 C233.02,384.43 237.28,383.95 237.67,384.34 C238.35,385.01 237.31,385.91 230.50,390.54 C228.85,391.66 227.50,393.16 227.50,393.87 C227.50,394.58 226.64,395.79 225.59,396.56 C223.74,397.91 223.77,398.15 226.87,404.88 C228.63,408.68 230.55,414.57 231.15,417.96 C232.81,427.40 235.11,429.51 245.39,431.04 C254.73,432.43 270.43,431.91 273.81,430.10 C276.58,428.62 276.61,425.86 273.90,423.41 C271.16,420.93 269.00,416.69 269.00,413.80 C269.00,410.48 272.25,402.41 278.94,389.13 C298.23,350.86 303.14,329.63 303.18,284.50 C303.19,272.40 302.65,257.89 301.99,252.25 C300.25,237.41 301.46,235.51 306.91,244.50 C309.45,248.69 310.81,250.00 312.62,250.00 C313.93,250.00 315.00,249.58 315.00,249.07 C315.00,248.55 316.01,247.82 317.25,247.44 C319.20,246.84 323.00,243.74 323.00,242.74 C323.00,242.55 325.40,239.92 328.33,236.90 C335.40,229.60 352.98,203.57 352.99,200.38 C353.00,199.76 354.11,197.27 355.47,194.84 C357.77,190.72 360.43,183.30 364.42,169.91 C366.98,161.30 365.07,148.41 360.52,143.71 C355.06,138.07 353.06,137.00 347.95,137.00 C338.22,137.00 333.09,141.26 324.47,156.50 C316.69,170.26 310.73,178.42 303.19,185.65 L 296.77 191.80 L 297.78 197.65 C298.34,200.87 298.59,203.84 298.34,204.25 C297.37,205.85 296.11,204.86 295.16,201.75 C290.64,187.06 287.61,176.89 284.96,167.50 C275.58,134.27 267.60,122.01 247.63,110.09 C239.46,105.22 237.83,104.64 227.13,102.90 C214.05,100.76 194.55,100.40 182.32,102.06 C172.60,103.39 159.75,107.71 152.37,112.13 C140.32,119.37 128.68,133.66 123.37,147.74 C119.07,159.13 106.02,207.96 106.01,212.69 C106.00,213.90 105.55,215.16 105.00,215.50 C104.45,215.84 104.00,216.77 104.00,217.56 C104.00,219.30 107.13,219.47 108.78,217.82 C109.43,217.17 110.25,216.92 110.60,217.26 C110.94,217.61 108.01,221.42 104.07,225.72 C100.13,230.03 96.37,234.49 95.70,235.64 C95.04,236.80 91.28,241.96 87.33,247.12 C66.42,274.50 57.44,299.87 60.13,323.97 C61.41,335.46 64.07,339.97 71.62,343.43 C77.71,346.21 81.29,346.60 85.68,344.93 C93.72,341.89 96.40,335.35 98.57,313.50 C99.69,302.27 105.17,285.00 107.62,285.00 C109.79,285.00 109.28,290.36 106.65,295.31 C104.19,299.93 102.36,314.27 102.72,326.07 C103.02,336.20 109.77,360.34 120.45,389.50 C126.20,405.19 129.00,414.06 129.00,416.57 C129.00,417.84 128.05,420.49 126.89,422.45 C124.41,426.66 124.92,430.20 128.23,431.72 ZM 279.71 133.86 C280.96,134.56 282.66,134.17 285.96,132.41 C288.45,131.08 290.94,129.99 291.49,129.97 C292.05,129.96 293.31,128.20 294.29,126.06 C295.28,123.92 297.46,120.44 299.15,118.33 C302.10,114.63 302.19,114.22 301.79,106.41 C301.45,99.80 300.86,97.43 298.55,93.49 C294.50,86.58 291.31,83.23 284.50,78.75 C278.56,74.84 278.42,74.81 270.88,75.30 C257.73,76.15 249.44,81.40 242.42,93.30 C238.37,100.18 238.14,102.00 241.35,102.00 C242.64,102.00 245.20,102.75 247.05,103.67 C250.39,105.34 250.40,105.34 252.45,102.42 C258.94,93.16 266.66,88.92 273.64,90.77 L 277.50 91.79 L 273.22 91.90 C264.94,92.10 259.38,96.26 256.02,104.79 C254.75,108.02 254.80,108.13 259.11,111.73 C261.53,113.74 266.05,118.09 269.16,121.38 L 274.83 127.38 L 279.04 125.48 C284.55,123.00 288.05,117.65 289.00,110.25 L 289.74 104.50 L 289.87 110.00 C290.01,116.29 288.38,119.62 282.04,125.96 C277.65,130.35 277.06,132.37 279.71,133.86 ZM 116.00 138.06 C119.54,140.00 121.69,139.05 124.11,134.47 C125.72,131.43 126.15,129.71 125.42,129.22 C114.60,121.99 110.26,110.29 114.97,101.05 C117.65,95.80 121.10,93.33 127.64,91.97 C134.92,90.46 137.68,91.64 145.77,99.73 L 152.06 106.03 L 157.03 103.89 C162.88,101.37 163.13,100.20 159.39,92.72 C156.01,85.95 152.66,82.43 146.50,79.17 C142.16,76.87 140.32,76.52 132.50,76.53 C125.10,76.54 122.66,76.96 118.76,78.87 C107.58,84.38 100.00,96.23 100.00,108.20 C100.00,120.77 105.21,132.86 112.00,136.06 C113.38,136.70 115.18,137.60 116.00,138.06 ZM 174.00 428.20 C174.00,428.64 174.21,429.00 174.47,429.00 C175.62,429.00 182.98,424.73 184.05,423.43 C185.57,421.61 192.00,421.50 192.00,423.30 C192.00,424.02 191.47,425.13 190.82,425.78 C190.17,426.43 189.88,427.21 190.17,427.51 C191.04,428.37 194.00,426.90 194.00,425.61 C194.00,424.12 199.91,420.57 200.82,421.51 C201.19,421.90 200.49,422.90 199.25,423.73 C196.49,425.58 196.35,427.00 198.92,427.00 C199.97,427.00 201.02,427.55 201.24,428.22 C201.51,429.03 203.31,428.37 206.64,426.23 C212.26,422.62 217.37,421.23 219.26,422.80 C221.14,424.36 227.42,422.79 227.83,420.66 C228.38,417.80 224.32,405.87 221.03,400.70 C216.86,394.13 212.11,392.05 201.21,392.02 C191.71,392.00 187.05,393.78 182.47,399.21 C178.39,404.03 173.93,414.18 173.70,419.15 C173.50,423.47 173.51,423.48 176.75,423.17 C178.60,422.99 180.00,423.31 180.00,423.92 C180.00,424.52 179.19,425.00 178.20,425.00 C176.35,425.00 174.00,426.79 174.00,428.20 ZM 60.75 179.00 C59.59,182.94 59.06,183.52 56.46,183.68 C53.15,183.89 42.43,181.15 36.84,178.67 C32.23,176.63 27.00,170.37 27.00,166.91 C27.00,165.46 27.93,163.08 29.07,161.63 C30.86,159.36 31.90,159.00 36.60,159.00 C40.10,159.00 42.20,158.55 42.45,157.75 C42.66,157.06 43.11,155.22 43.46,153.66 C45.07,146.34 54.63,143.17 58.87,148.56 C62.30,152.92 63.32,157.71 62.67,166.43 C62.35,170.87 61.48,176.52 60.75,179.00 ZM 124.42 125.10 C126.66,126.12 128.72,126.97 129.00,126.98 C129.27,126.99 132.20,124.17 135.50,120.70 C138.80,117.24 143.07,113.23 145.00,111.79 L 148.50 109.17 L 145.61 103.56 C141.55,95.66 138.39,93.66 129.78,93.57 C122.93,93.50 122.83,93.54 119.01,97.63 C114.72,102.22 112.72,109.72 114.86,113.15 C115.49,114.15 116.00,115.59 116.00,116.35 C116.00,118.80 120.23,123.20 124.42,125.10 ZM 354.00 360.75 C345.38,365.08 340.98,365.98 339.31,363.75 C335.54,358.69 332.92,346.57 334.09,339.56 C335.69,329.96 346.03,328.04 349.63,336.67 C350.75,339.33 351.51,340.01 352.80,339.50 C357.72,337.56 360.63,337.82 363.81,340.49 C366.20,342.50 367.00,344.00 367.00,346.44 C367.00,352.02 363.33,356.06 354.00,360.75 ZM 47.00 179.07 C50.58,180.03 54.27,180.86 55.21,180.91 C57.60,181.04 59.19,174.52 59.33,164.00 C59.49,153.00 57.99,149.63 52.80,149.19 C49.57,148.92 48.92,149.26 47.56,151.89 C46.70,153.55 46.00,156.87 46.00,159.28 C46.00,164.60 45.37,165.38 42.65,163.46 C39.74,161.43 31.40,161.51 30.61,163.58 C28.09,170.13 33.81,175.54 47.00,179.07 ZM 340.67 359.25 C341.43,360.76 342.47,362.00 342.99,362.00 C346.25,362.00 355.50,357.27 359.47,353.58 C363.51,349.82 364.10,348.77 363.82,345.86 C363.52,342.69 363.26,342.48 359.31,342.20 C356.85,342.02 353.83,342.55 352.03,343.49 C348.19,345.47 347.00,344.79 347.00,340.63 C347.00,333.19 341.03,331.64 337.54,338.17 C335.60,341.78 335.60,341.95 337.44,349.17 C338.46,353.20 339.92,357.74 340.67,359.25 ZM 383.45 255.84 C380.02,262.33 379.77,262.33 378.60,255.81 C377.92,252.04 373.24,247.00 370.42,247.00 C369.64,247.00 369.00,246.32 369.00,245.50 C369.00,244.58 369.94,244.00 371.42,244.00 C374.76,244.00 379.82,239.49 381.67,234.86 C382.52,232.74 383.58,231.00 384.02,231.00 C384.46,231.00 385.13,232.79 385.50,234.97 C386.31,239.82 388.93,243.31 393.00,245.00 C397.05,246.68 396.46,247.86 390.59,249.85 C386.59,251.21 385.34,252.26 383.45,255.84 ZM 204.20 219.80 C205.13,220.73 204.86,221.00 202.95,221.00 C200.54,221.00 200.51,220.88 200.83,213.58 L 201.15 206.15 L 196.08 201.26 C190.40,195.79 189.87,193.79 193.46,191.43 C196.95,189.15 209.43,189.00 211.64,191.22 C214.10,193.67 212.62,197.36 207.50,201.56 L 203.00 205.24 L 203.00 211.92 C203.00,215.78 203.51,219.11 204.20,219.80 ZM 207.18 63.25 C205.21,65.31 203.10,67.00 202.50,67.00 C200.77,67.00 194.23,59.80 193.00,56.54 C191.21,51.78 192.43,49.00 196.32,49.00 C198.12,49.00 200.13,49.53 200.78,50.18 C201.68,51.08 202.39,50.96 203.81,49.68 C205.96,47.72 210.08,47.48 211.80,49.20 C214.62,52.02 212.89,57.27 207.18,63.25 ZM 67.60 387.58 C67.65,390.01 67.42,391.99 67.10,391.97 C66.77,391.95 65.24,390.83 63.69,389.47 C61.87,387.86 59.68,387.00 57.44,387.00 C53.65,387.00 53.35,386.45 55.53,383.56 C56.35,382.48 57.00,379.49 57.00,376.81 C57.00,371.27 57.90,370.90 62.30,374.60 C64.72,376.63 66.11,377.08 68.69,376.66 C72.62,376.03 72.66,376.18 69.75,380.12 C68.16,382.28 67.53,384.46 67.60,387.58 ZM 19.15 238.25 C18.97,241.63 18.25,241.57 14.81,237.88 C13.20,236.15 11.10,235.00 9.56,235.00 C6.48,235.00 6.31,233.93 9.00,231.50 C10.42,230.22 11.00,228.42 11.00,225.35 C11.00,222.96 11.37,221.00 11.81,221.00 C12.26,221.00 13.92,222.35 15.50,224.00 C17.62,226.21 19.29,227.00 21.87,227.00 L 25.37 227.00 L 22.45 230.05 C20.84,231.73 19.47,233.64 19.41,234.30 C19.35,234.96 19.24,236.74 19.15,238.25 ZM 174.00 174.00 C169.84,178.16 162.00,174.80 162.00,168.86 C162.00,165.63 165.87,162.00 169.31,162.00 C175.16,162.00 178.20,169.80 174.00,174.00 ZM 239.69 173.83 C236.51,176.81 232.63,176.62 230.07,173.37 C227.45,170.03 227.44,166.98 230.04,164.19 C232.61,161.43 236.94,161.37 239.81,164.04 C242.69,166.72 242.63,171.06 239.69,173.83 ZM 334.47 73.03 C333.47,74.14 331.89,76.73 330.98,78.78 C329.35,82.43 329.31,82.46 328.59,80.00 C326.71,73.52 325.53,71.80 321.61,69.80 C317.98,67.95 317.73,67.61 319.50,66.92 C322.57,65.72 325.00,65.87 325.03,67.25 C325.05,67.94 326.17,69.76 327.53,71.30 L 329.99 74.11 L 333.50 71.43 C335.42,69.96 336.99,68.48 336.97,68.13 C336.95,67.78 335.78,66.18 334.36,64.57 C332.17,62.08 331.51,61.82 329.90,62.83 C328.85,63.48 328.00,63.80 328.00,63.53 C328.00,62.13 331.33,55.00 331.98,55.00 C332.40,55.00 333.03,56.77 333.37,58.93 C334.01,62.93 337.03,66.24 341.27,67.59 C343.31,68.23 343.31,68.30 341.50,69.63 C340.46,70.38 338.87,71.00 337.96,71.00 C337.05,71.00 335.48,71.91 334.47,73.03 ZM 199.30 61.75 C200.43,62.99 201.91,64.00 202.59,64.00 C204.55,64.00 209.83,56.68 210.18,53.48 C210.64,49.31 207.36,48.85 204.23,52.64 L 201.88 55.50 L 200.32 53.25 C198.31,50.36 195.00,50.25 195.00,53.07 C195.00,55.59 196.57,58.75 199.30,61.75 ZM 378.25 249.50 C379.49,251.41 380.73,252.96 381.00,252.95 C381.27,252.94 383.27,251.41 385.43,249.57 L 389.35 246.21 L 386.53 242.85 C384.98,241.01 383.41,239.50 383.05,239.50 C382.17,239.50 376.00,244.71 376.00,245.45 C376.00,245.77 377.01,247.59 378.25,249.50 ZM 184.50 441.95 L 181.50 443.99 L 185.14 443.99 C187.46,444.00 188.99,443.46 189.36,442.50 C189.68,441.67 190.74,441.01 191.72,441.03 C193.36,441.06 193.34,441.18 191.56,442.53 C189.71,443.93 189.75,444.00 192.46,444.00 C195.57,444.00 202.00,439.68 202.00,437.60 C202.00,436.89 202.90,435.50 204.00,434.50 C205.10,433.50 206.00,432.31 206.00,431.85 C206.00,430.01 203.99,431.21 199.60,435.66 C196.51,438.80 195.00,439.78 195.00,438.66 C195.00,437.75 194.83,437.00 194.62,437.00 C193.59,437.00 187.15,440.15 184.50,441.95 ZM 61.25 385.75 C64.03,387.05 66.24,384.78 65.79,381.07 C65.38,377.63 60.43,376.26 59.60,379.36 C58.58,383.18 58.96,384.68 61.25,385.75 ZM 13.81 234.07 C16.33,236.05 16.49,236.06 17.76,234.32 C19.89,231.40 18.94,227.55 16.00,227.22 C14.15,227.02 13.20,227.60 12.34,229.47 C11.32,231.71 11.49,232.24 13.81,234.07 ZM 205.72 440.50 C201.28,443.49 200.89,444.00 203.01,443.99 C205.53,443.97 214.61,437.11 212.21,437.04 C211.50,437.02 208.58,438.58 205.72,440.50 ZM 183.23 433.82 C183.01,434.47 183.49,435.00 184.29,435.00 C186.09,435.00 188.55,432.21 187.59,431.26 C186.76,430.43 183.77,432.18 183.23,433.82 Z" fill="rgb(14,15,21)"/>
<path d="M 128.23 431.72 C124.92,430.20 124.41,426.66 126.89,422.45 C127.86,420.82 128.68,418.70 128.93,417.30 C129.16,420.18 128.61,421.93 127.47,423.44 C125.38,426.20 125.65,428.64 128.22,430.44 C131.52,432.75 133.34,432.51 131.97,429.95 C131.13,428.37 131.27,426.87 132.57,423.46 C134.84,417.52 134.26,414.53 126.37,391.00 C122.78,380.27 119.25,369.48 118.53,367.00 C117.81,364.52 116.23,359.12 115.03,355.00 C111.77,343.83 109.07,326.18 108.34,311.25 C107.74,299.03 106.88,295.36 105.64,299.75 C104.20,304.85 102.69,317.41 102.71,324.00 C102.72,327.47 103.26,331.84 104.32,337.13 C103.35,332.54 102.80,328.80 102.72,326.07 C102.36,314.27 104.19,299.93 106.65,295.31 C109.28,290.36 109.79,285.00 107.62,285.00 C105.17,285.00 99.69,302.27 98.57,313.50 C96.40,335.35 93.72,341.89 85.68,344.93 C81.29,346.60 77.71,346.21 71.62,343.43 C64.07,339.97 61.41,335.46 60.13,323.97 C58.88,312.82 60.14,301.39 63.92,289.62 C61.18,298.33 59.84,306.90 59.81,315.59 C59.77,327.08 61.44,333.52 65.70,338.22 C66.59,339.21 67.45,339.88 67.62,339.72 C67.78,339.56 67.04,336.07 65.97,331.96 C60.41,310.55 67.56,284.83 87.18,255.63 C90.56,250.61 94.93,244.42 96.91,241.89 C98.88,239.35 102.57,234.62 105.11,231.39 C109.86,225.31 111.94,221.00 110.10,221.00 C108.94,221.00 99.06,232.10 90.92,242.36 C93.34,239.10 95.25,236.43 95.70,235.64 C96.37,234.49 100.13,230.03 104.07,225.72 C108.01,221.42 110.94,217.61 110.60,217.26 C110.25,216.92 109.43,217.17 108.78,217.82 C107.13,219.47 104.00,219.30 104.00,217.56 C104.00,216.77 104.45,215.84 105.00,215.50 C105.16,215.40 105.31,215.23 105.44,215.00 C104.96,218.74 106.38,218.95 110.12,215.75 C112.19,213.98 113.12,211.68 114.50,205.00 C117.72,189.30 119.59,182.51 125.61,164.50 C136.46,132.03 147.63,118.83 171.70,110.05 C181.93,106.32 191.76,105.00 209.32,105.01 C222.18,105.01 227.40,105.48 238.00,107.57 C243.04,108.57 240.67,106.61 234.50,104.68 C231.15,103.64 226.79,102.79 221.89,102.17 C223.72,102.39 225.47,102.63 227.13,102.90 C237.83,104.64 239.46,105.22 247.63,110.09 C267.60,122.01 275.58,134.27 284.96,167.50 C287.61,176.89 290.64,187.06 295.16,201.75 C296.11,204.86 297.37,205.85 298.34,204.25 C298.59,203.84 298.34,200.87 297.78,197.65 L 296.77 191.80 L 303.19 185.65 C307.92,181.11 312.03,176.21 316.36,169.78 C312.05,176.18 307.96,181.07 303.30,185.54 C299.84,188.86 297.00,192.12 297.00,192.79 C297.00,195.55 300.14,193.58 306.62,186.75 C313.52,179.48 321.52,168.12 328.27,156.00 C334.09,145.56 342.27,139.00 349.47,139.00 C350.86,139.00 352.00,138.55 352.00,138.00 C352.00,137.58 351.47,137.30 350.61,137.14 C353.96,137.58 356.12,139.16 360.52,143.71 C365.07,148.41 366.98,161.30 364.42,169.91 C360.43,183.30 357.77,190.72 355.47,194.84 C354.11,197.27 353.00,199.76 352.99,200.38 C352.98,203.57 335.40,229.60 328.33,236.90 C325.40,239.92 323.00,242.55 323.00,242.74 C323.00,243.74 319.20,246.84 317.25,247.44 C316.01,247.82 315.00,248.55 315.00,249.07 C315.00,249.58 313.93,250.00 312.62,250.00 C310.81,250.00 309.45,248.69 306.91,244.50 C301.46,235.51 300.25,237.41 301.99,252.25 C302.65,257.89 303.19,272.40 303.18,284.50 C303.14,329.63 298.23,350.86 278.94,389.13 C272.25,402.41 269.00,410.48 269.00,413.80 C269.00,416.69 271.16,420.93 273.90,423.41 C276.61,425.86 276.58,428.62 273.81,430.10 C270.43,431.91 254.73,432.43 245.39,431.04 C235.11,429.51 232.81,427.40 231.15,417.96 C230.55,414.57 228.63,408.68 226.87,404.88 C226.70,404.51 226.55,404.16 226.39,403.84 C227.75,406.59 229.96,412.40 231.37,416.93 C232.82,421.56 234.78,426.21 235.73,427.25 C239.31,431.21 238.20,423.56 233.31,410.61 C230.78,403.88 225.81,396.85 224.52,398.15 C224.31,398.36 224.49,399.28 224.94,400.53 C223.91,397.93 224.27,397.53 225.59,396.56 C226.64,395.79 227.50,394.58 227.50,393.87 C227.50,393.16 228.85,391.66 230.50,390.54 C237.31,385.91 238.35,385.01 237.67,384.34 C237.28,383.95 233.02,384.43 228.21,385.40 C220.83,386.90 216.15,387.09 198.48,386.63 C186.94,386.33 175.36,385.80 172.75,385.44 C166.64,384.61 166.52,386.16 172.41,389.72 C177.97,393.07 178.80,396.55 175.27,401.74 C172.26,406.18 169.35,413.86 168.01,420.93 C166.79,427.36 164.95,429.68 160.09,430.93 C154.56,432.35 130.87,432.94 128.23,431.72 ZM 193.00 234.07 C206.64,236.80 224.34,231.67 230.87,223.10 C237.57,214.31 229.90,196.32 213.70,182.83 C208.38,178.41 207.45,178.00 202.64,178.00 C198.59,178.00 196.38,178.65 192.95,180.83 C186.69,184.81 178.12,194.43 174.03,202.04 C171.17,207.38 170.56,209.58 170.53,214.69 C170.50,220.39 170.77,221.16 173.86,224.36 C177.38,227.98 187.00,232.87 193.00,234.07 ZM 279.71 133.86 C277.06,132.37 277.65,130.35 282.04,125.96 C288.38,119.62 290.01,116.29 289.87,110.00 L 289.74 104.50 L 289.00 110.25 C288.05,117.65 284.55,123.00 279.04,125.48 L 274.83 127.38 L 269.16 121.38 C266.77,118.85 263.54,115.69 261.08,113.46 C264.07,115.96 267.99,119.79 270.08,122.25 C272.30,124.86 274.61,127.00 275.21,127.00 C277.78,127.00 284.91,119.79 286.54,115.54 C291.99,101.27 278.35,88.19 265.08,94.96 C262.42,96.32 258.10,101.18 256.09,104.62 C259.46,96.21 265.00,92.09 273.22,91.90 L 277.50 91.79 L 273.64 90.77 C266.66,88.92 258.94,93.16 252.45,102.42 C250.40,105.34 250.39,105.34 247.05,103.67 C245.20,102.75 242.64,102.00 241.35,102.00 C238.14,102.00 238.37,100.18 242.42,93.30 C246.68,86.09 251.40,81.32 257.39,78.49 C254.14,80.10 251.13,82.29 248.63,84.97 C244.10,89.81 240.00,96.69 240.00,99.46 C240.00,102.77 243.02,100.72 246.45,95.09 C253.03,84.26 260.69,79.33 272.81,78.14 L 280.50 77.38 L 276.07 76.10 C274.33,75.60 272.49,75.35 270.60,75.32 C270.69,75.31 270.78,75.30 270.88,75.30 C278.42,74.81 278.56,74.84 284.50,78.75 C291.31,83.23 294.50,86.58 298.55,93.49 C300.86,97.43 301.45,99.80 301.79,106.41 C302.19,114.22 302.10,114.63 299.15,118.33 C297.46,120.44 295.28,123.92 294.29,126.06 C293.31,128.20 292.05,129.96 291.49,129.97 C290.94,129.99 288.45,131.08 285.96,132.41 C282.66,134.17 280.96,134.56 279.71,133.86 ZM 116.00 138.06 C115.18,137.60 113.38,136.70 112.00,136.06 C105.21,132.86 100.00,120.77 100.00,108.20 C100.00,107.67 100.02,107.13 100.05,106.60 C100.05,107.65 100.10,108.85 100.16,110.27 C100.54,119.03 102.79,125.22 107.71,131.07 C111.76,135.88 112.24,134.41 108.79,127.75 C105.81,121.99 105.57,120.79 105.66,112.45 C105.76,102.43 107.32,98.10 113.61,90.34 C122.48,79.40 139.02,76.77 150.41,84.50 C155.33,87.84 155.99,87.65 152.44,83.91 C150.81,82.20 149.27,80.85 147.65,79.80 C153.09,82.89 156.23,86.38 159.39,92.72 C163.13,100.20 162.88,101.37 157.03,103.89 L 152.06 106.03 L 145.77 99.73 C137.68,91.64 134.92,90.46 127.64,91.97 C121.10,93.33 117.65,95.80 114.97,101.05 C110.26,110.29 114.60,121.99 125.42,129.22 C126.15,129.71 125.72,131.43 124.11,134.47 C121.69,139.05 119.54,140.00 116.00,138.06 ZM 162.21 179.86 C167.49,183.24 172.18,182.70 176.96,178.15 C180.65,174.65 181.00,173.86 181.00,169.23 C181.00,164.85 180.54,163.66 177.71,160.66 C171.69,154.27 163.25,154.80 158.44,161.88 C154.18,168.14 155.78,175.74 162.21,179.86 ZM 228.59 179.73 C233.18,182.36 236.03,182.55 239.97,180.52 C244.39,178.23 247.00,173.86 247.00,168.76 C247.00,165.20 246.36,163.59 243.75,160.57 C237.29,153.10 226.57,155.27 223.13,164.75 C220.94,170.79 223.05,176.57 228.59,179.73 ZM 223.57 440.50 C221.11,442.25 219.97,443.20 219.93,443.66 C210.57,443.42 209.57,443.01 210.13,442.33 C212.87,439.01 219.33,434.92 220.04,436.07 C220.54,436.87 221.31,436.83 222.78,435.90 C224.30,434.96 225.19,434.91 226.17,435.73 C227.16,436.55 228.16,436.47 230.00,435.45 C233.72,433.39 236.02,433.63 233.42,435.80 C232.28,436.76 231.52,438.06 231.73,438.70 C231.95,439.34 230.91,440.00 229.39,440.18 C227.88,440.36 226.50,440.97 226.31,441.55 C225.82,443.06 230.40,442.74 232.35,441.13 C233.42,440.24 234.00,440.15 234.00,440.88 C234.00,443.03 238.75,441.98 242.50,439.00 C246.24,436.03 249.00,435.14 249.00,436.92 C249.00,437.42 247.76,438.76 246.25,439.88 C244.55,441.15 244.07,441.94 245.00,441.94 C245.82,441.94 247.35,441.29 248.40,440.50 C249.44,439.71 250.63,439.27 251.04,439.53 C251.45,439.78 253.05,439.34 254.59,438.54 C256.55,437.52 257.77,437.39 258.63,438.11 C259.48,438.82 260.50,438.80 261.87,438.07 C264.21,436.82 268.00,436.65 268.00,437.80 C268.00,438.24 267.44,439.18 266.75,439.89 C265.93,440.74 266.28,440.99 268.77,440.81 C265.01,441.15 264.82,440.92 265.90,439.62 C267.06,438.22 266.99,438.00 265.37,438.01 C264.34,438.01 262.15,438.91 260.50,440.00 C256.90,442.38 256.00,442.48 256.00,440.50 C256.00,438.60 254.60,438.57 253.06,440.43 C252.40,441.22 251.11,441.88 250.18,441.90 C249.26,441.92 246.93,442.21 245.00,442.54 L 241.50 443.13 L 244.77 440.07 C246.56,438.38 247.43,437.00 246.70,437.00 C245.97,437.00 244.10,438.33 242.55,439.95 C240.95,441.62 238.38,443.06 236.61,443.29 C236.58,443.29 236.56,443.30 236.56,443.30 C236.56,443.51 275.16,443.75 323.75,443.84 L 414.00 444.00 L 311.38 444.00 C260.94,444.00 235.18,443.97 222.29,443.71 C222.92,443.47 223.45,443.12 223.70,442.71 C224.14,442.01 225.80,440.43 227.38,439.21 C232.05,435.63 228.94,436.68 223.57,440.50 ZM 175.66 443.33 C176.03,443.70 136.66,444.00 88.17,444.00 C138.95,443.99 169.89,443.63 169.54,443.06 C169.22,442.55 170.77,440.67 172.98,438.90 C175.19,437.12 177.00,435.25 177.00,434.75 C177.00,434.24 174.91,435.67 172.36,437.92 C169.81,440.16 167.02,442.00 166.17,442.00 C164.93,442.00 165.01,441.68 166.56,440.41 C167.63,439.53 166.79,439.76 164.69,440.91 C160.35,443.30 158.35,443.54 157.75,441.76 C157.43,440.78 156.78,440.78 154.67,441.74 C153.20,442.41 152.00,442.57 152.00,442.10 C152.00,441.62 151.10,441.00 150.00,440.71 C148.90,440.42 148.00,440.60 148.00,441.09 C148.00,441.59 147.32,442.00 146.50,442.00 C144.69,442.00 144.57,440.83 146.20,439.20 C147.81,437.59 146.12,437.69 142.84,439.40 C140.92,440.40 139.88,440.48 139.09,439.69 C138.36,438.96 138.00,438.94 138.00,439.65 C138.00,440.90 123.00,440.23 121.59,438.93 C121.06,438.43 121.21,437.45 121.96,436.54 C123.57,434.61 122.99,434.60 119.36,436.49 C117.45,437.49 115.95,437.97 114.73,437.91 C116.01,437.90 117.48,437.11 119.15,435.56 C121.43,433.45 122.03,433.30 123.60,434.45 C125.21,435.63 125.26,435.99 123.97,437.53 C122.60,439.18 123.12,439.24 133.45,438.58 C139.47,438.19 144.70,437.68 145.09,437.45 C145.48,437.21 147.08,437.68 148.65,438.50 C152.25,440.38 154.75,440.38 158.36,438.49 C161.99,436.60 163.09,436.60 162.36,438.50 C162.05,439.33 161.16,440.00 160.39,440.00 C159.63,440.00 159.00,440.45 159.00,441.00 C159.00,442.70 161.16,442.12 164.59,439.50 C166.39,438.12 168.55,437.00 169.39,437.00 C170.23,437.00 172.61,435.85 174.69,434.44 C179.62,431.09 180.30,433.01 175.86,437.82 C174.01,439.82 173.52,440.61 174.76,439.57 C177.49,437.27 178.98,438.26 176.66,440.83 C175.74,441.84 175.30,442.96 175.66,443.33 ZM 41.82 328.94 C43.42,333.51 41.80,335.14 39.35,331.42 C35.52,325.57 36.60,298.00 40.66,298.00 C41.79,298.00 41.91,299.04 41.28,303.25 C40.13,310.95 40.42,324.98 41.82,328.94 ZM 85.02 95.28 C84.31,97.90 83.27,100.34 82.70,100.68 C80.93,101.78 82.81,89.31 85.11,84.74 C88.58,77.84 96.82,68.00 99.11,68.00 C100.86,68.00 99.94,69.95 96.44,73.69 C92.33,78.08 86.91,88.34 85.02,95.28 ZM 381.00 141.90 C381.00,146.68 379.36,145.59 377.01,139.25 C374.07,131.35 370.89,126.21 366.08,121.55 C363.84,119.37 362.00,117.24 362.00,116.80 C362.00,115.04 364.85,116.18 368.69,119.47 C373.45,123.54 381.00,137.30 381.00,141.90 ZM 174.00 428.20 C174.00,426.79 176.35,425.00 178.20,425.00 C179.19,425.00 180.00,424.52 180.00,423.92 C180.00,423.31 178.60,422.99 176.75,423.17 C176.07,423.23 175.53,423.29 175.11,423.29 C175.15,423.25 175.19,423.21 175.23,423.17 C175.87,422.53 177.71,422.00 179.31,422.00 C181.65,422.00 182.09,422.34 181.55,423.73 C181.04,425.06 181.43,424.94 183.26,423.23 C185.85,420.79 191.78,420.18 193.76,422.16 C194.63,423.03 195.27,423.02 196.40,422.09 C197.21,421.41 199.12,421.00 200.63,421.18 C203.25,421.49 203.30,421.58 201.62,423.25 C199.48,425.37 200.86,425.57 203.56,423.53 C206.03,421.66 208.38,421.58 207.68,423.38 C207.25,424.52 208.05,424.48 212.13,423.18 C214.53,422.41 216.07,422.08 217.22,422.17 C214.72,422.09 210.82,423.55 206.64,426.23 C203.31,428.37 201.51,429.03 201.24,428.22 C201.02,427.55 199.97,427.00 198.92,427.00 C196.35,427.00 196.49,425.58 199.25,423.73 C200.49,422.90 201.19,421.90 200.82,421.51 C199.91,420.57 194.00,424.12 194.00,425.61 C194.00,426.90 191.04,428.37 190.17,427.51 C189.88,427.21 190.17,426.43 190.82,425.78 C191.47,425.13 192.00,424.02 192.00,423.30 C192.00,421.50 185.57,421.61 184.05,423.43 C182.98,424.73 175.62,429.00 174.47,429.00 C174.21,429.00 174.00,428.64 174.00,428.20 ZM 349.20 157.80 C351.09,159.69 353.88,159.21 356.55,156.55 C359.21,153.88 359.57,151.94 357.96,148.93 C356.68,146.53 352.34,146.39 349.83,148.65 C347.75,150.53 347.38,155.98 349.20,157.80 ZM 204.20 219.80 C203.51,219.11 203.00,215.78 203.00,211.92 L 203.00 205.24 L 207.50 201.56 C212.62,197.36 214.10,193.67 211.64,191.22 C210.22,189.79 204.52,189.34 199.73,189.82 C200.67,189.67 201.69,189.54 202.78,189.44 C208.99,188.84 210.34,189.00 212.03,190.52 C215.16,193.36 214.40,196.02 209.00,201.09 L 204.00 205.79 L 204.00 212.39 C204.00,220.12 204.75,220.51 211.74,216.41 C214.17,214.99 216.36,214.02 216.60,214.27 C217.69,215.36 215.61,217.82 212.22,219.43 C205.24,222.76 193.67,222.07 189.69,218.09 C187.67,216.07 189.73,215.98 194.01,217.89 C198.40,219.86 200.09,220.07 200.69,217.25 C200.62,220.93 201.04,221.00 202.95,221.00 C204.86,221.00 205.13,220.73 204.20,219.80 ZM 184.50 441.95 C187.15,440.15 193.59,437.00 194.62,437.00 C194.83,437.00 195.00,437.75 195.00,438.66 C195.00,439.78 196.51,438.80 199.60,435.66 C203.99,431.21 206.00,430.01 206.00,431.85 C206.00,432.31 205.10,433.50 204.00,434.50 C202.90,435.50 202.00,436.89 202.00,437.60 C202.00,439.68 195.57,444.00 192.46,444.00 C189.75,444.00 189.71,443.93 191.56,442.53 C193.34,441.18 193.36,441.06 191.72,441.03 C190.74,441.01 189.68,441.67 189.36,442.50 C188.99,443.46 187.46,444.00 185.14,443.99 L 181.50 443.99 ZM 334.67 156.33 C335.88,157.55 339.83,157.02 341.43,155.43 C343.29,153.57 343.50,148.90 341.80,147.20 C339.96,145.36 336.19,145.77 335.04,147.93 C333.87,150.10 333.65,155.31 334.67,156.33 ZM 124.42 125.10 C120.23,123.20 116.00,118.80 116.00,116.35 C116.00,115.59 115.49,114.15 114.86,113.15 C112.72,109.72 114.72,102.22 119.01,97.63 C122.83,93.54 122.93,93.50 129.78,93.57 C138.39,93.66 141.55,95.66 145.61,103.56 L 146.69 105.66 C144.25,101.97 139.00,96.48 136.44,95.41 C125.89,91.00 115.54,98.00 115.61,109.50 C115.64,115.73 118.26,120.20 124.16,124.11 C126.34,125.56 128.41,126.76 129.05,126.97 C129.03,126.97 129.01,126.98 129.00,126.98 C128.72,126.97 126.66,126.12 124.42,125.10 ZM 357.20 169.80 C359.06,171.66 361.73,171.22 363.44,168.78 C365.86,165.32 365.44,162.15 362.46,161.40 C357.80,160.23 353.89,166.49 357.20,169.80 ZM 78.58 84.75 C76.50,91.04 74.50,91.79 75.28,85.98 C76.07,80.04 81.65,70.00 84.15,70.00 C85.59,70.00 85.10,71.88 82.66,75.77 C81.37,77.82 79.53,81.86 78.58,84.75 ZM 388.00 132.46 C388.00,135.02 385.26,134.19 384.57,131.42 C384.21,130.00 382.81,127.08 381.46,124.94 C378.91,120.90 378.39,119.00 379.85,119.00 C381.86,119.00 388.00,129.14 388.00,132.46 ZM 31.61 322.42 C32.48,324.68 30.27,324.38 29.04,322.07 C27.50,319.20 27.77,310.68 29.47,308.44 C30.80,306.68 30.94,307.15 30.97,313.67 C30.99,317.61 31.27,321.55 31.61,322.42 ZM 183.23 433.82 C183.77,432.18 186.76,430.43 187.59,431.26 C188.55,432.21 186.09,435.00 184.29,435.00 C183.49,435.00 183.01,434.47 183.23,433.82 ZM 132.96 123.32 C133.35,122.87 133.76,122.41 134.16,121.92 C136.32,119.36 139.94,115.89 142.55,113.85 C140.45,115.73 137.75,118.34 135.50,120.70 C134.61,121.63 133.75,122.52 132.96,123.32 ZM 201.15 206.15 L 200.98 210.00 C200.89,205.95 200.26,205.30 196.08,201.26 L 201.15 206.15 ZM 348.31 137.00 C345.40,137.05 341.46,137.75 339.21,138.91 C337.94,139.56 336.80,140.26 335.72,141.09 C339.32,138.08 343.06,137.00 347.95,137.00 C348.08,137.00 348.20,137.00 348.31,137.00 ZM 102.33 96.63 C105.39,89.11 111.27,82.57 118.76,78.87 C111.98,82.22 106.27,88.21 102.80,95.61 C102.64,95.96 102.48,96.30 102.33,96.63 ZM 106.36 210.14 C107.63,203.31 112.15,185.75 116.39,170.63 C112.50,184.55 108.33,200.81 106.36,210.14 ZM 146.04 111.01 C147.23,109.90 148.00,108.94 148.00,108.50 C148.00,108.38 147.98,108.24 147.94,108.08 L 148.50 109.17 ZM 144.58 78.21 C141.61,77.03 138.11,76.57 133.28,76.53 C139.27,76.54 141.55,76.82 144.58,78.21 ZM 192.20 192.41 C190.99,193.57 190.85,194.77 191.88,196.49 C191.32,195.69 191.00,195.05 191.00,194.71 C191.00,193.85 191.40,193.08 192.20,192.41 ZM 219.67 423.06 C220.95,423.49 222.69,423.45 224.24,423.07 C222.58,423.51 220.74,423.59 219.67,423.06 ZM 255.63 108.42 C256.11,108.99 256.84,109.74 257.73,110.57 C256.66,109.65 255.99,109.01 255.63,108.42 ZM 180.37 402.09 C181.06,401.01 181.77,400.03 182.47,399.21 C182.86,398.74 183.26,398.29 183.66,397.88 C183.30,398.26 182.93,398.67 182.57,399.10 C181.84,399.97 181.09,400.98 180.37,402.09 ZM 280.50 438.93 C282.70,438.34 285.52,437.61 286.76,437.31 C285.52,437.61 282.70,438.35 280.50,438.94 C279.63,439.18 278.41,439.44 277.04,439.69 C278.39,439.44 279.61,439.17 280.50,438.93 ZM 122.33 150.71 C122.71,149.55 123.06,148.55 123.37,147.74 C124.99,143.44 127.20,139.13 129.83,135.00 C127.20,139.13 124.99,143.44 123.37,147.74 C123.06,148.56 122.71,149.56 122.33,150.71 ZM 120.45 389.50 C121.90,393.44 123.14,396.89 124.19,399.92 C123.12,396.86 121.88,393.39 120.45,389.50 Z" fill="rgb(48,57,139)"/>
</g>
</svg>
